<svg width="40" height="40" viewBox="0 0 40 40" fill="none" xmlns="http://www.w3.org/2000/svg">
<path opacity="0.4" d="M17.975 30.665V9.335C17.975 7.31 17.12 6.5 14.96 6.5H9.515C7.355 6.5 6.5 7.31 6.5 9.335V30.665C6.5 32.69 7.355 33.5 9.515 33.5H14.96C17.12 33.5 17.975 32.69 17.975 30.665Z" stroke="#292D32" stroke-width="1.28571" stroke-linecap="round" stroke-linejoin="round"/>
<path d="M33.5004 30.665V9.335C33.5004 7.31 32.6454 6.5 30.4854 6.5H25.0404C22.8954 6.5 22.0254 7.31 22.0254 9.335V30.665C22.0254 32.69 22.8804 33.5 25.0404 33.5H30.4854C32.6454 33.5 33.5004 32.69 33.5004 30.665Z" stroke="#292D32" stroke-width="1.28571" stroke-linecap="round" stroke-linejoin="round"/>
</svg>
