<svg width="40" height="40" viewBox="0 0 40 40" fill="none" xmlns="http://www.w3.org/2000/svg">
<path d="M30.5 20C30.5 15.035 26.465 11 21.5 11H14C9.035 11 5 15.035 5 20C5 24.965 9.035 29 14 29H21.5C26.465 29 30.5 24.965 30.5 20Z" stroke="#292D32" stroke-width="1.28571" stroke-linecap="round" stroke-linejoin="round"/>
<path opacity="0.4" d="M18.5 33.5H21.5C28.955 33.5 35 27.455 35 20C35 12.545 28.955 6.5 21.5 6.5H18.5" stroke="#292D32" stroke-width="1.28571" stroke-linecap="round" stroke-linejoin="round"/>
<path opacity="0.4" d="M13.2195 24.3359C12.2445 21.6659 12.2445 18.7559 13.2195 16.0859" stroke="#292D32" stroke-width="1.28571" stroke-linecap="round" stroke-linejoin="round"/>
<path opacity="0.4" d="M17.7194 22.9542C17.2244 21.1542 17.2244 19.2492 17.7194 17.4492" stroke="#292D32" stroke-width="1.28571" stroke-linecap="round" stroke-linejoin="round"/>
</svg>
