<svg preserveAspectRatio="none" width="100%" height="100%" overflow="visible" style="display: block;" viewBox="0 0 44 44" fill="none" xmlns="http://www.w3.org/2000/svg">
<g id="Group">
<g id="Mask group">
<mask id="mask0_604_2558" style="mask-type:luminance" maskUnits="userSpaceOnUse" x="0" y="0" width="44" height="44">
<g id="Group_2">
<path id="Vector" d="M44 0H0V44H44V0Z" fill="var(--fill-0, white)"/>
<path id="Vector_2" d="M3.66797 26.3998V28.5998C3.66797 32.7069 3.66797 34.7604 4.46725 36.3292C5.17033 37.7089 6.29218 38.8308 7.67204 39.5338C9.24073 40.3332 11.2942 40.3332 15.4013 40.3332H28.6013C32.7083 40.3332 34.7619 40.3332 36.3306 39.5338C37.7104 38.8308 38.8322 37.7089 39.5353 36.3292C40.3346 34.7604 40.3346 32.7069 40.3346 28.5998V26.3998C40.3346 22.2928 40.3346 20.2393 39.5353 18.6705C38.8322 17.2907 37.7104 16.1689 36.3306 15.4658C34.7619 14.6665 32.7083 14.6665 28.6013 14.6665H15.4013C11.2942 14.6665 9.24073 14.6665 7.67204 15.4658C6.29218 16.1689 5.17033 17.2907 4.46725 18.6705C3.66797 20.2393 3.66797 22.2928 3.66797 26.3998Z" fill="var(--fill-0, black)"/>
</g>
</mask>
<g mask="url(#mask0_604_2558)">
<path id="Vector_3" d="M29.3333 22V11C29.3333 6.94991 26.05 3.66667 22 3.66667C17.9499 3.66667 14.6667 6.94991 14.6667 11V22C14.6667 23.0125 13.8458 23.8333 12.8333 23.8333C11.8208 23.8333 11 23.0125 11 22V11C11 4.92486 15.9249 -4.76837e-07 22 -4.76837e-07C28.0751 -4.76837e-07 33 4.92486 33 11V22C33 23.0125 32.1792 23.8333 31.1667 23.8333C30.1541 23.8333 29.3333 23.0125 29.3333 22Z" fill="url(#paint0_linear_604_2558)"/>
</g>
</g>
<g id="Clip path group">
<mask id="mask1_604_2558" style="mask-type:luminance" maskUnits="userSpaceOnUse" x="3" y="14" width="38" height="27">
<g id="7re885yv9fu-1760519092860-405252_lock_clipPath_rcrph44mw">
<path id="Vector_4" d="M3.66797 26.3998V28.5998C3.66797 32.7069 3.66797 34.7604 4.46725 36.3292C5.17033 37.7089 6.29218 38.8308 7.67204 39.5338C9.24073 40.3332 11.2942 40.3332 15.4013 40.3332H28.6013C32.7083 40.3332 34.7619 40.3332 36.3306 39.5338C37.7104 38.8308 38.8322 37.7089 39.5353 36.3292C40.3346 34.7604 40.3346 32.7069 40.3346 28.5998V26.3998C40.3346 22.2928 40.3346 20.2393 39.5353 18.6705C38.8322 17.2907 37.7104 16.1689 36.3306 15.4658C34.7619 14.6665 32.7083 14.6665 28.6013 14.6665H15.4013C11.2942 14.6665 9.24073 14.6665 7.67204 15.4658C6.29218 16.1689 5.17033 17.2907 4.46725 18.6705C3.66797 20.2393 3.66797 22.2928 3.66797 26.3998Z" fill="var(--fill-0, white)"/>
</g>
</mask>
<g mask="url(#mask1_604_2558)">
<g id="Vector_5" filter="url(#filter0_f_604_2558)">
<path d="M29.3333 22V11C29.3333 6.94991 26.05 3.66667 22 3.66667C17.9499 3.66667 14.6667 6.94991 14.6667 11V22C14.6667 23.0126 13.8458 23.8333 12.8333 23.8333C11.8208 23.8333 11 23.0126 11 22V11C11 4.92487 15.9249 0 22 0C28.0751 0 33 4.92487 33 11V22C33 23.0126 32.1792 23.8333 31.1667 23.8333C30.1541 23.8333 29.3333 23.0126 29.3333 22Z" fill="url(#paint1_linear_604_2558)"/>
</g>
</g>
</g>
<path id="Vector_6" d="M3.66797 26.3998V28.5998C3.66797 32.7069 3.66797 34.7604 4.46725 36.3292C5.17033 37.7089 6.29218 38.8308 7.67204 39.5338C9.24073 40.3332 11.2942 40.3332 15.4013 40.3332H28.6013C32.7083 40.3332 34.7619 40.3332 36.3306 39.5338C37.7104 38.8308 38.8322 37.7089 39.5353 36.3292C40.3346 34.7604 40.3346 32.7069 40.3346 28.5998V26.3998C40.3346 22.2928 40.3346 20.2393 39.5353 18.6705C38.8322 17.2907 37.7104 16.1689 36.3306 15.4658C34.7619 14.6665 32.7083 14.6665 28.6013 14.6665H15.4013C11.2942 14.6665 9.24073 14.6665 7.67204 15.4658C6.29218 16.1689 5.17033 17.2907 4.46725 18.6705C3.66797 20.2393 3.66797 22.2928 3.66797 26.3998Z" fill="url(#paint2_linear_604_2558)"/>
<path id="Vector_7" d="M28.6006 38.9582V40.3332H15.402V38.9582H28.6006ZM38.9596 28.5991V26.4006C38.9596 24.3245 38.9591 22.8492 38.8647 21.6955C38.7717 20.5577 38.5941 19.8528 38.3097 19.2946C37.7385 18.1737 36.8275 17.2626 35.7066 16.6914C35.1483 16.407 34.4434 16.2294 33.3056 16.1364C32.1519 16.0421 30.6766 16.0415 28.6006 16.0415H15.402C13.3259 16.0415 11.8508 16.0421 10.6969 16.1364C9.55913 16.2294 8.85427 16.407 8.29605 16.6914C7.17523 17.2626 6.26406 18.1738 5.69287 19.2946C5.40846 19.8528 5.23083 20.5577 5.13786 21.6955C5.04361 22.8492 5.04297 24.3245 5.04297 26.4006V28.5991C5.04297 30.6752 5.04361 32.1505 5.13786 33.3042C5.23083 34.4419 5.40846 35.1469 5.69287 35.7051C6.26406 36.826 7.17523 37.737 8.29605 38.3083C8.85427 38.5926 9.55913 38.7703 10.6969 38.8632C11.8508 38.9576 13.3259 38.9582 15.402 38.9582V40.3332L12.6807 40.3207C10.4959 40.2862 9.09625 40.1574 7.97201 39.6743L7.67122 39.5348C6.46402 38.9195 5.45387 37.9834 4.74934 36.8348L4.46648 36.3299C3.66718 34.7613 3.66797 32.7061 3.66797 28.5991V26.4006C3.66797 22.2935 3.66718 20.2384 4.46648 18.6698C5.16951 17.2902 6.29163 16.168 7.67122 15.465C8.84759 14.8656 10.2974 14.7165 12.6807 14.679L15.402 14.6665H28.6006C32.7076 14.6665 34.7628 14.6657 36.3314 15.465C37.711 16.168 38.8331 17.2902 39.5362 18.6698C40.3354 20.2384 40.3346 22.2935 40.3346 26.4006V28.5991C40.3346 32.7061 40.3354 34.7613 39.5362 36.3299L39.2533 36.8348C38.5488 37.9834 37.5386 38.9195 36.3314 39.5348L36.0305 39.6743C34.4973 40.333 32.4511 40.3332 28.6006 40.3332V38.9582C30.6766 38.9582 32.1519 38.9576 33.3056 38.8632C34.4434 38.7703 35.1483 38.5926 35.7066 38.3083C36.8275 37.737 37.7385 36.826 38.3097 35.7051C38.5941 35.1469 38.7717 34.4419 38.8647 33.3042C38.9591 32.1505 38.9596 30.6752 38.9596 28.5991Z" fill="url(#paint3_linear_604_2558)"/>
</g>
<defs>
<filter id="filter0_f_604_2558" x="3.66667" y="-7.33333" width="36.6667" height="38.5" filterUnits="userSpaceOnUse" color-interpolation-filters="sRGB">
<feFlood flood-opacity="0" result="BackgroundImageFix"/>
<feBlend mode="normal" in="SourceGraphic" in2="BackgroundImageFix" result="shape"/>
<feGaussianBlur stdDeviation="3.66667" result="effect1_foregroundBlur_604_2558"/>
</filter>
<linearGradient id="paint0_linear_604_2558" x1="22" y1="-4.76837e-07" x2="22" y2="23.8333" gradientUnits="userSpaceOnUse">
<stop stop-color="#31ECCC"/>
<stop offset="1" stop-color="#31ECCC"/>
</linearGradient>
<linearGradient id="paint1_linear_604_2558" x1="22" y1="0" x2="22" y2="23.8333" gradientUnits="userSpaceOnUse">
<stop stop-color="#31ECCC"/>
<stop offset="1" stop-color="#31ECCC"/>
</linearGradient>
<linearGradient id="paint2_linear_604_2558" x1="22.0013" y1="14.6665" x2="22.0013" y2="40.3332" gradientUnits="userSpaceOnUse">
<stop stop-color="#31ECCC" stop-opacity="0.6"/>
<stop offset="1" stop-color="#31ECCC" stop-opacity="0.6"/>
</linearGradient>
<linearGradient id="paint3_linear_604_2558" x1="22.0013" y1="14.6665" x2="22.0013" y2="29.5312" gradientUnits="userSpaceOnUse">
<stop stop-color="#31ECCC"/>
<stop offset="1" stop-color="#31ECCC"/>
</linearGradient>
</defs>
</svg>
