<svg preserveAspectRatio="none" width="100%" height="100%" overflow="visible" style="display: block;" viewBox="0 0 44 44" fill="none" xmlns="http://www.w3.org/2000/svg">
<g id="Group">
<g id="Mask group">
<mask id="mask0_604_2530" style="mask-type:luminance" maskUnits="userSpaceOnUse" x="0" y="0" width="44" height="44">
<g id="Group_2">
<path id="Vector" d="M44 0H0V44H44V0Z" fill="var(--fill-0, white)"/>
<path id="Vector_2" d="M11.0013 25.6665C13.5679 25.6665 14.8513 25.6667 15.8317 26.1661C16.6941 26.6054 17.3957 27.307 17.8351 28.1694C18.3345 29.1498 18.3346 30.4332 18.3346 32.9998C18.3346 35.5665 18.3345 36.8498 17.8351 37.8303C17.3957 38.6927 16.6941 39.3943 15.8317 39.8336C14.8513 40.333 13.5679 40.3332 11.0013 40.3332C8.43467 40.3332 7.15128 40.333 6.17089 39.8336C5.30849 39.3943 4.60689 38.6927 4.16748 37.8303C3.6681 36.8498 3.66797 35.5665 3.66797 32.9998C3.66797 30.4332 3.6681 29.1498 4.16748 28.1694C4.60689 27.307 5.30849 26.6054 6.17089 26.1661C7.15128 25.6667 8.43467 25.6665 11.0013 25.6665ZM33.0013 25.6665C35.568 25.6665 36.8513 25.6667 37.8318 26.1661C38.6942 26.6054 39.3958 27.307 39.8351 28.1694C40.3345 29.1498 40.3346 30.4332 40.3346 32.9998C40.3346 35.5665 40.3345 36.8498 39.8351 37.8303C39.3958 38.6927 38.6942 39.3943 37.8318 39.8336C36.8513 40.333 35.568 40.3332 33.0013 40.3332C30.4346 40.3332 29.1513 40.333 28.1708 39.8336C27.3084 39.3943 26.6068 38.6927 26.1676 37.8303C25.6682 36.8498 25.668 35.5665 25.668 32.9998C25.668 30.4332 25.6682 29.1498 26.1676 28.1694C26.6068 27.307 27.3084 26.6054 28.1708 26.1661C29.1513 25.6667 30.4346 25.6665 33.0013 25.6665ZM11.0013 3.6665C13.5679 3.6665 14.8513 3.66663 15.8317 4.16601C16.6941 4.60543 17.3957 5.30703 17.8351 6.16943C18.3345 7.14982 18.3346 8.43321 18.3346 10.9998C18.3346 13.5665 18.3345 14.8499 17.8351 15.8302C17.3957 16.6926 16.6941 17.3942 15.8317 17.8337C14.8513 18.333 13.5679 18.3332 11.0013 18.3332C8.43467 18.3332 7.15128 18.333 6.17089 17.8337C5.30849 17.3942 4.60689 16.6926 4.16748 15.8302C3.6681 14.8499 3.66797 13.5665 3.66797 10.9998C3.66797 8.43321 3.6681 7.14982 4.16748 6.16943C4.60689 5.30703 5.30849 4.60543 6.17089 4.16601C7.15128 3.66663 8.43467 3.6665 11.0013 3.6665ZM33.0013 3.6665C35.568 3.6665 36.8513 3.66663 37.8318 4.16601C38.6942 4.60543 39.3958 5.30703 39.8351 6.16943C40.3345 7.14982 40.3346 8.43321 40.3346 10.9998C40.3346 13.5665 40.3345 14.8499 39.8351 15.8302C39.3958 16.6926 38.6942 17.3942 37.8318 17.8337C36.8513 18.333 35.568 18.3332 33.0013 18.3332C30.4346 18.3332 29.1513 18.333 28.1708 17.8337C27.3084 17.3942 26.6068 16.6926 26.1676 15.8302C25.6682 14.8499 25.668 13.5665 25.668 10.9998C25.668 8.43321 25.6682 7.14982 26.1676 6.16943C26.6068 5.30703 27.3084 4.60543 28.1708 4.16601C29.1513 3.66663 30.4346 3.6665 33.0013 3.6665Z" fill="var(--fill-0, black)"/>
</g>
</mask>
<g mask="url(#mask0_604_2530)">
<path id="Vector_3" d="M27.5 11H16.5C13.4624 11 11 13.4624 11 16.5V27.5C11 30.5376 13.4624 33 16.5 33H27.5C30.5376 33 33 30.5376 33 27.5V16.5C33 13.4624 30.5376 11 27.5 11Z" fill="url(#paint0_linear_604_2530)"/>
</g>
</g>
<g id="Clip path group">
<mask id="mask1_604_2530" style="mask-type:luminance" maskUnits="userSpaceOnUse" x="3" y="3" width="38" height="38">
<g id="r6onwuho4v9-1752500502789-4459479_grid_clipPath_vk6jtz7ds">
<path id="Vector_4" d="M11.0013 25.6665C13.5679 25.6665 14.8513 25.6667 15.8317 26.1661C16.6941 26.6054 17.3957 27.307 17.8351 28.1694C18.3345 29.1498 18.3346 30.4332 18.3346 32.9998C18.3346 35.5665 18.3345 36.8498 17.8351 37.8303C17.3957 38.6927 16.6941 39.3943 15.8317 39.8336C14.8513 40.333 13.5679 40.3332 11.0013 40.3332C8.43467 40.3332 7.15128 40.333 6.17089 39.8336C5.30849 39.3943 4.60689 38.6927 4.16748 37.8303C3.6681 36.8498 3.66797 35.5665 3.66797 32.9998C3.66797 30.4332 3.6681 29.1498 4.16748 28.1694C4.60689 27.307 5.30849 26.6054 6.17089 26.1661C7.15128 25.6667 8.43467 25.6665 11.0013 25.6665ZM33.0013 25.6665C35.568 25.6665 36.8513 25.6667 37.8318 26.1661C38.6942 26.6054 39.3958 27.307 39.8351 28.1694C40.3345 29.1498 40.3346 30.4332 40.3346 32.9998C40.3346 35.5665 40.3345 36.8498 39.8351 37.8303C39.3958 38.6927 38.6942 39.3943 37.8318 39.8336C36.8513 40.333 35.568 40.3332 33.0013 40.3332C30.4346 40.3332 29.1513 40.333 28.1708 39.8336C27.3084 39.3943 26.6068 38.6927 26.1676 37.8303C25.6682 36.8498 25.668 35.5665 25.668 32.9998C25.668 30.4332 25.6682 29.1498 26.1676 28.1694C26.6068 27.307 27.3084 26.6054 28.1708 26.1661C29.1513 25.6667 30.4346 25.6665 33.0013 25.6665ZM11.0013 3.6665C13.5679 3.6665 14.8513 3.66663 15.8317 4.16601C16.6941 4.60543 17.3957 5.30703 17.8351 6.16943C18.3345 7.14982 18.3346 8.43321 18.3346 10.9998C18.3346 13.5665 18.3345 14.8499 17.8351 15.8302C17.3957 16.6926 16.6941 17.3942 15.8317 17.8337C14.8513 18.333 13.5679 18.3332 11.0013 18.3332C8.43467 18.3332 7.15128 18.333 6.17089 17.8337C5.30849 17.3942 4.60689 16.6926 4.16748 15.8302C3.6681 14.8499 3.66797 13.5665 3.66797 10.9998C3.66797 8.43321 3.6681 7.14982 4.16748 6.16943C4.60689 5.30703 5.30849 4.60543 6.17089 4.16601C7.15128 3.66663 8.43467 3.6665 11.0013 3.6665ZM33.0013 3.6665C35.568 3.6665 36.8513 3.66663 37.8318 4.16601C38.6942 4.60543 39.3958 5.30703 39.8351 6.16943C40.3345 7.14982 40.3346 8.43321 40.3346 10.9998C40.3346 13.5665 40.3345 14.8499 39.8351 15.8302C39.3958 16.6926 38.6942 17.3942 37.8318 17.8337C36.8513 18.333 35.568 18.3332 33.0013 18.3332C30.4346 18.3332 29.1513 18.333 28.1708 17.8337C27.3084 17.3942 26.6068 16.6926 26.1676 15.8302C25.6682 14.8499 25.668 13.5665 25.668 10.9998C25.668 8.43321 25.6682 7.14982 26.1676 6.16943C26.6068 5.30703 27.3084 4.60543 28.1708 4.16601C29.1513 3.66663 30.4346 3.6665 33.0013 3.6665Z" fill="var(--fill-0, white)"/>
</g>
</mask>
<g mask="url(#mask1_604_2530)">
<g id="Vector_5" filter="url(#filter0_f_604_2530)">
<path d="M27.5 11H16.5C13.4624 11 11 13.4624 11 16.5V27.5C11 30.5376 13.4624 33 16.5 33H27.5C30.5376 33 33 30.5376 33 27.5V16.5C33 13.4624 30.5376 11 27.5 11Z" fill="url(#paint1_linear_604_2530)"/>
</g>
</g>
</g>
<path id="Vector_6" d="M11.0013 25.6665C13.5679 25.6665 14.8513 25.6667 15.8317 26.1661C16.6941 26.6054 17.3957 27.307 17.8351 28.1694C18.3345 29.1498 18.3346 30.4332 18.3346 32.9998C18.3346 35.5665 18.3345 36.8498 17.8351 37.8303C17.3957 38.6927 16.6941 39.3943 15.8317 39.8336C14.8513 40.333 13.5679 40.3332 11.0013 40.3332C8.43467 40.3332 7.15128 40.333 6.17089 39.8336C5.30849 39.3943 4.60689 38.6927 4.16748 37.8303C3.6681 36.8498 3.66797 35.5665 3.66797 32.9998C3.66797 30.4332 3.6681 29.1498 4.16748 28.1694C4.60689 27.307 5.30849 26.6054 6.17089 26.1661C7.15128 25.6667 8.43467 25.6665 11.0013 25.6665ZM33.0013 25.6665C35.568 25.6665 36.8513 25.6667 37.8318 26.1661C38.6942 26.6054 39.3958 27.307 39.8351 28.1694C40.3345 29.1498 40.3346 30.4332 40.3346 32.9998C40.3346 35.5665 40.3345 36.8498 39.8351 37.8303C39.3958 38.6927 38.6942 39.3943 37.8318 39.8336C36.8513 40.333 35.568 40.3332 33.0013 40.3332C30.4346 40.3332 29.1513 40.333 28.1708 39.8336C27.3084 39.3943 26.6068 38.6927 26.1676 37.8303C25.6682 36.8498 25.668 35.5665 25.668 32.9998C25.668 30.4332 25.6682 29.1498 26.1676 28.1694C26.6068 27.307 27.3084 26.6054 28.1708 26.1661C29.1513 25.6667 30.4346 25.6665 33.0013 25.6665ZM11.0013 3.6665C13.5679 3.6665 14.8513 3.66663 15.8317 4.16601C16.6941 4.60543 17.3957 5.30703 17.8351 6.16943C18.3345 7.14982 18.3346 8.43321 18.3346 10.9998C18.3346 13.5665 18.3345 14.8499 17.8351 15.8302C17.3957 16.6926 16.6941 17.3942 15.8317 17.8337C14.8513 18.333 13.5679 18.3332 11.0013 18.3332C8.43467 18.3332 7.15128 18.333 6.17089 17.8337C5.30849 17.3942 4.60689 16.6926 4.16748 15.8302C3.6681 14.8499 3.66797 13.5665 3.66797 10.9998C3.66797 8.43321 3.6681 7.14982 4.16748 6.16943C4.60689 5.30703 5.30849 4.60543 6.17089 4.16601C7.15128 3.66663 8.43467 3.6665 11.0013 3.6665ZM33.0013 3.6665C35.568 3.6665 36.8513 3.66663 37.8318 4.16601C38.6942 4.60543 39.3958 5.30703 39.8351 6.16943C40.3345 7.14982 40.3346 8.43321 40.3346 10.9998C40.3346 13.5665 40.3345 14.8499 39.8351 15.8302C39.3958 16.6926 38.6942 17.3942 37.8318 17.8337C36.8513 18.333 35.568 18.3332 33.0013 18.3332C30.4346 18.3332 29.1513 18.333 28.1708 17.8337C27.3084 17.3942 26.6068 16.6926 26.1676 15.8302C25.6682 14.8499 25.668 13.5665 25.668 10.9998C25.668 8.43321 25.6682 7.14982 26.1676 6.16943C26.6068 5.30703 27.3084 4.60543 28.1708 4.16601C29.1513 3.66663 30.4346 3.6665 33.0013 3.6665Z" fill="url(#paint2_linear_604_2530)"/>
<path id="Vector_7" d="M16.9596 32.9998C16.9596 31.6938 16.9592 30.7965 16.9023 30.1012C16.8468 29.4221 16.745 29.0565 16.6105 28.7925C16.303 28.1892 15.812 27.6982 15.2087 27.3906C14.9446 27.256 14.579 27.1543 13.8999 27.0987C13.2046 27.0421 12.3074 27.0415 11.0013 27.0415C9.69516 27.0415 8.798 27.0421 8.10271 27.0987C7.42357 27.1543 7.05799 27.256 6.79395 27.3906C6.19058 27.6982 5.69963 28.1892 5.39209 28.7925C5.25756 29.0565 5.15576 29.4221 5.10026 30.1012C5.04345 30.7965 5.04297 31.6938 5.04297 32.9998C5.04297 34.3059 5.04345 35.2031 5.10026 35.8985C5.15576 36.5776 5.25756 36.9432 5.39209 37.2072C5.69963 37.8105 6.19058 38.3015 6.79395 38.6091C7.05799 38.7437 7.42357 38.8454 8.10271 38.901C8.798 38.9576 9.69516 38.9582 11.0013 38.9582V40.3332C8.75505 40.3332 7.49162 40.3332 6.55404 39.9984L6.17089 39.8336C5.30849 39.3943 4.60689 38.6927 4.16748 37.8303C3.6681 36.8498 3.66797 35.5665 3.66797 32.9998C3.66797 30.7536 3.66801 29.4901 4.00277 28.5525L4.16748 28.1694C4.55184 27.4151 5.1364 26.7836 5.854 26.3432L6.17089 26.1661C7.15128 25.6667 8.43467 25.6665 11.0013 25.6665C13.5679 25.6665 14.8513 25.6667 15.8317 26.1661C16.6941 26.6054 17.3957 27.307 17.8351 28.1694C18.3345 29.1498 18.3346 30.4332 18.3346 32.9998C18.3346 35.5665 18.3345 36.8498 17.8351 37.8303L17.6579 38.1471C17.2175 38.8647 16.586 39.4493 15.8317 39.8336L15.4486 39.9984C14.511 40.3332 13.2476 40.3332 11.0013 40.3332V38.9582C12.3074 38.9582 13.2046 38.9576 13.8999 38.901C14.579 38.8454 14.9446 38.7437 15.2087 38.6091C15.812 38.3015 16.303 37.8105 16.6105 37.2072C16.745 36.9432 16.8468 36.5776 16.9023 35.8985C16.9592 35.2031 16.9596 34.3059 16.9596 32.9998Z" fill="url(#paint3_linear_604_2530)"/>
<path id="Vector_8" d="M16.9596 10.9998C16.9596 9.6937 16.9592 8.79654 16.9023 8.10125C16.8468 7.42211 16.745 7.05652 16.6105 6.79248C16.303 6.18912 15.812 5.69817 15.2087 5.39063C14.9446 5.2561 14.579 5.15429 13.8999 5.0988C13.2046 5.04198 12.3074 5.0415 11.0013 5.0415C9.69516 5.0415 8.798 5.04198 8.10271 5.0988C7.42357 5.15429 7.05799 5.2561 6.79395 5.39063C6.19058 5.69817 5.69963 6.18912 5.39209 6.79248C5.25756 7.05652 5.15576 7.42211 5.10026 8.10125C5.04345 8.79654 5.04297 9.6937 5.04297 10.9998C5.04297 12.306 5.04345 13.2031 5.10026 13.8984C5.15576 14.5776 5.25756 14.9432 5.39209 15.2072C5.69963 15.8106 6.19058 16.3015 6.79395 16.609C7.05799 16.7436 7.42357 16.8454 8.10271 16.9009C8.798 16.9577 9.69516 16.9582 11.0013 16.9582V18.3332C8.75505 18.3332 7.49162 18.3331 6.55404 17.9984L6.17089 17.8337C5.30849 17.3942 4.60689 16.6926 4.16748 15.8302C3.6681 14.8499 3.66797 13.5665 3.66797 10.9998C3.66797 8.75358 3.66801 7.49016 4.00277 6.55257L4.16748 6.16943C4.55184 5.4151 5.1364 4.78361 5.854 4.34326L6.17089 4.16601C7.15128 3.66663 8.43467 3.6665 11.0013 3.6665C13.5679 3.6665 14.8513 3.66663 15.8317 4.16601C16.6941 4.60543 17.3957 5.30703 17.8351 6.16943C18.3345 7.14982 18.3346 8.43321 18.3346 10.9998C18.3346 13.5665 18.3345 14.8499 17.8351 15.8302L17.6579 16.1471C17.2175 16.8647 16.586 17.4493 15.8317 17.8337L15.4486 17.9984C14.511 18.3331 13.2476 18.3332 11.0013 18.3332V16.9582C12.3074 16.9582 13.2046 16.9577 13.8999 16.9009C14.579 16.8454 14.9446 16.7436 15.2087 16.609C15.812 16.3015 16.303 15.8106 16.6105 15.2072C16.745 14.9432 16.8468 14.5776 16.9023 13.8984C16.9592 13.2031 16.9596 12.306 16.9596 10.9998Z" fill="url(#paint4_linear_604_2530)"/>
<path id="Vector_9" d="M38.9596 32.9998C38.9596 31.6938 38.9591 30.7965 38.9024 30.1012C38.8469 29.4221 38.7451 29.0565 38.6106 28.7925C38.3029 28.1892 37.812 27.6982 37.2086 27.3906C36.9446 27.256 36.5791 27.1543 35.9 27.0987C35.2046 27.0421 34.3074 27.0415 33.0013 27.0415C31.6952 27.0415 30.798 27.0421 30.1026 27.0987C29.4236 27.1543 29.058 27.256 28.794 27.3906C28.1906 27.6982 27.6997 28.1892 27.392 28.7925C27.2575 29.0565 27.1557 29.4221 27.1002 30.1012C27.0435 30.7965 27.043 31.6938 27.043 32.9998C27.043 34.3059 27.0435 35.2031 27.1002 35.8985C27.1557 36.5776 27.2575 36.9432 27.392 37.2072C27.6997 37.8105 28.1906 38.3015 28.794 38.6091C29.058 38.7437 29.4236 38.8454 30.1026 38.901C30.798 38.9576 31.6952 38.9582 33.0013 38.9582V40.3332C30.7551 40.3332 29.4916 40.3332 28.554 39.9984L28.1708 39.8336C27.3084 39.3943 26.6068 38.6927 26.1676 37.8303C25.6682 36.8498 25.668 35.5665 25.668 32.9998C25.668 30.7536 25.668 29.4901 26.0027 28.5525L26.1676 28.1694C26.5518 27.4151 27.1365 26.7836 27.854 26.3432L28.1708 26.1661C29.1513 25.6667 30.4346 25.6665 33.0013 25.6665C35.568 25.6665 36.8513 25.6667 37.8318 26.1661C38.6942 26.6054 39.3958 27.307 39.8351 28.1694C40.3345 29.1498 40.3346 30.4332 40.3346 32.9998C40.3346 35.5665 40.3345 36.8498 39.8351 37.8303L39.658 38.1471C39.2176 38.8647 38.586 39.4493 37.8318 39.8336L37.4486 39.9984C36.511 40.3332 35.2475 40.3332 33.0013 40.3332V38.9582C34.3074 38.9582 35.2046 38.9576 35.9 38.901C36.5791 38.8454 36.9446 38.7437 37.2086 38.6091C37.812 38.3015 38.3029 37.8105 38.6106 37.2072C38.7451 36.9432 38.8469 36.5776 38.9024 35.8985C38.9591 35.2031 38.9596 34.3059 38.9596 32.9998Z" fill="url(#paint5_linear_604_2530)"/>
<path id="Vector_10" d="M38.9596 10.9998C38.9596 9.6937 38.9591 8.79654 38.9024 8.10125C38.8469 7.42211 38.7451 7.05652 38.6106 6.79248C38.3029 6.18912 37.812 5.69817 37.2086 5.39063C36.9446 5.2561 36.5791 5.15429 35.9 5.0988C35.2046 5.04198 34.3074 5.0415 33.0013 5.0415C31.6952 5.0415 30.798 5.04198 30.1026 5.0988C29.4236 5.15429 29.058 5.2561 28.794 5.39063C28.1906 5.69817 27.6997 6.18912 27.392 6.79248C27.2575 7.05652 27.1557 7.42211 27.1002 8.10125C27.0435 8.79654 27.043 9.6937 27.043 10.9998C27.043 12.306 27.0435 13.2031 27.1002 13.8984C27.1557 14.5776 27.2575 14.9432 27.392 15.2072C27.6997 15.8106 28.1906 16.3015 28.794 16.609C29.058 16.7436 29.4236 16.8454 30.1026 16.9009C30.798 16.9577 31.6952 16.9582 33.0013 16.9582V18.3332C30.7551 18.3332 29.4916 18.3331 28.554 17.9984L28.1708 17.8337C27.3084 17.3942 26.6068 16.6926 26.1676 15.8302C25.6682 14.8499 25.668 13.5665 25.668 10.9998C25.668 8.75358 25.668 7.49016 26.0027 6.55257L26.1676 6.16943C26.5518 5.4151 27.1365 4.78361 27.854 4.34326L28.1708 4.16601C29.1513 3.66663 30.4346 3.6665 33.0013 3.6665C35.568 3.6665 36.8513 3.66663 37.8318 4.16601C38.6942 4.60543 39.3958 5.30703 39.8351 6.16943C40.3345 7.14982 40.3346 8.43321 40.3346 10.9998C40.3346 13.5665 40.3345 14.8499 39.8351 15.8302L39.658 16.1471C39.2176 16.8647 38.586 17.4493 37.8318 17.8337L37.4486 17.9984C36.511 18.3331 35.2475 18.3332 33.0013 18.3332V16.9582C34.3074 16.9582 35.2046 16.9577 35.9 16.9009C36.5791 16.8454 36.9446 16.7436 37.2086 16.609C37.812 16.3015 38.3029 15.8106 38.6106 15.2072C38.7451 14.9432 38.8469 14.5776 38.9024 13.8984C38.9591 13.2031 38.9596 12.306 38.9596 10.9998Z" fill="url(#paint6_linear_604_2530)"/>
</g>
<defs>
<filter id="filter0_f_604_2530" x="3.66667" y="3.66667" width="36.6667" height="36.6667" filterUnits="userSpaceOnUse" color-interpolation-filters="sRGB">
<feFlood flood-opacity="0" result="BackgroundImageFix"/>
<feBlend mode="normal" in="SourceGraphic" in2="BackgroundImageFix" result="shape"/>
<feGaussianBlur stdDeviation="3.66667" result="effect1_foregroundBlur_604_2530"/>
</filter>
<linearGradient id="paint0_linear_604_2530" x1="22" y1="11" x2="22" y2="33" gradientUnits="userSpaceOnUse">
<stop stop-color="#31D6BD"/>
<stop offset="1" stop-color="#379989"/>
</linearGradient>
<linearGradient id="paint1_linear_604_2530" x1="22" y1="11" x2="22" y2="33" gradientUnits="userSpaceOnUse">
<stop stop-color="#31D6BD"/>
<stop offset="1" stop-color="#379989"/>
</linearGradient>
<linearGradient id="paint2_linear_604_2530" x1="22.0013" y1="3.6665" x2="22.0013" y2="40.3332" gradientUnits="userSpaceOnUse">
<stop stop-color="#31ECCC" stop-opacity="0.9"/>
<stop offset="1" stop-color="#31ECCC" stop-opacity="0.6"/>
</linearGradient>
<linearGradient id="paint3_linear_604_2530" x1="11.0013" y1="25.6665" x2="11.0013" y2="34.1603" gradientUnits="userSpaceOnUse">
<stop stop-color="#31ECCC"/>
<stop offset="1" stop-color="#31ECCC" stop-opacity="0"/>
</linearGradient>
<linearGradient id="paint4_linear_604_2530" x1="11.0013" y1="3.6665" x2="11.0013" y2="12.1603" gradientUnits="userSpaceOnUse">
<stop stop-color="#31ECCC"/>
<stop offset="1" stop-color="#31ECCC" stop-opacity="0"/>
</linearGradient>
<linearGradient id="paint5_linear_604_2530" x1="33.0013" y1="25.6665" x2="33.0013" y2="34.1603" gradientUnits="userSpaceOnUse">
<stop stop-color="#31ECCC"/>
<stop offset="1" stop-color="#31ECCC" stop-opacity="0"/>
</linearGradient>
<linearGradient id="paint6_linear_604_2530" x1="33.0013" y1="3.6665" x2="33.0013" y2="12.1603" gradientUnits="userSpaceOnUse">
<stop stop-color="#31ECCC"/>
<stop offset="1" stop-color="#31ECCC" stop-opacity="0"/>
</linearGradient>
</defs>
</svg>
