<svg preserveAspectRatio="none" width="100%" height="100%" overflow="visible" style="display: block;" viewBox="0 0 128 128" fill="none" xmlns="http://www.w3.org/2000/svg">
<g id="Group">
<g id="Mask group">
<mask id="mask0_2001_1230" style="mask-type:luminance" maskUnits="userSpaceOnUse" x="0" y="0" width="128" height="128">
<g id="Group_2">
<path id="Vector" d="M128 0H0V128H128V0Z" fill="var(--fill-0, white)"/>
<path id="Vector_2" d="M88.8319 49.1321L76.7663 18.7305C74.0948 11.9993 64.5679 11.9985 61.8953 18.7292L49.8225 49.1321C49.6966 49.4482 49.447 49.6978 49.1309 49.8237L18.7233 61.8982C11.9933 64.5707 11.9933 74.096 18.7233 76.7686L49.1309 88.8432C49.447 88.9691 49.6966 89.2187 49.8225 89.5344L61.8948 119.938C64.5679 126.668 74.0943 126.667 76.7663 119.936L88.8319 89.5344C88.9583 89.2176 89.2111 88.9686 89.5284 88.8432L119.939 76.7686C126.669 74.0966 126.669 64.5702 119.939 61.8982L89.5284 49.8237C89.2111 49.6982 88.9583 49.4493 88.8319 49.1321Z" fill="var(--fill-0, black)"/>
</g>
</mask>
<g mask="url(#mask0_2001_1230)">
<path id="Vector_3" d="M69.3325 48.0285C72.2776 48.0285 74.6653 50.4166 74.6658 53.3618V64.0285H85.3325C88.2776 64.0285 90.6653 66.4168 90.6658 69.3618C90.6648 72.3064 88.277 74.6952 85.3325 74.6952H74.6658V85.3618C74.6648 88.3064 72.277 90.6952 69.3325 90.6952C66.388 90.6952 64.0002 88.3064 63.9992 85.3618V74.6952H53.3325C50.388 74.6952 48.0005 72.3064 47.9992 69.3618C47.9995 66.4168 50.3874 64.029 53.3325 64.0285H63.9992V53.3618C63.9997 50.4168 66.3874 48.0288 69.3325 48.0285ZM32.3741 7.15356C34.156 2.66642 40.5098 2.66611 42.2908 7.15356L49.3325 24.9035C49.41 25.0973 49.5657 25.248 49.7596 25.3254L67.5149 32.3775C72.0018 34.159 72.0018 40.5074 67.5149 42.289L49.7596 49.341C49.5658 49.4184 49.41 49.5692 49.3325 49.7629L42.2908 67.5128C40.5098 72.0002 34.156 72.0002 32.3741 67.5128L25.3273 49.7629C25.2496 49.5692 25.0941 49.4183 24.9002 49.341L7.1502 42.289C2.66348 40.5074 2.66348 34.1591 7.1502 32.3775L24.9002 25.3254C25.0943 25.2482 25.2497 25.0974 25.3273 24.9035L32.3741 7.15356Z" fill="url(#paint0_linear_2001_1230)"/>
</g>
</g>
<g id="Clip path group">
<mask id="mask1_2001_1230" style="mask-type:luminance" maskUnits="userSpaceOnUse" x="13" y="13" width="112" height="112">
<g id="f946orudpkd-1752500502803-7613136_sparkle_clipPath_92n6igug9">
<path id="Vector_4" d="M88.8319 49.1321L76.7663 18.7305C74.0948 11.9993 64.5679 11.9985 61.8953 18.7292L49.8225 49.1321C49.6966 49.4482 49.447 49.6978 49.1309 49.8237L18.7233 61.8982C11.9933 64.5707 11.9933 74.096 18.7233 76.7686L49.1309 88.8432C49.447 88.9691 49.6966 89.2187 49.8225 89.5344L61.8948 119.938C64.5679 126.668 74.0943 126.667 76.7663 119.936L88.8319 89.5344C88.9583 89.2176 89.2111 88.9686 89.5284 88.8432L119.939 76.7686C126.669 74.0966 126.669 64.5702 119.939 61.8982L89.5284 49.8237C89.2111 49.6982 88.9583 49.4493 88.8319 49.1321Z" fill="var(--fill-0, white)"/>
</g>
</mask>
<g mask="url(#mask1_2001_1230)">
<g id="Vector_5" filter="url(#filter0_f_2001_1230)">
<path d="M69.3325 48.0285C72.2776 48.0285 74.6653 50.4166 74.6658 53.3618V64.0285H85.3325C88.2776 64.0285 90.6653 66.4168 90.6658 69.3618C90.6648 72.3064 88.277 74.6952 85.3325 74.6952H74.6658V85.3618C74.6648 88.3064 72.277 90.6952 69.3325 90.6952C66.388 90.6952 64.0002 88.3064 63.9992 85.3618V74.6952H53.3325C50.388 74.6952 48.0005 72.3064 47.9992 69.3618C47.9995 66.4168 50.3874 64.029 53.3325 64.0285H63.9992V53.3618C63.9997 50.4168 66.3874 48.0288 69.3325 48.0285ZM32.3741 7.15356C34.156 2.66642 40.5098 2.66611 42.2908 7.15356L49.3325 24.9035C49.41 25.0973 49.5657 25.248 49.7596 25.3254L67.5149 32.3775C72.0018 34.159 72.0018 40.5074 67.5149 42.289L49.7596 49.341C49.5658 49.4184 49.41 49.5692 49.3325 49.7629L42.2908 67.5128C40.5098 72.0002 34.156 72.0002 32.3741 67.5128L25.3273 49.7629C25.2496 49.5692 25.0941 49.4183 24.9002 49.341L7.1502 42.289C2.66348 40.5074 2.66348 34.1591 7.1502 32.3775L24.9002 25.3254C25.0943 25.2482 25.2497 25.0974 25.3273 24.9035L32.3741 7.15356Z" fill="url(#paint1_linear_2001_1230)"/>
</g>
</g>
</g>
<path id="Vector_6" d="M88.8319 49.1321L76.7663 18.7305C74.0948 11.9993 64.5679 11.9985 61.8953 18.7292L49.8225 49.1321C49.6966 49.4482 49.447 49.6978 49.1309 49.8237L18.7233 61.8982C11.9933 64.5707 11.9933 74.096 18.7233 76.7686L49.1309 88.8432C49.447 88.9691 49.6966 89.2187 49.8225 89.5344L61.8948 119.938C64.5679 126.668 74.0943 126.667 76.7663 119.936L88.8319 89.5344C88.9583 89.2176 89.2111 88.9686 89.5284 88.8432L119.939 76.7686C126.669 74.0966 126.669 64.5702 119.939 61.8982L89.5284 49.8237C89.2111 49.6982 88.9583 49.4493 88.8319 49.1321Z" fill="url(#paint2_linear_2001_1230)"/>
<path id="Vector_7" d="M61.8955 18.7293C64.5675 11.9992 74.0928 11.9998 76.7648 18.7293L88.8325 49.1303C88.9589 49.4475 89.2133 49.6975 89.5307 49.823L119.937 61.896C126.667 64.568 126.667 74.0987 119.937 76.7712L89.5307 88.8437L89.3067 88.9584C89.0944 89.0965 88.9275 89.2976 88.8325 89.5365L76.7648 119.938L76.4944 120.547C73.6 126.463 65.0597 126.464 62.1659 120.547L61.8955 119.938L49.8223 89.5365C49.6965 89.2203 49.4457 88.9696 49.1296 88.8437L18.7234 76.7712C11.9933 74.0987 11.9933 64.5685 18.7234 61.896L49.1296 49.823C49.4457 49.6972 49.6965 49.4464 49.8223 49.1303L61.8955 18.7293ZM73.0517 20.2085C71.7163 16.8436 66.9515 16.8401 65.6139 20.2033L53.5408 50.6095C53.075 51.78 52.2046 52.7403 51.0983 53.3178L50.6087 53.5419L20.2025 65.6149C16.8374 66.9509 16.8375 71.7157 20.2025 73.0523L50.6087 85.1253C51.7793 85.5909 52.7396 86.4613 53.3171 87.568L53.5408 88.0576L65.6139 118.463C66.9515 121.827 71.7109 121.823 73.0464 118.459L85.1141 88.0576L85.3429 87.5627C85.9291 86.4443 86.896 85.584 88.0517 85.1253L118.463 73.0523C121.828 71.7163 121.828 66.9509 118.463 65.6149L88.0517 53.5419C86.8965 53.083 85.9285 52.2222 85.3429 51.1043L85.1141 50.6095L73.0517 20.2085Z" fill="url(#paint3_linear_2001_1230)"/>
</g>
<defs>
<filter id="filter0_f_2001_1230" x="-17.5482" y="-17.5452" width="129.547" height="129.574" filterUnits="userSpaceOnUse" color-interpolation-filters="sRGB">
<feFlood flood-opacity="0" result="BackgroundImageFix"/>
<feBlend mode="normal" in="SourceGraphic" in2="BackgroundImageFix" result="shape"/>
<feGaussianBlur stdDeviation="10.6667" result="effect1_foregroundBlur_2001_1230"/>
</filter>
<linearGradient id="paint0_linear_2001_1230" x1="47.2258" y1="3.78689" x2="47.2258" y2="72.0002" gradientUnits="userSpaceOnUse">
<stop stop-color="#575757"/>
<stop offset="1" stop-color="#151515"/>
</linearGradient>
<linearGradient id="paint1_linear_2001_1230" x1="47.2258" y1="3.78689" x2="47.2258" y2="72.0002" gradientUnits="userSpaceOnUse">
<stop stop-color="#575757"/>
<stop offset="1" stop-color="#151515"/>
</linearGradient>
<linearGradient id="paint2_linear_2001_1230" x1="69.3321" y1="2.60816e-05" x2="69.3321" y2="138.667" gradientUnits="userSpaceOnUse">
<stop stop-color="#E3E3E5" stop-opacity="0.6"/>
<stop offset="1" stop-color="#BBBBC0" stop-opacity="0.6"/>
</linearGradient>
<linearGradient id="paint3_linear_2001_1230" x1="69.328" y1="13.68" x2="69.328" y2="72" gradientUnits="userSpaceOnUse">
<stop stop-color="white"/>
<stop offset="1" stop-color="white" stop-opacity="0"/>
</linearGradient>
</defs>
</svg>
