<svg preserveAspectRatio="none" width="100%" height="100%" overflow="visible" style="display: block;" viewBox="0 0 128 128" fill="none" xmlns="http://www.w3.org/2000/svg">
<g id="Group">
<g id="Mask group">
<mask id="mask0_2001_1312" style="mask-type:luminance" maskUnits="userSpaceOnUse" x="0" y="0" width="128" height="128">
<g id="Group_2">
<path id="Vector" d="M128 0H0V128H128V0Z" fill="var(--fill-0, white)"/>
<path id="Vector_2" d="M122.665 63.9948C122.665 72.0482 118.482 79.5031 111.874 83.8231C113.495 91.5511 111.19 99.7938 105.494 105.484C99.803 111.18 91.5544 113.475 83.8323 111.865C79.5118 118.478 72.0574 122.667 64.004 122.667C55.9507 122.667 48.4958 118.478 44.1758 111.87C36.4478 113.502 28.205 111.186 22.5143 105.49C16.8237 99.7991 14.5128 91.5618 16.1341 83.8284C9.52078 79.5084 5.33203 72.0535 5.33203 64.0002C5.33203 55.9468 9.52078 48.4921 16.1341 44.1721C14.5181 36.4387 16.8237 28.2012 22.5143 22.5106C28.205 16.8146 36.4371 14.4983 44.1758 16.1303C48.4958 9.52235 55.9454 5.3335 63.9987 5.3335C72.052 5.3335 79.507 9.52235 83.827 16.1303C91.5443 14.4983 99.7923 16.8146 105.488 22.5106C111.179 28.2012 113.49 36.4387 111.869 44.1721C118.48 48.4911 122.664 55.949 122.665 63.9948ZM69.5144 30.4116C67.532 25.4188 60.4659 25.4187 58.483 30.4116L50.6393 50.1668C50.5529 50.3826 50.3813 50.5548 50.1654 50.6408L30.4102 58.4844C25.4175 60.4674 25.4175 67.533 30.4102 69.5159L50.1654 77.3596C50.3813 77.4455 50.5529 77.6178 50.6393 77.8338L58.483 97.589C60.4659 102.581 67.532 102.581 69.5144 97.589L77.3528 77.8338C77.4392 77.6172 77.6152 77.4455 77.8323 77.3596L97.5875 69.5159C102.58 67.533 102.58 60.4674 97.5875 58.4844L77.8323 50.6408C77.6152 50.555 77.4392 50.3834 77.3528 50.1668L69.5144 30.4116Z" fill="var(--fill-0, black)"/>
</g>
</mask>
<g mask="url(#mask0_2001_1312)">
<path id="Vector_3" d="M53.5249 28.4427C57.2897 18.9621 70.71 18.9663 74.4732 28.4479L81.5926 46.3906L99.5564 53.5262C109.036 57.2905 109.036 70.7097 99.5564 74.474L81.5926 81.6041L74.4732 99.5572C70.7089 109.037 57.2897 109.037 53.5249 99.5572L46.3948 81.5988L28.4416 74.474C18.9622 70.7092 18.9622 57.2905 28.4416 53.5262L46.3948 46.3958L53.5249 28.4427Z" fill="url(#paint0_linear_2001_1312)"/>
</g>
</g>
<g id="Clip path group">
<mask id="mask1_2001_1312" style="mask-type:luminance" maskUnits="userSpaceOnUse" x="5" y="5" width="118" height="118">
<g id="1s3nrxaqr9j-1760519092838-4050138_badge-sparkle_clipPath_xfceo19om">
<path id="Vector_4" d="M122.665 63.9948C122.665 72.0482 118.482 79.5031 111.874 83.8231C113.495 91.5511 111.19 99.7938 105.494 105.484C99.803 111.18 91.5544 113.475 83.8323 111.865C79.5118 118.478 72.0574 122.667 64.004 122.667C55.9507 122.667 48.4958 118.478 44.1758 111.87C36.4478 113.502 28.205 111.186 22.5143 105.49C16.8237 99.7991 14.5128 91.5618 16.1341 83.8284C9.52078 79.5084 5.33203 72.0535 5.33203 64.0002C5.33203 55.9468 9.52078 48.4921 16.1341 44.1721C14.5181 36.4387 16.8237 28.2012 22.5143 22.5106C28.205 16.8146 36.4371 14.4983 44.1758 16.1303C48.4958 9.52235 55.9454 5.3335 63.9987 5.3335C72.052 5.3335 79.507 9.52235 83.827 16.1303C91.5443 14.4983 99.7923 16.8146 105.488 22.5106C111.179 28.2012 113.49 36.4387 111.869 44.1721C118.48 48.4911 122.664 55.949 122.665 63.9948ZM69.5144 30.4116C67.532 25.4188 60.4659 25.4187 58.483 30.4116L50.6393 50.1668C50.5529 50.3826 50.3813 50.5548 50.1654 50.6408L30.4102 58.4844C25.4175 60.4674 25.4175 67.533 30.4102 69.5159L50.1654 77.3596C50.3813 77.4455 50.5529 77.6178 50.6393 77.8338L58.483 97.589C60.4659 102.581 67.532 102.581 69.5144 97.589L77.3528 77.8338C77.4392 77.6172 77.6152 77.4455 77.8323 77.3596L97.5875 69.5159C102.58 67.533 102.58 60.4674 97.5875 58.4844L77.8323 50.6408C77.6152 50.555 77.4392 50.3834 77.3528 50.1668L69.5144 30.4116Z" fill="var(--fill-0, white)"/>
</g>
</mask>
<g mask="url(#mask1_2001_1312)">
<g id="Vector_5" filter="url(#filter0_f_2001_1312)">
<path d="M53.5249 28.4431C57.2897 18.9626 70.71 18.9668 74.4732 28.4484L81.5926 46.391L99.5564 53.5267C109.036 57.291 109.036 70.7102 99.5564 74.4745L81.5926 81.6046L74.4732 99.5577C70.7089 109.037 57.2897 109.038 53.5249 99.5577L46.3948 81.5993L28.4416 74.4745C18.9622 70.7097 18.9622 57.291 28.4416 53.5267L46.3948 46.3963L53.5249 28.4431Z" fill="url(#paint1_linear_2001_1312)"/>
</g>
</g>
</g>
<path id="Vector_6" d="M122.665 63.9948C122.665 72.0482 118.482 79.5031 111.874 83.8231C113.495 91.5511 111.19 99.7938 105.494 105.484C99.803 111.18 91.5544 113.475 83.8323 111.865C79.5118 118.478 72.0574 122.667 64.004 122.667C55.9507 122.667 48.4958 118.478 44.1758 111.87C36.4478 113.502 28.205 111.186 22.5143 105.49C16.8237 99.7991 14.5128 91.5618 16.1341 83.8284C9.52078 79.5084 5.33203 72.0535 5.33203 64.0002C5.33203 55.9468 9.52078 48.4921 16.1341 44.1721C14.5181 36.4387 16.8237 28.2012 22.5143 22.5106C28.205 16.8146 36.4371 14.4983 44.1758 16.1303C48.4958 9.52235 55.9454 5.3335 63.9987 5.3335C72.052 5.3335 79.507 9.52235 83.827 16.1303C91.5443 14.4983 99.7923 16.8146 105.488 22.5106C111.179 28.2012 113.49 36.4387 111.869 44.1721C118.48 48.4911 122.664 55.949 122.665 63.9948ZM69.5144 30.4116C67.532 25.4188 60.4659 25.4187 58.483 30.4116L50.6393 50.1668C50.5529 50.3826 50.3813 50.5548 50.1654 50.6408L30.4102 58.4844C25.4175 60.4674 25.4175 67.533 30.4102 69.5159L50.1654 77.3596C50.3813 77.4455 50.5529 77.6178 50.6393 77.8338L58.483 97.589C60.4659 102.581 67.532 102.581 69.5144 97.589L77.3528 77.8338C77.4392 77.6172 77.6152 77.4455 77.8323 77.3596L97.5875 69.5159C102.58 67.533 102.58 60.4674 97.5875 58.4844L77.8323 50.6408C77.6152 50.555 77.4392 50.3834 77.3528 50.1668L69.5144 30.4116Z" fill="url(#paint2_linear_2001_1312)"/>
<path id="Vector_7" d="M122.665 63.9948C122.665 72.0482 118.482 79.5031 111.874 83.8231C113.495 91.5511 111.19 99.7938 105.494 105.484C99.803 111.18 91.5544 113.475 83.8323 111.865C79.5118 118.478 72.0574 122.667 64.004 122.667V118.667C70.6691 118.667 76.8808 115.192 80.483 109.678L81.9779 107.396L84.6499 107.953C91.0963 109.298 97.9608 107.36 102.665 102.651C107.376 97.9442 109.314 91.0898 107.962 84.646L107.4 81.9687L109.686 80.4743C115.194 76.8732 118.669 70.6636 118.671 64.0002C118.671 57.3399 115.195 51.1227 109.681 47.521L107.394 46.0262L107.957 43.3491C109.309 36.901 107.369 30.0477 102.66 25.3387C97.9432 20.6219 91.0798 18.6832 84.6547 20.0418L81.9779 20.6095L80.4776 18.3179C76.876 12.8084 70.6643 9.3335 63.9987 9.3335C57.3342 9.3335 51.1273 12.8075 47.5247 18.3179L46.0247 20.6043L43.3477 20.0418C36.9002 18.6827 30.0577 20.6251 25.3477 25.3387C20.6399 30.0465 18.6973 36.9021 20.0456 43.3544L20.6081 46.0262L18.3216 47.521C12.8074 51.123 9.33203 57.3351 9.33203 64.0002C9.33203 70.6652 12.8074 76.8775 18.3216 80.4791L20.6081 81.974L20.0456 84.6514C18.6941 91.0994 20.6387 97.9527 25.3477 102.662C30.0578 107.376 36.9111 109.318 43.3477 107.959L46.0247 107.391L47.5247 109.682C51.1268 115.192 57.3384 118.667 64.004 118.667V122.667C55.9507 122.667 48.4958 118.478 44.1758 111.87C36.4478 113.502 28.205 111.186 22.5143 105.49C16.8237 99.7991 14.5128 91.5618 16.1341 83.8284C9.52078 79.5084 5.33203 72.0535 5.33203 64.0002C5.33203 55.9468 9.52078 48.4921 16.1341 44.1721C14.5181 36.4387 16.8237 28.2012 22.5143 22.5106C27.8491 17.1708 35.4164 14.8013 42.7175 15.87L44.1758 16.1303C48.4958 9.52235 55.9454 5.3335 63.9987 5.3335C71.5486 5.3335 78.5747 9.01216 82.9832 14.9169L83.827 16.1303C91.5443 14.4983 99.7923 16.8146 105.488 22.5106C111.179 28.2012 113.49 36.4387 111.869 44.1721C118.48 48.4911 122.664 55.949 122.665 63.9948Z" fill="url(#paint3_linear_2001_1312)"/>
</g>
<defs>
<filter id="filter0_f_2001_1312" x="-0.00130272" y="0.00162697" width="128.001" height="127.999" filterUnits="userSpaceOnUse" color-interpolation-filters="sRGB">
<feFlood flood-opacity="0" result="BackgroundImageFix"/>
<feBlend mode="normal" in="SourceGraphic" in2="BackgroundImageFix" result="shape"/>
<feGaussianBlur stdDeviation="10.6667" result="effect1_foregroundBlur_2001_1312"/>
</filter>
<linearGradient id="paint0_linear_2001_1312" x1="63.999" y1="21.3332" x2="63.999" y2="106.667" gradientUnits="userSpaceOnUse">
<stop stop-color="#F5EAEA"/>
<stop offset="1" stop-color="#FCFCFC"/>
</linearGradient>
<linearGradient id="paint1_linear_2001_1312" x1="63.999" y1="21.3337" x2="63.999" y2="106.667" gradientUnits="userSpaceOnUse">
<stop stop-color="#F5EAEA"/>
<stop offset="1" stop-color="#FCFCFC"/>
</linearGradient>
<linearGradient id="paint2_linear_2001_1312" x1="63.9987" y1="5.3335" x2="63.9987" y2="122.667" gradientUnits="userSpaceOnUse">
<stop stop-color="#31ECCC" stop-opacity="0.6"/>
<stop offset="1" stop-color="#31ECCC" stop-opacity="0.6"/>
</linearGradient>
<linearGradient id="paint3_linear_2001_1312" x1="63.9987" y1="5.3335" x2="63.9987" y2="73.2802" gradientUnits="userSpaceOnUse">
<stop stop-color="#31ECCC"/>
<stop offset="1" stop-color="#31ECCC" stop-opacity="0"/>
</linearGradient>
</defs>
</svg>
