<svg preserveAspectRatio="none" width="100%" height="100%" overflow="visible" style="display: block;" viewBox="0 0 44 44" fill="none" xmlns="http://www.w3.org/2000/svg">
<g id="Frame">
<path id="Vector" d="M21.9996 39.7218C31.7874 39.7218 39.7218 31.7874 39.7218 21.9996C39.7218 12.2119 31.7874 4.27734 21.9996 4.27734C12.2119 4.27734 4.27734 12.2119 4.27734 21.9996C4.27734 31.7874 12.2119 39.7218 21.9996 39.7218Z" fill="var(--fill-0, #31ECCC)" fill-opacity="0.3"/>
<path id="Vector_2" d="M22 4.27734C31.7876 4.27734 39.7222 12.212 39.7222 21.9996C39.7222 31.7871 31.7876 39.7218 22 39.7218" stroke="var(--stroke-0, #31ECCC)" stroke-width="3.66667" stroke-linecap="round" stroke-linejoin="round"/>
<path id="Vector_3" d="M14.0547 22.6107L19.5547 28.7218L29.9436 15.2773" stroke="var(--stroke-0, #31ECCC)" stroke-width="3.66667" stroke-linecap="round" stroke-linejoin="round"/>
<path id="Vector_4" d="M9.46615 36.3659C10.4787 36.3659 11.2995 35.545 11.2995 34.5326C11.2995 33.5201 10.4787 32.6992 9.46615 32.6992C8.45361 32.6992 7.63281 33.5201 7.63281 34.5326C7.63281 35.545 8.45361 36.3659 9.46615 36.3659Z" fill="var(--fill-0, #31ECCC)"/>
<path id="Vector_5" d="M4.27865 23.8337C5.29116 23.8337 6.11198 23.0128 6.11198 22.0003C6.11198 20.9878 5.29116 20.167 4.27865 20.167C3.26613 20.167 2.44531 20.9878 2.44531 22.0003C2.44531 23.0128 3.26613 23.8337 4.27865 23.8337Z" fill="var(--fill-0, #31ECCC)"/>
<path id="Vector_6" d="M9.46615 11.3005C10.4787 11.3005 11.2995 10.4796 11.2995 9.46712C11.2995 8.45458 10.4787 7.63379 9.46615 7.63379C8.45361 7.63379 7.63281 8.45458 7.63281 9.46712C7.63281 10.4796 8.45361 11.3005 9.46615 11.3005Z" fill="var(--fill-0, #31ECCC)"/>
<path id="Vector_7" d="M15.2201 40.2067C16.2326 40.2067 17.0534 39.3859 17.0534 38.3734C17.0534 37.3609 16.2326 36.54 15.2201 36.54C14.2075 36.54 13.3867 37.3609 13.3867 38.3734C13.3867 39.3859 14.2075 40.2067 15.2201 40.2067Z" fill="var(--fill-0, #31ECCC)"/>
<path id="Vector_8" d="M5.6263 30.6139C6.63884 30.6139 7.45964 29.7931 7.45964 28.7806C7.45964 27.7681 6.63884 26.9473 5.6263 26.9473C4.61379 26.9473 3.79297 27.7681 3.79297 28.7806C3.79297 29.7931 4.61379 30.6139 5.6263 30.6139Z" fill="var(--fill-0, #31ECCC)"/>
<path id="Vector_9" d="M5.6263 17.0524C6.63884 17.0524 7.45964 16.2316 7.45964 15.2191C7.45964 14.2066 6.63884 13.3857 5.6263 13.3857C4.61379 13.3857 3.79297 14.2066 3.79297 15.2191C3.79297 16.2316 4.61379 17.0524 5.6263 17.0524Z" fill="var(--fill-0, #31ECCC)"/>
<path id="Vector_10" d="M15.2201 7.46061C16.2326 7.46061 17.0534 6.63982 17.0534 5.62728C17.0534 4.61477 16.2326 3.79395 15.2201 3.79395C14.2075 3.79395 13.3867 4.61477 13.3867 5.62728C13.3867 6.63982 14.2075 7.46061 15.2201 7.46061Z" fill="var(--fill-0, #31ECCC)"/>
</g>
</svg>
