<svg preserveAspectRatio="none" width="100%" height="100%" overflow="visible" style="display: block;" viewBox="0 0 128 128" fill="none" xmlns="http://www.w3.org/2000/svg">
<g id="Group">
<g id="Mask group">
<mask id="mask0_2001_1202" style="mask-type:luminance" maskUnits="userSpaceOnUse" x="0" y="0" width="128" height="128">
<g id="Group_2">
<path id="Vector" d="M128 0H0V128H128V0Z" fill="var(--fill-0, white)"/>
<path id="Vector_2" d="M85.3327 42.6663L72.6724 11.1852C69.5556 3.33222 58.441 3.33125 55.3226 11.1837L42.9888 42.2445C42.8533 42.5849 42.5844 42.8538 42.244 42.9893L11.1779 55.3253C3.32613 58.4432 3.32612 69.5563 11.1779 72.6741L42.666 85.3333C66.2303 85.3333 85.3327 66.2304 85.3327 42.6663Z" fill="var(--fill-0, black)"/>
</g>
</mask>
<g mask="url(#mask0_2001_1202)">
<path id="Vector_3" d="M42.6654 85.3334L55.3256 116.814C58.4424 124.668 69.5571 124.669 72.675 116.816L85.0088 85.7553C85.1448 85.415 85.4136 85.1462 85.7539 85.0108L116.82 72.6748C124.672 69.5569 124.672 58.4438 116.82 55.326L85.332 42.6668C61.6419 42.489 42.4821 61.6433 42.6654 85.3334Z" fill="url(#paint0_linear_2001_1202)"/>
</g>
</g>
<g id="Clip path group">
<mask id="mask1_2001_1202" style="mask-type:luminance" maskUnits="userSpaceOnUse" x="5" y="5" width="81" height="81">
<g id="n5hpvhaxx0m-1760519092865-728945_sparkle_clipPath_olzruc8jq">
<path id="Vector_4" d="M85.3327 42.6663L72.6724 11.1852C69.5556 3.33222 58.441 3.33125 55.3226 11.1837L42.9888 42.2445C42.8533 42.5849 42.5844 42.8538 42.244 42.9893L11.1779 55.3253C3.32613 58.4432 3.32612 69.5563 11.1779 72.6741L42.666 85.3333C66.2303 85.3333 85.3327 66.2304 85.3327 42.6663Z" fill="var(--fill-0, white)"/>
</g>
</mask>
<g mask="url(#mask1_2001_1202)">
<g id="Vector_5" filter="url(#filter0_f_2001_1202)">
<path d="M42.6654 85.3334L55.3256 116.814C58.4424 124.668 69.5571 124.669 72.675 116.816L85.0088 85.7553C85.1448 85.415 85.4136 85.1462 85.7539 85.0108L116.82 72.6748C124.672 69.5569 124.672 58.4438 116.82 55.326L85.332 42.6668C61.6419 42.489 42.4821 61.6433 42.6654 85.3334Z" fill="url(#paint1_linear_2001_1202)"/>
</g>
</g>
</g>
<path id="Vector_6" d="M85.3327 42.6663L72.6724 11.1852C69.5556 3.33222 58.441 3.33125 55.3226 11.1837L42.9888 42.2445C42.8533 42.5849 42.5844 42.8538 42.244 42.9893L11.1779 55.3253C3.32613 58.4432 3.32612 69.5563 11.1779 72.6741L42.666 85.3333C66.2303 85.3333 85.3327 66.2304 85.3327 42.6663Z" fill="url(#paint2_linear_2001_1202)"/>
<path id="Vector_7" d="M55.3199 11.185C58.4377 3.3325 69.5572 3.33195 72.674 11.185L81.8665 34.0443C84.1561 39.7378 85.6553 45.8953 84.3353 51.8881L83.9705 53.3934C79.9711 68.8366 67.5401 80.8878 51.8822 84.3358L50.7572 84.5497C45.8759 85.3417 40.9145 84.3572 36.2051 82.6852L34.0488 81.867L11.1791 72.6745C3.57202 69.6537 3.33268 59.1268 10.4655 55.6382L11.1791 55.3257L42.2415 42.987C42.5819 42.8515 42.8508 42.5827 42.9863 42.2422L55.3199 11.185ZM68.9551 12.6589C67.1737 8.17216 60.8201 8.17205 59.0383 12.6589L46.7051 43.7214C46.2309 44.9125 45.3461 45.8885 44.2207 46.4766L43.7207 46.7058L12.653 59.0441C8.16756 60.8265 8.16713 67.1742 12.653 68.9556L12.6686 68.9609L35.5384 78.1588C40.9576 80.3374 46.2008 81.4916 51.0228 80.4297C65.6644 77.2052 77.2036 65.6649 80.4292 51.0235C81.4905 46.2008 80.3327 40.9588 78.1529 35.5391L68.9604 12.6746L68.9551 12.6589Z" fill="url(#paint3_linear_2001_1202)"/>
</g>
<defs>
<filter id="filter0_f_2001_1202" x="21.3307" y="21.3322" width="122.711" height="122.706" filterUnits="userSpaceOnUse" color-interpolation-filters="sRGB">
<feFlood flood-opacity="0" result="BackgroundImageFix"/>
<feBlend mode="normal" in="SourceGraphic" in2="BackgroundImageFix" result="shape"/>
<feGaussianBlur stdDeviation="10.6667" result="effect1_foregroundBlur_2001_1202"/>
</filter>
<linearGradient id="paint0_linear_2001_1202" x1="82.6867" y1="42.6668" x2="82.6867" y2="122.704" gradientUnits="userSpaceOnUse">
<stop stop-color="#575757"/>
<stop offset="1" stop-color="#151515"/>
</linearGradient>
<linearGradient id="paint1_linear_2001_1202" x1="82.6867" y1="42.6668" x2="82.6867" y2="122.704" gradientUnits="userSpaceOnUse">
<stop stop-color="#575757"/>
<stop offset="1" stop-color="#151515"/>
</linearGradient>
<linearGradient id="paint2_linear_2001_1202" x1="45.3113" y1="5.296" x2="45.3113" y2="85.3333" gradientUnits="userSpaceOnUse">
<stop stop-color="#E3E3E5" stop-opacity="0.6"/>
<stop offset="1" stop-color="#BBBBC0" stop-opacity="0.6"/>
</linearGradient>
<linearGradient id="paint3_linear_2001_1202" x1="45.0607" y1="5.29584" x2="45.0607" y2="51.3545" gradientUnits="userSpaceOnUse">
<stop stop-color="white"/>
<stop offset="1" stop-color="white" stop-opacity="0"/>
</linearGradient>
</defs>
</svg>
