<svg preserveAspectRatio="none" width="100%" height="100%" overflow="visible" style="display: block;" viewBox="0 0 128 128" fill="none" xmlns="http://www.w3.org/2000/svg">
<g id="Group">
<g id="Mask group">
<mask id="mask0_2001_1215" style="mask-type:luminance" maskUnits="userSpaceOnUse" x="0" y="0" width="128" height="128">
<g id="Group_2">
<path id="Vector" d="M128 0H0V128H128V0Z" fill="var(--fill-0, white)"/>
<path id="Vector_2" d="M84.9993 42.245L72.6723 11.1857C69.5555 3.33271 58.4409 3.33173 55.323 11.1842L42.9889 42.245C42.8533 42.5853 42.5844 42.8543 42.2441 42.9898L11.1779 55.3255C3.32613 58.4434 3.32612 69.557 11.1779 72.6748L42.2441 85.0108C42.5844 85.1463 42.8533 85.4151 42.9889 85.7554L55.3225 116.816C58.4409 124.668 69.5555 124.668 72.6723 116.815L84.9993 85.7554C85.1353 85.414 85.4073 85.1458 85.7491 85.0108L116.818 72.6748C124.67 69.557 124.67 58.4434 116.818 55.3255L85.7491 42.9898C85.4073 42.8546 85.1353 42.5866 84.9993 42.245Z" fill="var(--fill-0, black)"/>
</g>
</mask>
<g mask="url(#mask0_2001_1215)">
<path id="Vector_3" d="M101.349 49.1823C101.16 49.581 100.976 49.9854 100.776 50.3854C96.3621 59.2133 88.7483 69.4181 79.0832 79.0832C69.4187 88.7477 59.2128 96.3568 50.3854 100.771C49.9852 100.971 49.5812 101.16 49.1823 101.349L45.2344 91.4112C45.3595 91.3499 45.4878 91.2928 45.6146 91.2293C53.1658 87.4533 62.4619 80.6219 71.5419 71.5419C80.6213 62.4619 87.4533 53.1658 91.2293 45.6146C91.2923 45.488 91.3504 45.3594 91.4112 45.2344L101.349 49.1823Z" fill="url(#paint0_linear_2001_1215)"/>
</g>
</g>
<g id="Clip path group">
<mask id="mask1_2001_1215" style="mask-type:luminance" maskUnits="userSpaceOnUse" x="5" y="5" width="118" height="118">
<g id="qku7r6f5gp-1760519092865-8257056_sparkle-2_clipPath_jso9q5uke">
<path id="Vector_4" d="M84.9993 42.245L72.6723 11.1857C69.5555 3.33271 58.4409 3.33173 55.323 11.1842L42.9889 42.245C42.8533 42.5853 42.5844 42.8543 42.2441 42.9898L11.1779 55.3255C3.32613 58.4434 3.32612 69.557 11.1779 72.6748L42.2441 85.0108C42.5844 85.1463 42.8533 85.4151 42.9889 85.7554L55.3225 116.816C58.4409 124.668 69.5555 124.668 72.6723 116.815L84.9993 85.7554C85.1353 85.414 85.4073 85.1458 85.7491 85.0108L116.818 72.6748C124.67 69.557 124.67 58.4434 116.818 55.3255L85.7491 42.9898C85.4073 42.8546 85.1353 42.5866 84.9993 42.245Z" fill="var(--fill-0, white)"/>
</g>
</mask>
<g mask="url(#mask1_2001_1215)">
<g id="Vector_5" filter="url(#filter0_f_2001_1215)">
<path d="M101.349 49.1823C101.16 49.5809 100.976 49.9854 100.776 50.3854C96.3621 59.2133 88.7482 69.4181 79.0832 79.0832C69.4186 88.7477 59.2128 96.3568 50.3854 100.771C49.9852 100.971 49.5812 101.16 49.1823 101.349L45.2344 91.4112C45.3595 91.3498 45.4878 91.2928 45.6145 91.2293C53.1658 87.4533 62.4618 80.6218 71.5418 71.5418C80.6213 62.4618 87.4533 53.1658 91.2293 45.6145C91.2922 45.488 91.3504 45.3594 91.4112 45.2344L101.349 49.1823Z" fill="url(#paint1_linear_2001_1215)"/>
</g>
</g>
</g>
<path id="Vector_6" d="M84.9993 42.245L72.6723 11.1857C69.5555 3.33271 58.4409 3.33173 55.323 11.1842L42.9889 42.245C42.8533 42.5853 42.5844 42.8543 42.2441 42.9898L11.1779 55.3255C3.32613 58.4434 3.32612 69.557 11.1779 72.6748L42.2441 85.0108C42.5844 85.1463 42.8533 85.4151 42.9889 85.7554L55.3225 116.816C58.4409 124.668 69.5555 124.668 72.6723 116.815L84.9993 85.7554C85.1353 85.414 85.4073 85.1458 85.7491 85.0108L116.818 72.6748C124.67 69.557 124.67 58.4434 116.818 55.3255L85.7491 42.9898C85.4073 42.8546 85.1353 42.5866 84.9993 42.245Z" fill="url(#paint2_linear_2001_1215)"/>
<path id="Vector_7" d="M55.3199 11.1845C58.4377 3.33199 69.5572 3.33144 72.674 11.1845L84.9972 42.2421C85.1327 42.5829 85.4063 42.8514 85.7471 42.9869L116.82 55.3253C124.67 58.4443 124.67 69.5563 116.82 72.6747L85.7471 85.008C85.4057 85.1435 85.1327 85.4117 84.9972 85.7531L72.674 116.815L72.3562 117.529C68.9796 124.429 59.0148 124.43 55.6378 117.529L55.3199 116.815L42.9865 85.7531C42.8507 85.4133 42.5814 85.1435 42.2417 85.008L11.1791 72.6747C3.57202 69.6539 3.33268 59.1264 10.4655 55.6379L11.1791 55.3253L42.2417 42.9869C42.5821 42.8513 42.8509 42.5825 42.9865 42.2421L55.3199 11.1845ZM68.9551 12.6585C67.1738 8.17173 60.8201 8.17157 59.0388 12.6585L46.7052 43.7212C46.231 44.9123 45.3463 45.8884 44.2208 46.4765L43.7208 46.7057L12.6531 59.0443C8.16756 60.8267 8.16713 67.1739 12.6531 68.9557L43.7208 81.2944L44.2208 81.5237C45.1852 82.0277 45.9723 82.8144 46.476 83.7787L46.7052 84.2736V84.2789L59.0388 115.341C60.8212 119.827 67.1743 119.823 68.9551 115.337L81.2836 84.2789V84.2736C81.7658 83.0624 82.6639 82.0933 83.7834 81.5131L84.2783 81.2891L115.341 68.9557C119.828 67.1744 119.828 60.8256 115.341 59.0443L84.2783 46.7057C83.0986 46.2393 82.1103 45.3667 81.5124 44.2265L81.2836 43.7212L68.9551 12.6585Z" fill="url(#paint3_linear_2001_1215)"/>
<path id="Vector_8" d="M90.2463 23.0224C94.0847 22.5683 98.498 23.077 101.71 26.288C104.922 29.5004 105.43 33.9175 104.975 37.7568C104.553 41.3155 103.228 45.2091 101.345 49.1838L91.4079 45.2359C93.1871 41.6066 94.1263 38.6543 94.3818 36.5015C94.5108 35.4091 94.4458 34.6878 94.345 34.2672C94.2975 34.069 94.2442 33.9526 94.2148 33.8974C94.1887 33.8486 94.1679 33.8297 94.1679 33.8297C94.1679 33.8297 94.1471 33.808 94.1002 33.7828C94.0452 33.7535 93.929 33.7054 93.7306 33.6578C93.3103 33.5573 92.5924 33.4924 91.5012 33.6214C89.2756 33.8852 86.1876 34.8671 82.3866 36.7672C75.3076 40.3068 66.6932 46.5368 58.1631 54.7828L56.4596 56.4548C47.3802 65.5342 40.5428 74.8308 36.767 82.3817C34.8661 86.1838 33.885 89.275 33.6212 91.5017C33.4922 92.5929 33.5571 93.3102 33.6576 93.7305C33.7052 93.9289 33.7534 94.0452 33.7826 94.1006C33.8077 94.1476 33.8295 94.1684 33.8295 94.1684L33.8972 94.2153C33.9523 94.2441 34.0696 94.2926 34.267 94.3401C34.6876 94.4409 35.409 94.5113 36.5014 94.3817C38.6536 94.1262 41.6072 93.1913 45.2357 91.4132L49.1784 101.351C45.2058 103.232 41.3134 104.554 37.7566 104.975C34.1571 105.402 30.0487 104.984 26.9024 102.283L26.2878 101.71C23.076 98.4974 22.5676 94.0798 23.0222 90.2409C23.4864 86.3268 25.0327 82.002 27.2253 77.6164C31.6391 68.7886 39.2478 58.578 48.9128 48.913L50.7357 47.1266C59.8527 38.3117 69.3407 31.3632 77.6159 27.2255C82.0026 25.0324 86.3311 23.4863 90.2463 23.0224Z" fill="url(#paint4_linear_2001_1215)"/>
<path id="Vector_9" d="M29.3333 22.6667C29.3333 26.3486 26.3486 29.3333 22.6667 29.3333C18.9847 29.3333 16 26.3486 16 22.6667C16 18.9847 18.9847 16 22.6667 16C26.3486 16 29.3333 18.9847 29.3333 22.6667Z" fill="url(#paint5_linear_2001_1215)"/>
</g>
<defs>
<filter id="filter0_f_2001_1215" x="23.901" y="23.901" width="98.7811" height="98.7811" filterUnits="userSpaceOnUse" color-interpolation-filters="sRGB">
<feFlood flood-opacity="0" result="BackgroundImageFix"/>
<feBlend mode="normal" in="SourceGraphic" in2="BackgroundImageFix" result="shape"/>
<feGaussianBlur stdDeviation="10.6667" result="effect1_foregroundBlur_2001_1215"/>
</filter>
<linearGradient id="paint0_linear_2001_1215" x1="73.2907" y1="45.232" x2="73.2907" y2="101.349" gradientUnits="userSpaceOnUse">
<stop stop-color="#575757"/>
<stop offset="1" stop-color="#151515"/>
</linearGradient>
<linearGradient id="paint1_linear_2001_1215" x1="73.2906" y1="45.232" x2="73.2906" y2="101.349" gradientUnits="userSpaceOnUse">
<stop stop-color="#575757"/>
<stop offset="1" stop-color="#151515"/>
</linearGradient>
<linearGradient id="paint2_linear_2001_1215" x1="63.9993" y1="-10.6665" x2="63.9993" y2="138.667" gradientUnits="userSpaceOnUse">
<stop stop-color="#E3E3E5" stop-opacity="0.6"/>
<stop offset="1" stop-color="#BBBBC0" stop-opacity="0.6"/>
</linearGradient>
<linearGradient id="paint3_linear_2001_1215" x1="63.9993" y1="5.296" x2="63.9993" y2="73.2907" gradientUnits="userSpaceOnUse">
<stop stop-color="white"/>
<stop offset="1" stop-color="white" stop-opacity="0"/>
</linearGradient>
<linearGradient id="paint4_linear_2001_1215" x1="63.9994" y1="22.8798" x2="63.9994" y2="105.12" gradientUnits="userSpaceOnUse">
<stop stop-color="#575757"/>
<stop offset="1" stop-color="#151515"/>
</linearGradient>
<linearGradient id="paint5_linear_2001_1215" x1="22.6667" y1="16" x2="22.6667" y2="29.3333" gradientUnits="userSpaceOnUse">
<stop stop-color="#575757"/>
<stop offset="1" stop-color="#151515"/>
</linearGradient>
</defs>
</svg>
