<svg preserveAspectRatio="none" width="100%" height="100%" overflow="visible" style="display: block;" viewBox="0 0 44 44" fill="none" xmlns="http://www.w3.org/2000/svg">
<g id="Frame" clip-path="url(#clip0_2001_1265)">
<g id="Frame_2">
<path id="Vector" d="M31.7783 22.6109V11.6109C31.7783 7.90365 28.7634 4.88867 25.0561 4.88867H11.1079C9.64805 4.88867 8.30531 5.62029 7.51527 6.84374L1.51636 16.1155C1.12476 16.7208 1.12476 17.5013 1.51636 18.1065L7.51771 27.3805C8.3102 28.6027 9.65293 29.3331 11.1081 29.3331H25.0564C28.7636 29.3331 31.7783 26.3181 31.7783 22.6109Z" fill="var(--fill-0, #31ECCC)"/>
<path id="Vector_2" d="M42.4824 25.8921L38.8157 20.2261C38.2655 19.3762 37.1293 19.1364 36.2794 19.6829C35.4294 20.2332 35.1872 21.3684 35.7362 22.2193L38.7583 26.8887L33.4062 35.1626C33.2915 35.3394 33.0982 35.4442 32.8906 35.4442H18.9424C17.8849 35.4442 16.9145 34.8688 16.3476 33.9032C15.8355 33.032 14.7088 32.7419 13.8386 33.2528C12.965 33.7661 12.6736 34.8891 13.1869 35.7618C14.4199 37.8588 16.5708 39.1109 18.9424 39.1109H32.8906C34.3456 39.1109 35.6883 38.3805 36.4832 37.1558L42.4821 27.884C42.8737 27.2788 42.874 26.4983 42.4824 25.8921Z" fill="var(--fill-0, #31ECCC)"/>
</g>
</g>
<defs>
<clipPath id="clip0_2001_1265">
<rect width="44" height="44" fill="white"/>
</clipPath>
</defs>
</svg>
