<svg preserveAspectRatio="none" width="100%" height="100%" overflow="visible" style="display: block;" viewBox="0 0 44 44" fill="none" xmlns="http://www.w3.org/2000/svg">
<g id="Frame">
<path id="Vector" d="M32.9116 16.8446C32.4569 11.1882 27.7733 6.72217 21.9996 6.72217C15.9251 6.72217 10.9996 11.6477 10.9996 17.7222C10.9996 18.5777 11.1193 19.3991 11.3027 20.1984C7.3989 20.3622 4.27734 23.5571 4.27734 27.4999C4.27734 31.5504 7.56023 34.8333 11.6107 34.8333H30.5551C35.6176 34.8333 39.7218 30.7291 39.7218 25.6666C39.7218 21.4231 36.8251 17.8884 32.9116 16.8446Z" fill="var(--fill-0, #31ECCC)" fill-opacity="0.3"/>
<path id="Vector_2" d="M32.9116 16.8446C32.4569 11.1882 27.7733 6.72217 21.9996 6.72217C15.9251 6.72217 10.9996 11.6477 10.9996 17.7222C10.9996 18.5777 11.1193 19.3991 11.3027 20.1984C7.3989 20.3622 4.27734 23.5571 4.27734 27.4999C4.27734 31.5504 7.56023 34.8333 11.6107 34.8333H30.5551C35.6176 34.8333 39.7218 30.7291 39.7218 25.6666C39.7218 21.4231 36.8251 17.8884 32.9116 16.8446Z" stroke="var(--stroke-0, #31ECCC)" stroke-width="3.66667" stroke-linecap="round" stroke-linejoin="round"/>
<path id="Vector_3" d="M23.7227 19.5556C25.402 17.6807 27.8391 16.5 30.5549 16.5C31.3689 16.5 32.1609 16.6442 32.9113 16.8447" stroke="var(--stroke-0, #31ECCC)" stroke-width="3.66667" stroke-linecap="round" stroke-linejoin="round"/>
</g>
</svg>
