<svg width="23" height="23" viewBox="0 0 23 23" fill="none" xmlns="http://www.w3.org/2000/svg">
<path fill-rule="evenodd" clip-rule="evenodd" d="M5.00283 2.50142C5.00283 3.88291 3.88291 5.00283 2.50142 5.00283C1.11992 5.00283 0 3.88291 0 2.50142C0 1.11992 1.11992 0 2.50142 0C3.88291 0 5.00283 1.11992 5.00283 2.50142ZM5.00283 22.8701V6.43218H0V22.8701H5.00283ZM17.1526 6.43218C14.2938 6.43218 13.5005 7.36843 12.8644 8.57628V6.43218H7.86162V22.8701H12.8644V13.5791C12.8644 12.1497 12.8644 10.7204 15.3658 10.7204C17.8672 10.7204 17.8672 12.1497 17.8672 13.5791V22.8701H22.8701V13.5791C22.8701 9.29094 22.1554 6.43218 17.1526 6.43218Z" fill="black"/>
</svg>
