<svg width="24" height="20" viewBox="0 0 24 20" fill="none" xmlns="http://www.w3.org/2000/svg">
<path d="M1.56871 8.57553C8.73191 5.33062 17.9979 1.3757 19.2773 0.829989C22.6338 -0.604702 23.6652 -0.328912 23.1495 2.84266C22.7819 5.12525 21.7249 12.6772 20.8701 17.3773C20.3657 20.1646 19.2374 20.4931 17.4509 19.2873C16.5961 18.7005 12.2879 15.7666 11.3533 15.0859C10.4985 14.4581 9.32171 13.7011 10.8005 12.2136C11.3362 11.6855 14.7725 8.29683 17.4651 5.66215C17.5339 5.5905 17.5748 5.49532 17.5798 5.39469C17.5849 5.29405 17.5539 5.19501 17.4927 5.1164C17.4315 5.03779 17.3443 4.98509 17.2478 4.96833C17.1513 4.95157 17.0522 4.97191 16.9693 5.0255C13.3479 7.49584 8.33585 10.9227 7.69761 11.3686C6.73453 12.0435 5.80851 12.3515 4.14451 11.8615C2.8908 11.489 1.66274 11.0459 1.18405 10.8787C-0.653762 10.2273 -0.217814 9.38827 1.56871 8.57553Z" fill="black"/>
</svg>
