<svg width="151" height="60" viewBox="0 0 151 60" fill="none" xmlns="http://www.w3.org/2000/svg">
<path d="M88.7764 10.6904C90.3076 10.6904 94.3878 10.6907 98.252 13.5889C101.654 16.1273 103.052 19.4979 103.576 21.2861C104.182 23.3312 103.021 25.4689 100.976 26.0752C98.9305 26.6815 96.7929 25.5197 96.1865 23.4746C95.9295 22.601 95.251 20.9674 93.6377 19.7549C91.8187 18.3983 89.8247 18.3877 88.7559 18.3877H88.7461C87.667 18.3877 83.9981 18.6035 81.583 21.3369C79.6509 23.5156 79.5479 26.0752 79.5273 30.4121C79.5068 34.5331 79.5793 36.9586 81.2441 38.8496C83.3921 41.285 86.8654 41.4598 88.3555 41.542C89.9072 41.6242 91.8289 41.727 93.7197 40.5352C95.8676 39.1786 96.6796 36.9273 96.9365 36.0332C97.5019 33.978 99.6293 32.7762 101.685 33.3516C103.74 33.9168 104.943 36.0442 104.367 38.0996C103.761 40.299 102.106 44.3788 97.8311 47.0713C94.7993 48.9828 91.8393 49.3115 89.6914 49.3115L89.6816 49.291C89.0136 49.291 88.4274 49.2603 87.9443 49.2295C85.9197 49.1267 79.7533 48.7975 75.4678 43.9365C71.7785 39.7538 71.7988 34.7691 71.8193 30.3809C71.8399 25.8283 71.861 20.6901 75.8174 16.2197C80.38 11.0816 86.8848 10.6699 88.7764 10.6904ZM16.8271 11.543C19.0881 11.5224 21.1435 12.8586 22.0273 14.9551L34.2158 43.8955H34.2266C35.0485 45.8583 34.1336 48.1193 32.1709 48.9414C30.208 49.7636 27.9472 48.8487 27.125 46.8857L24.3701 40.3604H9.99316L7.44434 46.8037C6.84827 48.3144 5.3887 49.2393 3.85742 49.2393C3.38471 49.2393 2.90189 49.1567 2.43945 48.9717C0.455983 48.1906 -0.510548 45.9503 0.270508 43.9668L11.6992 15.0684C12.5419 12.9513 14.5456 11.5635 16.8271 11.543ZM57.1035 11.543C57.5246 11.543 57.9354 11.6155 58.3359 11.749C63.1866 13.3933 66.5786 17.5962 66.959 22.457C67.442 28.541 63.1048 34.1731 56.877 35.5605C56.5995 35.6222 56.3219 35.6533 56.0342 35.6533H47.1035V45.3857C47.1034 47.5129 45.3771 49.239 43.25 49.2393C41.1227 49.2393 39.3956 47.513 39.3955 45.3857V15.3975C39.3955 13.2701 41.1227 11.543 43.25 11.543H57.1035ZM12.6035 33.752H21.585L16.9502 22.7559L12.6035 33.752ZM134.941 12.8174C135.835 12.8174 136.627 13.3928 136.904 14.2559L140.326 25.0674L144.016 14.2148C144.303 13.3826 145.085 12.8175 145.958 12.8174H148.867C149.997 12.8176 150.922 13.7427 150.922 14.873V33.4229H146.821V18.7373L142.413 31.707C142.033 32.673 141.159 33.2897 140.224 33.2383C139.278 33.2177 138.435 32.6112 138.127 31.7275L134.314 19.7129V33.4434H130.204V14.873C130.204 13.7427 131.128 12.8175 132.259 12.8174H134.941ZM150.933 33.4229L150.922 33.4336V33.4229H150.933ZM129.206 15.8594H121.704V33.4023H117.593V15.8594H110.081V11.749H129.206V15.8594ZM47.1143 27.9561H55.5615C57.843 27.2881 59.4466 25.2015 59.2822 23.0742C59.1589 21.4813 58.0173 20.0017 56.3936 19.2617H47.1143V27.9561Z" fill="#0F1315"/>
</svg>
