<svg width="176" height="60" viewBox="0 0 176 60" fill="none" xmlns="http://www.w3.org/2000/svg">
<path d="M41.1245 48.0631H31.4134L28.4425 40.9144H12.2578L9.55117 48.0631H0L14.5919 11.9578H25.0458L41.1245 48.0631ZM19.9518 20.5853L14.6456 34.6137H25.7893L19.9518 20.5853ZM76.4006 11.9578H84.254V48.0631H75.232V25.5107L65.4683 36.8386H64.0892L54.3261 25.5107V48.0627H45.3042V11.9578H53.1576L64.7782 25.3512L76.4006 11.9578ZM107.113 11.9578C120.326 11.9578 127.117 20.1623 127.117 30.062C127.117 40.4379 120.538 48.0631 106.105 48.0631H91.1401V11.9578H107.113ZM100.161 41.4457H106.05C115.125 41.4457 117.831 35.3033 117.831 30.0085C117.831 23.814 114.488 18.5744 105.944 18.5744H100.161V41.4457H100.161ZM145.065 20.5187L133.69 9.16797H175.102V50.4843L163.727 39.1349V20.5187H145.065ZM145.052 22.7931L133.34 34.4768V50.832H149.732L161.443 39.1483H145.052V22.7931Z" fill="#0F1315"/>
</svg>
