<svg width="204" height="60" viewBox="0 0 204 60" fill="none" xmlns="http://www.w3.org/2000/svg">
<path d="M19.0762 15.626C20.3768 13.6001 23.5558 13.5999 24.7119 15.5293L43.9316 45.917H37.6211L21.9658 21.0273L15.2705 31.543H27.5537L24.3262 36.752H12.043L6.31055 45.917H0L19.0762 15.626ZM72.1123 14.082C77.3145 14.0823 81.5537 18.327 81.5537 23.5361C81.5536 28.7452 77.3145 32.99 72.1123 32.9902H68.3545L81.7461 45.8682H74.2314L55.541 27.7803H72.1123C74.4242 27.78 76.3504 25.8993 76.3506 23.5361C76.3506 21.221 74.4725 19.2913 72.1123 19.291H52.0244V45.917H46.1963V14.082H72.1123ZM129.15 19.291H108.581C106.365 19.2912 104.535 21.1242 104.535 23.3428C104.535 25.6097 106.365 27.3943 108.581 27.3945H125.2C130.306 27.3945 134.401 31.5426 134.449 36.6553C134.449 41.7681 130.306 45.917 125.2 45.917H100.199L103.379 40.707H125.152C127.368 40.7069 129.198 38.874 129.198 36.6553C129.198 34.3885 127.368 32.6036 125.152 32.6035H108.581C103.475 32.6033 99.333 28.4555 99.333 23.3428C99.3331 18.2301 103.475 14.0822 108.581 14.082H132.378L129.15 19.291ZM167.543 19.291H155.019V45.917H149.238V19.291H135.172L138.544 14.082H167.543V19.291ZM178.665 15.6738C180.014 13.5997 183.145 13.5995 184.35 15.5771L203.569 45.917H197.259L181.604 21.0762L174.908 31.543H187.191L183.964 36.752H171.681L165.948 45.917H159.638L178.665 15.6738ZM93.6006 14.1787V45.916H87.8203V14.1787H93.6006Z" fill="#0F1315"/>
</svg>
