<svg width="119" height="60" viewBox="0 0 119 60" fill="none" xmlns="http://www.w3.org/2000/svg">
<path d="M80.4531 20.8672C82.7969 20.8672 84.9582 21.2631 86.9062 22.085C88.8543 22.9068 90.5285 24.0331 91.9287 25.4941C93.2984 26.9551 94.3941 28.6596 95.1855 30.5771C95.9465 32.5252 96.3427 34.5954 96.3428 36.8174V39.71H72.1426L72.2344 39.9834C72.7518 41.7793 73.7257 43.2404 75.1562 44.2754C76.5869 45.3408 78.4748 45.8584 80.7578 45.8584C84.4102 45.8582 87.3322 43.88 88.5498 42.4189L94.3945 46.8633C91.8376 49.7855 87.5756 52.9199 80.6963 52.9199C78.322 52.9199 76.0998 52.4939 74.0908 51.6416C72.0819 50.8197 70.3465 49.663 68.9463 48.2324C67.5463 46.8019 66.4203 45.0973 65.6289 43.1494C64.8375 41.2013 64.4414 39.1009 64.4414 36.8789C64.4414 34.6569 64.8372 32.5564 65.6895 30.6084C66.5113 28.6603 67.668 26.9551 69.0986 25.5244C70.5293 24.0937 72.2345 22.9675 74.1826 22.1152C76.1307 21.2934 78.2311 20.8672 80.4531 20.8672ZM56.2842 9.45215V21.4766H62.1582V28.416H56.2842V39.1924C56.2842 40.4097 56.3451 41.4139 56.4668 42.1748C56.619 42.9662 56.8922 43.5758 57.3184 44.002C57.7445 44.4281 58.3841 44.7317 59.2363 44.8535C59.9668 44.9753 60.9712 45.0361 62.1582 45.0361V52.5859H61.0928C58.6274 52.5859 56.5577 52.3726 54.9141 51.916C53.3008 51.4594 51.9615 50.7283 50.957 49.6934C49.9527 48.6585 49.2221 47.2892 48.7959 45.6152C48.3697 43.9106 48.1562 41.7794 48.1562 39.2529V9.45215H56.2842ZM115.185 46.4365C115.58 46.4365 115.977 46.5285 116.342 46.6807C116.707 46.8328 117.011 47.0455 117.285 47.3193C117.559 47.5932 117.772 47.8976 117.924 48.2627C118.076 48.628 118.168 49.0242 118.168 49.4199C118.168 49.8155 118.076 50.211 117.924 50.5762C117.772 50.9414 117.559 51.2466 117.285 51.5205C117.011 51.7943 116.707 52.007 116.342 52.1592C115.977 52.3114 115.611 52.4033 115.185 52.4033C114.789 52.4033 114.394 52.3113 114.028 52.1592C113.663 52.007 113.358 51.7945 113.084 51.5205C112.81 51.2466 112.598 50.9414 112.445 50.5762C112.293 50.211 112.201 49.8459 112.201 49.4199C112.201 49.0242 112.293 48.628 112.445 48.2627C112.597 47.8977 112.81 47.5932 113.084 47.3193C113.358 47.0454 113.663 46.8329 114.028 46.6807C114.394 46.5285 114.759 46.4365 115.185 46.4365ZM8.34082 21.4766V52.2812H0.244141V21.4766H8.34082ZM30.8975 20.8369C34.9151 20.837 38.0806 22.0544 40.333 24.4893C42.5855 26.9244 43.7424 30.395 43.7119 34.7783V52.251H35.5234V35.9043C35.5234 33.378 34.9154 31.3992 33.7588 29.999C32.5717 28.5988 30.7754 27.8682 28.4316 27.8682C26.4531 27.8682 24.7178 28.5994 23.2871 30.0605C21.9479 31.4303 21.2476 33.5607 21.1562 36.4521V52.2812H13.0898V21.4766H21.0957V25.8896L21.5518 25.3115C22.6171 23.9113 23.9874 22.8158 25.5703 22.0244C27.1836 21.233 28.9493 20.8369 30.8975 20.8369ZM108.671 7.07812V52.2812H100.543V7.07812H108.671ZM115.154 46.9541C114.789 46.9541 114.484 47.015 114.18 47.1367C113.875 47.2585 113.602 47.4413 113.389 47.6543C113.176 47.8673 112.993 48.1411 112.871 48.4453C112.749 48.7497 112.688 49.0851 112.688 49.4199C112.688 49.785 112.749 50.0893 112.871 50.3936C112.993 50.698 113.176 50.9725 113.389 51.1855C113.602 51.3985 113.875 51.5814 114.18 51.7031C114.484 51.8249 114.819 51.8857 115.154 51.8857C115.519 51.8857 115.824 51.8248 116.128 51.7031C116.432 51.5814 116.707 51.3986 116.92 51.1855C117.133 50.9725 117.316 50.698 117.438 50.3936C117.559 50.0893 117.651 49.785 117.62 49.4199C117.62 49.0546 117.559 48.7497 117.438 48.4453C117.316 48.1411 117.133 47.8673 116.92 47.6543C116.707 47.4412 116.432 47.2585 116.128 47.1367C115.824 47.0151 115.489 46.9541 115.154 46.9541ZM115.337 47.6846C115.733 47.6846 116.067 47.7764 116.25 47.959C116.463 48.1416 116.555 48.3849 116.555 48.7197C116.555 49.0241 116.463 49.2375 116.311 49.3896C116.158 49.5416 115.976 49.6327 115.732 49.6631L116.615 51.124H115.945L115.094 49.7246H114.637V51.124H113.997V47.6846H115.337ZM114.637 48.2021V49.1768H115.397C115.489 49.1768 115.581 49.1457 115.672 49.1152C115.733 49.0848 115.794 49.0237 115.854 48.9629C115.885 48.902 115.915 48.8109 115.915 48.6895C115.915 48.5677 115.885 48.4759 115.854 48.415C115.824 48.3542 115.763 48.2931 115.672 48.2627C115.581 48.2323 115.489 48.2021 115.397 48.2021H114.637ZM80.3613 27.7773C74.7911 27.8079 72.2041 31.7348 72.2041 33.9873L88.5498 33.9561C88.5495 31.7035 85.9315 27.7773 80.3613 27.7773ZM8.55371 16.2715H0V7.71777H8.55371V16.2715Z" fill="#0F1315"/>
</svg>
