<svg width="198" height="60" viewBox="0 0 198 60" fill="none" xmlns="http://www.w3.org/2000/svg">
<path d="M182.992 37.9824C184.075 37.2727 185.215 37.3712 185.542 37.4121C186.795 37.5684 187.577 38.2878 187.812 38.5215C187.817 38.2264 187.822 37.9299 187.826 37.6338H190.16V46.0713C190.086 46.5064 189.806 47.7838 188.68 48.668C187.525 49.5736 186.205 49.4959 185.334 49.4453C184.533 49.3979 183.511 49.339 182.585 48.5723C181.591 47.7497 181.329 46.6301 181.256 46.2324C182.036 46.2432 182.816 46.2529 183.597 46.2637C183.687 46.5029 183.98 47.188 184.618 47.4238C184.902 47.5293 185.247 47.5432 185.441 47.5508C185.615 47.5572 185.865 47.5643 186.174 47.5029C186.42 47.4545 186.785 47.3814 187.116 47.1133C187.556 46.7568 187.685 46.2601 187.725 46.0576C187.708 45.5515 187.692 45.0462 187.676 44.54C187.505 44.7662 186.803 45.6406 185.526 45.9023C185.348 45.938 184.138 46.1682 182.999 45.4834C181.382 44.5109 181.075 42.3974 181.257 41.0459C181.317 40.599 181.541 38.9334 182.992 37.9824ZM145.818 37.252C148.234 37.2444 150.15 39.2765 150.32 41.5381C150.512 44.0913 148.448 46.5658 145.803 46.5488C143.322 46.5316 141.31 44.3303 141.334 41.8555C141.357 39.4292 143.329 37.2606 145.817 37.252H145.818ZM117.022 37.3037C117.403 37.2929 118.709 37.2747 119.864 38.1729H119.865C121.769 39.6532 121.495 42.2494 121.476 42.4102C119.378 42.4155 117.28 42.4214 115.183 42.4268C115.184 42.6494 115.185 42.8721 115.185 43.0947C115.214 43.2982 115.32 43.8499 115.788 44.2451C116.243 44.6284 116.769 44.6371 117.191 44.6436C117.558 44.6489 118.055 44.6567 118.539 44.3262C119.003 44.0085 119.193 43.559 119.262 43.3662H121.158C121.117 43.7399 120.959 44.7237 120.168 45.498C119.249 46.3951 118.066 46.4202 117.223 46.4385C116.607 46.4525 115.48 46.4615 114.421 45.7314C114.176 45.5623 113.617 45.1672 113.25 44.4375C113.001 43.9411 112.882 43.525 112.888 42.7939C112.893 42.0972 112.898 41.3999 112.903 40.7031C112.979 40.2971 113.208 39.3628 113.998 38.5488C115.132 37.3807 116.59 37.3156 117.022 37.3037ZM125.352 37.6357L127.2 37.6328V39.2275C126.584 39.2318 125.968 39.2358 125.352 39.2412C125.352 40.7811 125.351 42.3204 125.35 43.8604C125.361 43.9648 125.4 44.1416 125.535 44.2783C125.687 44.4302 125.882 44.4562 126.084 44.4756C126.382 44.5036 126.797 44.5272 127.311 44.5078C127.316 45.0872 127.322 45.6657 127.327 46.2451H125.005C124.799 46.2009 124.314 46.0681 123.895 45.6387C123.289 45.0194 123.272 44.2462 123.272 44.0771C123.255 42.4607 123.239 40.844 123.222 39.2275V39.2256C122.809 39.2202 122.238 39.2144 121.825 39.209C121.838 38.6847 121.849 38.1601 121.862 37.6357H123.121C123.116 36.9961 123.11 36.3554 123.104 35.7158H125.335C125.34 36.3554 125.346 36.9961 125.352 37.6357ZM131.734 42.7158H132.271C132.716 41.0369 133.159 39.3576 133.604 37.6787C134.321 37.6744 135.038 37.6703 135.755 37.666C136.147 39.4053 136.54 41.1446 136.933 42.8828C137.076 42.8785 137.22 42.8754 137.363 42.8711C137.821 41.1265 138.279 39.3804 138.737 37.6357H140.873C140.034 40.5047 139.194 43.3742 138.355 46.2432H136.006L134.843 41.1602C134.68 41.1559 134.518 41.1518 134.355 41.1475L132.954 46.2217C132.15 46.2292 131.345 46.2356 130.541 46.2432C129.674 43.3742 128.806 40.5047 127.939 37.6357H130.396C130.843 39.3286 131.289 41.0229 131.734 42.7158ZM108.434 37.3936C108.696 37.3989 109.85 37.4249 110.648 38.3672C111.216 39.0369 111.286 39.7939 111.298 40.0664V46.2305H109.072V40.6592C108.867 39.859 108.213 39.286 107.478 39.2354C106.576 39.1729 105.995 39.9243 105.943 39.9922C105.655 40.3776 105.591 40.7805 105.574 40.9775V46.2324H103.348V37.6348L105.525 37.6484C105.523 38.0715 105.52 38.4939 105.518 38.917H105.812C105.923 38.6844 106.136 38.3186 106.521 38C107.272 37.3808 108.135 37.3871 108.434 37.3936ZM160.588 33.4941V40.8174C160.819 40.7969 161.05 40.7763 161.281 40.7559V40.293C162.03 39.4045 162.78 38.5145 163.528 37.626C164.35 37.6292 165.171 37.6325 165.994 37.6357C166.192 37.7811 163.129 40.8379 163.128 41.6182C163.128 42.2062 166.537 46.0607 166.312 46.2266C165.421 46.2266 164.53 46.2284 163.639 46.2295C162.837 45.1022 162.036 43.9739 161.233 42.8467V42.3516C161.047 42.3462 160.861 42.3413 160.675 42.3359C160.646 43.6347 160.688 44.9337 160.659 46.2324L158.36 46.2295V33.4932H160.587L160.588 33.4941ZM10.1758 24.2607H21.623V10.8867H31.7988V46.2314H21.623V32.6982C21.623 32.6649 21.1799 32.2197 21.1455 32.2197H10.1748V46.2295H0V10.8867H10.1758V24.2607ZM52.9463 10.8867C57.0708 10.8867 61.8251 14.1886 63.1943 18.1377H63.1934C66.0489 26.3741 60.9019 34.4492 51.9912 34.4492H46.4268V46.2314H36.251V10.8867H52.9463ZM91.584 18.8477H77.2725V24.8838L88.7217 24.8965V31.9023H77.2725V38.2705H92.2188V46.2314H67.0977V10.8867H91.584V18.8477ZM155.412 37.8115C156.1 37.496 156.723 37.5821 156.94 37.623C156.943 38.3015 156.946 38.9799 156.948 39.6572C156.777 39.6228 155.727 39.4274 154.881 40.1123C154.521 40.4041 154.328 40.7495 154.229 40.9756V46.2295L154.228 46.2314H151.685V37.6338C152.547 37.6381 153.409 37.6432 154.271 37.6475L154.259 38.8682C154.367 38.6765 154.71 38.1335 155.412 37.8115ZM169.809 46.2305H167.266V37.6338H169.809V46.2305ZM177.07 37.6328C177.74 37.6694 178.774 37.7267 179.364 38.5225C179.792 39.0986 179.776 39.7749 179.75 40.0635C179.742 42.1192 179.734 44.1738 179.727 46.2295H177.441V40.3877C177.418 40.2283 177.342 39.8774 177.051 39.6104C176.698 39.2863 176.254 39.2934 175.88 39.2988C175.543 39.3042 175.005 39.313 174.576 39.7158C174.283 39.9926 174.175 40.325 174.134 40.4951C174.129 42.4065 174.126 44.318 174.122 46.2305H171.716V37.6338C172.484 37.6359 173.252 37.6394 174.021 37.6416C174.021 38.028 174.02 38.4154 174.019 38.8018C174.235 38.5745 174.604 38.2435 175.142 37.9883C175.296 37.915 176.037 37.5768 177.07 37.6328ZM145.862 39.1855C144.88 39.204 144.303 39.9551 144.185 40.1191C143.732 40.7458 143.758 41.4138 143.778 41.9414C143.8 42.4949 143.83 43.2919 144.447 43.9004C145.022 44.4664 145.744 44.514 145.862 44.5205H145.861C146.033 44.5291 146.643 44.5519 147.172 44.1631C147.999 43.5557 147.99 42.4137 147.984 41.8096C147.98 41.2151 147.974 40.4695 147.411 39.8643C147.311 39.7563 146.744 39.1694 145.862 39.1855ZM186.492 39.4062C186.364 39.349 185.888 39.1463 185.31 39.2754C184.318 39.4972 183.597 40.5654 183.597 41.6133C183.598 42.6751 184.341 43.937 185.542 44.0264H185.541C186.745 44.1154 187.68 42.9751 187.821 41.8994C187.955 40.8828 187.395 39.8069 186.492 39.4062ZM118.289 39.4658C117.562 38.8693 116.454 39.0062 115.805 39.6025C115.169 40.1868 115.178 41.0238 115.183 41.166H118.93V41.165C118.94 41.0738 119.027 40.0704 118.289 39.4658ZM168.487 33.7236C169.238 33.7001 169.982 34.2979 169.98 35.0947L169.973 35.2363C169.893 35.9402 169.231 36.4669 168.535 36.4648C167.771 36.4625 167.065 35.821 167.097 35.0371C167.126 34.3016 167.791 33.7462 168.487 33.7236ZM104.939 29.832C104.749 31.3839 104.107 32.3314 103.746 32.7783C102.318 34.5463 100.122 34.8641 98.7246 35.0654C97.4816 35.2452 96.4311 35.1794 95.7148 35.0879V32.5381C96.7931 32.6801 97.6811 32.6227 98.293 32.542C99.5211 32.3794 100.742 32.2189 101.593 31.2607C102.131 30.6544 102.319 29.9583 102.395 29.5146V10.8867H104.939V29.832ZM176.632 10.5557C184.414 10.1378 186.066 14.7504 185.711 21.7139L185.71 21.7148H170.765C170.257 27.2275 173.525 29.7937 178.835 29.3145C181.043 29.1141 182.542 28.0713 184.433 27.1279L185.376 29.3311C178.758 33.4199 169.031 32.95 168.209 23.4766C167.631 16.8158 168.974 10.9661 176.632 10.5557ZM124.032 24.751C124.046 25.4356 124.026 28.2745 121.952 30.1738C120.11 31.8603 117.504 31.7658 115.515 31.7012C113.292 31.629 110.897 31.5512 109.087 29.71C107.245 27.835 107.164 25.3071 107.171 24.5264L107.21 10.8867C107.233 10.8876 108.98 10.953 109.709 10.8867V25.0566C109.765 25.6384 109.996 27.2038 111.241 28.2979C112.44 29.3509 113.875 29.3516 115.671 29.3516C117.305 29.3516 118.977 29.3508 120.176 28.2266C121.115 27.3456 121.476 26.173 121.476 25.375V10.8867L124.051 10.873C124.051 10.873 124.039 20.1589 124.032 24.751ZM134.463 10.7002C137.186 10.7013 139.678 10.7036 141.411 12.5742C143.154 14.4574 143.048 17.0655 142.972 17.9404C143.014 22.3816 143.057 26.8233 143.099 31.2656H140.236V16.1406C140.113 15.6378 139.857 14.9269 139.276 14.3066C138.076 13.024 136.324 13.0192 134.304 13.0127C132.357 13.0073 130.95 13.0031 129.875 14.0508C129.174 14.7336 128.903 15.5816 128.788 16.1416V31.2656H126.245V17.3057H126.244C126.231 16.5217 126.292 14.0577 128.058 12.3281C129.722 10.6978 131.901 10.6991 134.463 10.7002ZM147.868 31.2656H145.324V10.8867H147.868V31.2656ZM160.43 10.8867C160.862 10.8749 163.34 10.8503 165.214 12.7832H165.213C166.937 14.5623 166.941 16.7878 166.943 17.7334C166.946 18.6262 166.95 20.8046 165.299 22.5986C163.842 24.1815 161.98 24.5015 161.383 24.5791H152.956V31.2656H150.412V10.8867H160.43ZM197.795 13.1172C196.364 13.1258 194.932 13.1359 193.502 13.1445C193.089 13.2382 191.902 13.5645 190.955 14.6758C189.761 16.0755 189.822 17.6992 189.844 18.0518V31.2656H187.617V17.2139H187.618C187.584 16.8426 187.406 14.4577 189.216 12.5078C190.97 10.6181 193.261 10.5685 193.645 10.5674H197.795V13.1172ZM54.0771 22.498C53.8951 18.0325 49.8327 18.4916 46.4277 18.5293V27.4434C50.4222 27.6071 54.2815 27.5284 54.0771 22.498ZM152.956 22.0312H161.064C161.471 21.9752 162.45 21.7824 163.271 20.9824C164.444 19.84 164.424 18.3023 164.418 17.7324C164.41 17.1466 164.394 15.746 163.299 14.626C162.19 13.4924 160.752 13.4389 160.429 13.4346H152.956V22.0312ZM177.647 12.875C176.125 12.8179 175.002 13.2004 174.64 13.334V13.333C174.114 13.5279 173.132 13.8894 172.314 14.7119C170.683 16.3553 170.804 18.735 170.845 19.2734C174.876 19.3445 178.907 19.4144 182.938 19.4844C182.932 18.6164 182.927 17.7469 182.922 16.8789C182.785 15.4558 182.158 14.6472 181.87 14.3271C180.667 12.9885 178.882 12.9213 177.647 12.875Z" fill="#0F1315"/>
</svg>
