<svg width="109" height="60" viewBox="0 0 109 60" fill="none" xmlns="http://www.w3.org/2000/svg">
<path d="M48.3184 3.05273C77.0879 -0.847114 102.165 8.05355 104.331 22.9346H104.333C106.497 37.8159 84.9302 53.0426 56.1621 56.9443C27.3923 60.8459 2.31524 51.9437 0.149414 37.0625C-2.01642 22.1812 19.5502 6.95443 48.3184 3.05273ZM63.626 3.91895C62.4478 3.91572 61.2565 3.93527 60.0537 3.97852C58.0494 4.05046 56.0135 4.18856 53.9541 4.39453C52.7184 4.51812 51.4962 4.66445 50.2891 4.83203C49.4844 4.94374 48.6863 5.06481 47.8955 5.19531C46.3135 5.45639 44.7601 5.75424 43.2393 6.08691C42.479 6.25321 41.7269 6.42805 40.9834 6.61133C35.7784 7.89439 30.9945 9.58651 26.7939 11.584C26.1938 11.8694 25.6052 12.1604 25.0293 12.458C21.8624 14.0944 19.0698 15.9102 16.7305 17.8555C12.0861 21.7174 9.22945 26.0897 8.77344 30.5791C8.6864 31.4351 8.68548 32.2954 8.77734 33.1572C10.1876 46.4034 32.7042 55.0045 59.0674 52.3682C81.9189 50.0827 100.157 40.102 103.69 28.8555C103.775 28.5872 103.851 28.3185 103.919 28.0488C103.951 27.9202 103.98 27.791 104.008 27.6621C104.124 27.1349 104.21 26.6063 104.26 26.0752C104.323 25.3931 104.331 24.7084 104.281 24.0225C104.271 23.8836 104.259 23.7445 104.244 23.6055C103.098 12.8535 88.0508 5.16278 68.3291 4.05664C66.7885 3.97016 65.2193 3.92339 63.626 3.91895Z" fill="#0F1315"/>
<path d="M19.6846 27.6289H18.6572L18.6357 27.2988C18.5278 25.6198 17.51 23.9261 15.4844 23.9258C14.621 23.9258 13.6603 24.6052 13.6602 25.5801C13.6602 26.6081 15.0225 27.3392 16.4629 28.1143C18.3631 29.1351 20.5184 30.2943 20.5186 32.5801C20.5186 34.8661 18.6635 36.659 16.2041 36.6592L16.208 36.6572C15.2032 36.6572 14.5161 36.4306 14.0879 36.2607C14.0066 36.2325 13.9143 36.1988 13.8242 36.167C13.4652 36.0379 13.1798 35.9356 12.8721 35.9355C12.7661 35.9355 12.6951 35.9358 12.6562 36.3369L12.625 36.6572H11.6094V31.5225H12.626L12.6562 31.8438C12.9394 34.9456 15.3001 35.1885 16.0186 35.1885C17.0872 35.1883 18.165 34.6467 18.165 33.4365C18.1648 32.2264 16.7934 31.4918 15.3408 30.6797C13.5396 29.6711 11.4962 28.5282 11.4961 26.2617C11.4962 24.1633 13.3199 22.4572 15.5635 22.457C16.1773 22.4571 16.781 22.5884 17.4072 22.8555C17.5416 22.905 17.6823 22.9636 17.8096 23.0166C18.0249 23.1049 18.2475 23.198 18.3467 23.1982C18.4721 23.1982 18.556 23.1981 18.6426 22.7441L18.6973 22.457H19.6846V27.6289ZM36.1035 25.2959C38.8088 25.296 40.0194 26.9233 40.0195 28.5352C40.0194 29.7207 39.2864 31.7275 36.5439 31.7275C36.0894 31.7275 35.6429 31.6601 35.2148 31.5752V33.9922C35.2148 34.5565 35.2153 34.9641 35.332 35.1357C35.3976 35.2312 35.5644 35.3407 36.2852 35.3408H36.6396V36.332H31.6562V35.3428H32.0107C32.7305 35.3428 32.8998 35.233 32.9639 35.1377C33.0806 34.9661 33.0811 34.5585 33.0811 33.9941V27.6299C33.0811 27.0654 33.0807 26.6582 32.9639 26.4883C32.8983 26.3928 32.7321 26.2842 32.0107 26.2842H31.9258V26.2871H31.5723C30.8505 26.2871 30.6837 26.3965 30.6182 26.4902C30.5015 26.6619 30.501 27.0693 30.501 27.6318V32.2344C30.5007 35.0258 29.0021 36.5632 26.2832 36.5635V36.5654C23.4329 36.5654 21.9886 35.1234 21.9883 32.2822V27.6338C21.9883 27.0703 21.9883 26.6626 21.8721 26.4922C21.8066 26.3967 21.6394 26.2881 20.918 26.2881H20.5645V25.2998H25.5469V26.2881H25.1934C24.4696 26.2881 24.3028 26.3984 24.2373 26.4922C24.1207 26.664 24.1211 27.0714 24.1211 27.6338V31.751C24.1211 32.335 24.1812 33.4426 24.3457 33.9326C24.6591 34.8576 25.5916 35.1875 26.3594 35.1875C27.1272 35.1873 28.1798 34.8966 28.7158 34.083C29.1421 33.4249 29.1426 32.2483 29.1426 31.4697V27.6318C29.1426 27.068 29.1418 26.6604 29.0254 26.4902C28.9599 26.3948 28.7931 26.2872 28.0723 26.2871H27.7178V25.2979H31.6562V25.2959H36.1035ZM87.7695 29.2803H86.8916L86.8213 29.0166C86.3365 27.1997 85.3485 26.3166 83.7988 26.3164C81.7976 26.3164 80.6505 28.024 80.6504 31C80.6504 34.8822 83.2465 35.1846 84.041 35.1846C85.4934 35.1844 86.2369 34.4894 87.0967 33.2051L87.2969 32.9072L88.0791 33.4453L87.9316 33.7246C86.9072 35.662 85.4881 36.5633 83.4658 36.5635L83.4678 36.5654C80.4437 36.5654 78.25 34.2327 78.25 31.0176C78.2502 27.6328 80.6102 25.0791 83.7402 25.0791C84.5363 25.0792 85.2234 25.2543 86.0371 25.6611L86.0693 25.6797C86.1367 25.7151 86.2634 25.7801 86.3164 25.7803C86.3925 25.7795 86.5144 25.5917 86.5586 25.3516L86.6123 25.0615H87.4951L87.7695 29.2803ZM66.2783 32.8633L69.6426 25.2959H78.0029V26.2852H77.6494C76.9263 26.2852 76.7599 26.3946 76.6943 26.4883C76.5777 26.66 76.5771 27.0674 76.5771 27.6299V33.9941C76.5771 34.5585 76.5776 34.9661 76.6943 35.1377C76.76 35.2331 76.9269 35.3428 77.6494 35.3428H78.0029V36.332H68.0781V35.3428H68.4326C69.1531 35.3427 69.322 35.2331 69.3877 35.1377C69.5045 34.9661 69.5049 34.5585 69.5049 33.9941V28.9355L66.2236 36.3301H65.5215L62.2246 28.9307V33.9941C62.2246 34.5585 62.225 34.9661 62.3418 35.1377C62.4073 35.2332 62.5747 35.3427 63.2959 35.3428H63.6494V36.332H56.8066L53.3965 31.5117H52.9033V33.9961C52.9033 34.5603 52.9028 34.9681 53.0195 35.1396C53.0852 35.2351 53.2531 35.3447 53.9756 35.3447H54.3291V36.334H49.3467V35.3447H49.7002C50.4214 35.3447 50.5905 35.2351 50.6543 35.1396C50.771 34.968 50.7705 34.5603 50.7705 33.9961V27.6318C50.7705 27.068 50.7707 26.6604 50.6543 26.4902C50.5888 26.3947 50.4219 26.2871 49.7002 26.2871H49.3467V25.2979H54.0498C56.884 25.298 57.8896 26.9344 57.8896 28.334C57.8895 29.7333 57.0539 30.7034 55.6279 31.167L57.2949 33.5615C58.0028 34.5722 58.4726 35.2425 59.6846 35.3428H59.7939C60.5142 35.3427 60.6831 35.2331 60.7471 35.1377C60.8638 34.9661 60.8643 34.5585 60.8643 33.9941V27.6152C60.8642 26.4212 60.7544 26.2852 59.7939 26.2852H59.4395V25.2959H62.8721L66.2783 32.8633ZM92.7891 25.2959C96.4423 25.2961 96.6279 27.8257 96.6279 28.332C96.6278 29.6696 95.7932 30.7014 94.3672 31.165L96.0342 33.5596C96.7453 34.5749 97.2163 35.2471 98.4385 35.3428L98.7637 35.3691V36.3301L98.7656 36.332H95.5459L92.1357 31.5117H91.6416V33.9961C91.6416 34.5604 91.642 34.968 91.7588 35.1396C91.8244 35.2351 91.9919 35.3427 92.7129 35.3428H93.0664V36.332H88.085V35.3428H88.4395C89.1596 35.3428 89.3286 35.2331 89.3926 35.1377C89.5093 34.9661 89.5098 34.5585 89.5098 33.9941V27.6299C89.5098 27.0654 89.5094 26.6582 89.3926 26.4883C89.327 26.3928 89.1606 26.2852 88.4395 26.2852H88.085V25.2959H92.7891ZM48.6504 28.2646H47.6768L47.624 27.9736C47.3746 26.6031 47.1509 26.5635 45.8506 26.5635H43.6426V29.9414H45.3047C46.3784 29.9414 46.6347 29.8973 46.709 28.7598L46.7305 28.4287H47.6895V32.7412H46.7373L46.709 32.4189C46.6099 31.2959 46.4225 31.2119 45.3047 31.2119H43.6426V34.6328C43.6426 35.0501 43.6435 35.0586 44.1084 35.0586H46.1699C47.3127 35.0585 47.7071 34.5509 48.4678 33.21L48.5703 33.0312H49.5547L48.4736 36.3291L48.4697 36.3311H40.084V35.3418H40.4385C41.162 35.3418 41.3281 35.2323 41.3936 35.1367C41.5102 34.9651 41.5107 34.5583 41.5107 33.9941V27.6289C41.5107 27.0647 41.5103 26.6571 41.3936 26.4873C41.3277 26.3919 41.1601 26.2842 40.4385 26.2842H40.084V25.2949H48.4717L48.6504 28.2646ZM72.707 26.2852C71.9861 26.2852 71.8195 26.3946 71.7539 26.4883C71.6373 26.6601 71.6367 27.0677 71.6367 27.6318V33.9961C71.6367 34.5604 71.6371 34.968 71.7539 35.1396C71.8196 35.2351 71.9866 35.3427 72.707 35.3428H73.374C74.0953 35.3428 74.2643 35.2332 74.3281 35.1377C74.4449 34.9661 74.4453 34.5585 74.4453 33.9941V27.6299C74.4453 27.0656 74.4448 26.6583 74.3281 26.4883C74.2626 26.3927 74.0959 26.2852 73.374 26.2852H72.707ZM35.8926 26.6299C35.6628 26.6299 35.4358 26.6511 35.2148 26.6953V30.3965C35.5704 30.4549 35.971 30.4902 36.3018 30.4902C37.0872 30.4901 37.6141 29.521 37.6143 28.6152C37.6143 27.6261 37.0817 26.6299 35.8926 26.6299ZM92.5322 26.5684C92.2369 26.5684 91.946 26.6085 91.6436 26.6562V30.3047C92.6167 30.3011 94.2235 30.0446 94.2236 28.3975C94.2236 27.32 93.5283 26.5685 92.5322 26.5684ZM53.793 26.5664C53.4976 26.5664 53.2068 26.6075 52.9043 26.6553L52.9033 26.6562V30.3037C53.8764 30.3001 55.4838 30.0444 55.4844 28.3965C55.4844 27.319 54.789 26.5666 53.793 26.5664Z" fill="#0F1315"/>
<path d="M108.709 30.7628C108.709 33.6665 106.421 36.0217 103.599 36.0217C100.776 36.0217 98.4883 33.6665 98.4883 30.7628C98.4883 27.8591 100.776 25.5039 103.599 25.5039C106.421 25.5039 108.709 27.8573 108.709 30.7628Z" fill="#0F1315"/>
<path d="M105.748 12.8523C105.748 13.8397 104.973 14.6165 103.962 14.6165C102.952 14.6165 102.168 13.8414 102.168 12.8523C102.168 11.8632 102.964 11.1094 103.962 11.1094C104.96 11.1094 105.748 11.8844 105.748 12.8523ZM102.614 12.8523C102.614 13.6273 103.187 14.2431 103.973 14.2431C104.758 14.2431 105.3 13.6273 105.3 12.8629C105.3 12.0985 104.737 11.4615 103.962 11.4615C103.187 11.4615 102.614 12.0879 102.614 12.8523ZM103.686 13.7654H103.283V12.0224C103.442 11.9906 103.665 11.9693 103.952 11.9693C104.281 11.9693 104.429 12.0224 104.557 12.0967C104.652 12.1711 104.727 12.3091 104.727 12.4789C104.727 12.6701 104.578 12.8187 104.366 12.8824V12.9036C104.536 12.9673 104.631 13.0947 104.684 13.3283C104.737 13.5937 104.769 13.6999 104.812 13.7636H104.376C104.323 13.6999 104.291 13.5406 104.238 13.3389C104.206 13.1478 104.1 13.0629 103.877 13.0629H103.686V13.7636V13.7654ZM103.697 12.778H103.888C104.111 12.778 104.291 12.7037 104.291 12.5232C104.291 12.3639 104.175 12.2578 103.92 12.2578C103.814 12.2578 103.739 12.2684 103.697 12.279V12.778Z" fill="#0F1315"/>
</svg>
