<svg width="88" height="88" viewBox="0 0 88 88" fill="none" xmlns="http://www.w3.org/2000/svg">
<path d="M20.1982 34.3154C21.7459 32.7793 24.2441 32.7835 25.7861 34.3252C27.3322 35.8713 27.3322 38.3787 25.7861 39.9248L12.543 53.168C11.0335 54.6774 9.89344 56.3964 9.13281 58.3203C8.37853 60.2283 8 62.2069 8 64.25C8 68.5973 9.54203 72.3311 12.6055 75.3945C15.6689 78.458 19.4027 80 23.75 80C25.7931 80 27.79 79.6217 29.7354 78.8701C31.7013 78.1106 33.4438 76.9703 34.957 75.457L34.96 75.4541L48.0352 62.2803C49.603 60.7006 52.1567 60.6957 53.7305 62.2695C55.3043 63.8433 55.2994 66.397 53.7197 67.9648L40.5459 81.04L40.543 81.043C38.3005 83.2854 35.7428 85.0032 32.8652 86.2021C29.9903 87.4 26.9547 88 23.75 88C17.182 88 11.6029 85.6888 6.95703 81.043C2.31117 76.3971 0 70.818 0 64.25C1.19063e-07 61.0453 0.600003 58.0097 1.79785 55.1348C2.99631 52.2585 4.71311 49.7017 6.9541 47.46L20.1982 34.3154ZM51.5195 30.7695C53.0965 29.1925 55.6535 29.1925 57.2305 30.7695C58.8075 32.3465 58.8075 34.9035 57.2305 36.4805L36.4805 57.2305C34.9035 58.8075 32.3465 58.8075 30.7695 57.2305C29.1925 55.6535 29.1925 53.0965 30.7695 51.5195L51.5195 30.7695ZM64.25 0C70.8178 0 76.3745 2.31104 80.9775 6.9541C85.5801 11.5967 87.875 17.2173 87.875 23.875C87.875 26.9975 87.2949 29.9954 86.1348 32.876C84.9778 35.7485 83.2831 38.3028 81.043 40.543L67.8486 53.7373C66.2827 55.3028 63.7403 55.2914 62.1885 53.7119C60.6519 52.1477 60.6684 49.6354 62.2246 48.0908L75.4541 34.96L75.457 34.957C76.9662 33.4478 78.0893 31.7471 78.8096 29.8564C79.5206 27.9901 79.875 26.0354 79.875 24C79.875 19.5803 78.3614 15.7861 75.3418 12.6777C72.3151 9.56223 68.5542 8 64.125 8C62.0819 8 60.1033 8.37853 58.1953 9.13281C56.2714 9.89344 54.5524 11.0335 53.043 12.543L53.04 12.5459L39.9092 25.7754C38.3646 27.3316 35.8523 27.3481 34.2881 25.8115C32.7086 24.2597 32.6972 21.7173 34.2627 20.1514L47.457 6.95703C49.6995 4.71461 52.2572 2.99683 55.1348 1.79785C58.0097 0.600003 61.0453 1.19065e-07 64.25 0Z" fill="currentColor"/>
</svg>