<svg width="40" height="40" viewBox="0 0 40 40" fill="none" xmlns="http://www.w3.org/2000/svg">
<path d="M4.16651 15.2494V11.291C4.1652 10.355 4.3486 9.42789 4.7062 8.56285C5.0638 7.69782 5.58857 6.91184 6.25045 6.24996C6.91233 5.58809 7.69831 5.06331 8.56334 4.70571C9.42838 4.34811 10.3555 4.16471 11.2915 4.16602H15.2498M24.7498 4.16602H28.7082C29.6442 4.16471 30.5713 4.34811 31.4363 4.70571C32.3014 5.06331 33.0874 5.58809 33.7492 6.24996C34.4111 6.91184 34.9359 7.69782 35.2935 8.56285C35.6511 9.42789 35.8345 10.355 35.8332 11.291V15.2494M35.8332 26.3327V28.7077C35.8345 29.6437 35.6511 30.5708 35.2935 31.4359C34.9359 32.3009 34.4111 33.0869 33.7492 33.7487C33.0874 34.4106 32.3014 34.9354 31.4363 35.293C30.5713 35.6506 29.6442 35.834 28.7082 35.8327H26.3332M15.2498 35.8327H11.2915C10.3555 35.834 9.42838 35.6506 8.56334 35.293C7.69831 34.9354 6.91233 34.4106 6.25045 33.7487C5.58857 33.0869 5.0638 32.3009 4.7062 31.4359C4.3486 30.5708 4.1652 29.6437 4.16651 28.7077V24.7494" stroke="#292D32" stroke-width="1.35714" stroke-linecap="round" stroke-linejoin="round"/>
<g opacity="0.4">
<path d="M31.0832 19.9993H8.9165M27.9165 16.041V23.9577C27.9165 27.1243 26.3332 28.7077 23.1665 28.7077H16.8332C13.6665 28.7077 12.0832 27.1243 12.0832 23.9577V16.041C12.0832 12.8743 13.6665 11.291 16.8332 11.291H23.1665C26.3332 11.291 27.9165 12.8743 27.9165 16.041Z" stroke="#292D32" stroke-width="1.35714" stroke-linecap="round" stroke-linejoin="round"/>
</g>
</svg>
