<svg width="40" height="40" viewBox="0 0 40 40" fill="none" xmlns="http://www.w3.org/2000/svg">
<g clip-path="url(#clip0_559_104017)">
<mask id="mask0_559_104017" style="mask-type:luminance" maskUnits="userSpaceOnUse" x="2" y="2" width="36" height="36">
<path d="M38 2H2V38H38V2Z" fill="white"/>
</mask>
<g mask="url(#mask0_559_104017)">
<path fill-rule="evenodd" clip-rule="evenodd" d="M23.7387 5.61315C21.6801 3.57025 18.321 3.57332 16.282 5.61236L5.63377 16.2605L5.6329 16.2614C3.58978 18.32 3.59278 21.6792 5.63189 23.7183L16.2801 34.3665L16.2809 34.3673C18.3395 36.4105 21.6988 36.4075 23.7379 34.3684L34.388 23.7183C36.4271 21.6792 36.4301 18.3199 34.3869 16.2613L34.3861 16.2605L23.7398 5.61424L23.7387 5.61315ZM15.2213 4.5517C17.8486 1.92444 22.1553 1.92714 24.7967 4.54981L24.7986 4.55169L35.4505 15.2036C38.0732 17.845 38.0759 22.1517 35.4486 24.779L24.7986 35.429C22.1713 38.0563 17.8646 38.0536 15.2232 35.4309L15.2213 35.429L4.57123 24.779C1.94397 22.1517 1.94667 17.845 4.56935 15.2036L4.57123 15.2017L15.2213 4.5517Z" fill="black"/>
<g opacity="0.4">
<path fill-rule="evenodd" clip-rule="evenodd" d="M9.88374 9.88569C10.1766 9.59279 10.6515 9.59279 10.9444 9.88569L30.111 29.0524C30.4039 29.3452 30.4039 29.8201 30.111 30.113C29.8181 30.4059 29.3432 30.4059 29.0504 30.113L9.88374 10.9464C9.59084 10.6535 9.59084 10.1786 9.88374 9.88569Z" fill="black"/>
<path fill-rule="evenodd" clip-rule="evenodd" d="M30.111 9.88569C30.4039 10.1786 30.4039 10.6535 30.111 10.9464L10.9444 30.113C10.6515 30.4059 10.1766 30.4059 9.88374 30.113C9.59084 29.8201 9.59084 29.3452 9.88374 29.0524L29.0504 9.88569C29.3432 9.59279 29.8181 9.59279 30.111 9.88569Z" fill="black"/>
</g>
</g>
</g>
<defs>
<clipPath id="clip0_559_104017">
<rect width="36" height="36" fill="white" transform="translate(2 2)"/>
</clipPath>
</defs>
</svg>
