<svg width="35" height="35" viewBox="0 0 35 35" fill="none" xmlns="http://www.w3.org/2000/svg">
<path opacity="0.4" d="M15.5313 27.8688V7.13125C15.5313 5.1625 14.7 4.375 12.6 4.375H7.30625C5.20625 4.375 4.375 5.1625 4.375 7.13125V27.8688C4.375 29.8375 5.20625 30.625 7.30625 30.625H12.6C14.7 30.625 15.5313 29.8375 15.5313 27.8688Z" stroke="#292D32" stroke-width="1.25" stroke-linecap="round" stroke-linejoin="round"/>
<path d="M30.625 27.8688V7.13125C30.625 5.1625 29.7937 4.375 27.6937 4.375H22.4C20.3146 4.375 19.4688 5.1625 19.4688 7.13125V27.8688C19.4688 29.8375 20.3 30.625 22.4 30.625H27.6937C29.7937 30.625 30.625 29.8375 30.625 27.8688Z" stroke="#292D32" stroke-width="1.25" stroke-linecap="round" stroke-linejoin="round"/>
</svg>
