<svg width="36" height="36" viewBox="0 0 36 36" fill="none" xmlns="http://www.w3.org/2000/svg">
<path d="M28.5 18C28.5 13.035 24.465 9 19.5 9H12C7.035 9 3 13.035 3 18C3 22.965 7.035 27 12 27H19.5C24.465 27 28.5 22.965 28.5 18Z" stroke="#292D32" stroke-width="1.28571" stroke-linecap="round" stroke-linejoin="round"/>
<path opacity="0.4" d="M16.5 31.5H19.5C26.955 31.5 33 25.455 33 18C33 10.545 26.955 4.5 19.5 4.5H16.5" stroke="#292D32" stroke-width="1.28571" stroke-linecap="round" stroke-linejoin="round"/>
<path opacity="0.4" d="M11.2195 22.3359C10.2445 19.6659 10.2445 16.7559 11.2195 14.0859" stroke="#292D32" stroke-width="1.28571" stroke-linecap="round" stroke-linejoin="round"/>
<path opacity="0.4" d="M15.7189 20.9542C15.2239 19.1542 15.2239 17.2492 15.7189 15.4492" stroke="#292D32" stroke-width="1.28571" stroke-linecap="round" stroke-linejoin="round"/>
</svg>
