<svg xmlns="http://www.w3.org/2000/svg" xmlns:xlink="http://www.w3.org/1999/xlink" id="Layer_1" x="0px" y="0px" viewBox="0 0 957.59 142.27" style="enable-background:new 0 0 957.59 142.27;" xml:space="preserve"><g>	<g>		<g>			<path d="M47.65,22.99c-8.1,0-14.38,3.05-18.82,9.14c-4.45,6.09-6.67,14.58-6.67,25.46c0,22.65,8.5,33.97,25.49,33.97    c7.13,0,15.77-1.78,25.91-5.35v18.06c-8.34,3.47-17.65,5.21-27.93,5.21c-14.77,0-26.07-4.48-33.9-13.44    C3.91,87.08,0,74.22,0,57.45C0,46.89,1.92,37.64,5.76,29.7c3.85-7.94,9.37-14.03,16.57-18.27c7.2-4.24,15.64-6.36,25.32-6.36    c9.87,0,19.78,2.39,29.73,7.16l-6.95,17.51c-3.8-1.81-7.62-3.38-11.46-4.72C55.13,23.67,51.36,22.99,47.65,22.99z"></path>		</g>		<g>			<path d="M114.69,108.09H93.5V0h21.19V108.09z"></path>		</g>		<g>			<path d="M172.07,109.48c-12.5,0-22.28-3.45-29.31-10.35c-7.04-6.9-10.56-16.67-10.56-29.32c0-13.01,3.25-23.07,9.76-30.18    c6.51-7.11,15.5-10.66,26.99-10.66c10.98,0,19.52,3.13,25.63,9.38c6.11,6.25,9.17,14.89,9.17,25.91v10.28h-50.08    c0.23,6.02,2.01,10.72,5.35,14.1c3.34,3.38,8.01,5.07,14.03,5.07c4.68,0,9.1-0.49,13.27-1.46c4.17-0.97,8.52-2.52,13.06-4.65    v16.39c-3.71,1.85-7.67,3.23-11.88,4.13C183.28,109.03,178.14,109.48,172.07,109.48z M169.08,44.04c-4.49,0-8.01,1.42-10.56,4.27    c-2.55,2.85-4.01,6.89-4.38,12.12h29.73c-0.09-5.23-1.46-9.27-4.1-12.12C177.14,45.47,173.57,44.04,169.08,44.04z"></path>		</g>		<g>			<path d="M270.3,108.09l-4.1-10.56h-0.56c-3.57,4.49-7.24,7.61-11.01,9.34c-3.77,1.74-8.69,2.61-14.76,2.61    c-7.46,0-13.33-2.13-17.61-6.39c-4.28-4.26-6.43-10.33-6.43-18.2c0-8.24,2.89-14.32,8.65-18.23c5.77-3.91,14.46-6.08,26.08-6.5    l13.48-0.42v-3.4c0-7.87-4.03-11.81-12.09-11.81c-6.21,0-13.5,1.88-21.88,5.63l-7.01-14.31c8.94-4.68,18.85-7.02,29.73-7.02    c10.42,0,18.41,2.27,23.97,6.81s8.34,11.44,8.34,20.7v51.75H270.3z M264.05,72.11l-8.2,0.28c-6.16,0.18-10.74,1.3-13.75,3.33    c-3.01,2.04-4.52,5.14-4.52,9.31c0,5.98,3.43,8.96,10.28,8.96c4.91,0,8.83-1.41,11.77-4.24c2.94-2.82,4.41-6.58,4.41-11.25V72.11    z"></path>		</g>		<g>			<path d="M378.6,108.09h-21.19V62.73c0-5.6-1-9.81-2.99-12.61c-1.99-2.8-5.17-4.2-9.52-4.2c-5.93,0-10.21,1.98-12.85,5.94    c-2.64,3.96-3.96,10.52-3.96,19.69v36.54h-21.19V30.43h16.19l2.85,9.93h1.18c2.36-3.75,5.61-6.59,9.76-8.51    c4.14-1.92,8.86-2.88,14.13-2.88c9.03,0,15.88,2.44,20.56,7.33c4.68,4.89,7.02,11.94,7.02,21.15V108.09z"></path>		</g>		<g>			<path d="M462.03,79.89c0,9.17-3.3,16.39-9.9,21.67c-6.6,5.28-15.78,7.92-27.54,7.92c-10.84,0-20.42-2.04-28.76-6.11V83.36    c6.85,3.06,12.66,5.21,17.4,6.46c4.75,1.25,9.09,1.88,13.03,1.88c4.72,0,8.35-0.9,10.87-2.71c2.52-1.81,3.79-4.49,3.79-8.06    c0-1.99-0.55-3.76-1.67-5.32c-1.11-1.55-2.74-3.04-4.9-4.48c-2.15-1.44-6.54-3.73-13.16-6.88c-6.21-2.92-10.86-5.72-13.96-8.41    c-3.1-2.69-5.58-5.81-7.43-9.38s-2.78-7.73-2.78-12.5c0-8.98,3.05-16.05,9.13-21.19c6.09-5.14,14.51-7.71,25.25-7.71    c5.28,0,10.31,0.63,15.11,1.88c4.79,1.25,9.8,3.01,15.04,5.28l-6.95,16.74c-5.42-2.22-9.9-3.78-13.44-4.65    c-3.54-0.88-7.03-1.32-10.45-1.32c-4.08,0-7.2,0.95-9.38,2.85c-2.18,1.9-3.26,4.38-3.26,7.43c0,1.9,0.44,3.55,1.32,4.97    c0.88,1.41,2.28,2.78,4.2,4.1c1.92,1.32,6.47,3.69,13.65,7.12c9.49,4.54,16,9.09,19.52,13.65    C460.27,67.67,462.03,73.27,462.03,79.89z"></path>		</g>		<g>			<path d="M521.42,109.48c-9.12,0-16.28-3.31-21.46-9.93h-1.11c0.74,6.48,1.11,10.23,1.11,11.25v31.47h-21.19V30.43H496l2.99,10.07    h0.97c4.96-7.69,12.3-11.53,22.02-11.53c9.17,0,16.35,3.54,21.54,10.63c5.18,7.09,7.78,16.93,7.78,29.52    c0,8.29-1.22,15.49-3.65,21.6c-2.43,6.11-5.89,10.77-10.38,13.96C532.77,107.88,527.49,109.48,521.42,109.48z M515.17,45.92    c-5.23,0-9.05,1.61-11.46,4.83s-3.66,8.53-3.75,15.94v2.29c0,8.33,1.24,14.31,3.72,17.92c2.48,3.61,6.4,5.42,11.77,5.42    c9.5,0,14.24-7.83,14.24-23.48c0-7.64-1.17-13.37-3.51-17.19C523.84,47.83,520.17,45.92,515.17,45.92z"></path>		</g>		<g>			<path d="M618.12,108.09l-4.1-10.56h-0.56c-3.57,4.49-7.24,7.61-11.01,9.34s-8.69,2.61-14.76,2.61c-7.46,0-13.33-2.13-17.61-6.39    c-4.28-4.26-6.43-10.33-6.43-18.2c0-8.24,2.89-14.32,8.65-18.23c5.77-3.91,14.46-6.08,26.08-6.5l13.48-0.42v-3.4    c0-7.87-4.03-11.81-12.09-11.81c-6.21,0-13.5,1.88-21.88,5.63l-7.01-14.31c8.94-4.68,18.85-7.02,29.73-7.02    c10.42,0,18.41,2.27,23.97,6.81s8.34,11.44,8.34,20.7v51.75H618.12z M611.87,72.11l-8.2,0.28c-6.16,0.18-10.74,1.3-13.75,3.33    c-3.01,2.04-4.52,5.14-4.52,9.31c0,5.98,3.43,8.96,10.28,8.96c4.91,0,8.83-1.41,11.77-4.24c2.94-2.82,4.41-6.58,4.41-11.25V72.11    z"></path>		</g>		<g>			<path d="M698.09,28.97c2.87,0,5.25,0.21,7.15,0.63l-1.6,19.87c-1.72-0.46-3.8-0.7-6.26-0.7c-6.76,0-12.03,1.74-15.8,5.21    c-3.77,3.47-5.66,8.34-5.66,14.59v39.53h-21.19V30.43h16.05l3.13,13.06h1.04c2.41-4.35,5.66-7.86,9.76-10.52    C688.81,30.3,693.27,28.97,698.09,28.97z"></path>		</g>		<g>			<path d="M739.7,65.86l9.24-11.81l21.74-23.62h23.9l-30.85,33.69l32.72,43.97H772l-22.37-31.47l-9.1,7.29v24.17h-21.19V0h21.19    v48.21l-1.11,17.65H739.7z"></path>		</g>	</g>	<g>		<g>			<path d="M915.77,41.82L892.91,0l-22.87,41.82l-41.82,22.87l41.82,22.87l22.87,41.82l22.87-41.82l41.82-22.87L915.77,41.82z     M892.86,97.19c-3.67-17.48-14.67-28.51-32.11-32.55c17.51-3.97,28.45-15.11,32.18-32.46c3.65,17.37,14.53,28.51,32.11,32.47    C907.68,68.71,896.62,79.64,892.86,97.19z"></path>		</g>	</g></g></svg>