<svg width="40" height="40" viewBox="0 0 40 40" fill="none" xmlns="http://www.w3.org/2000/svg">
<g clip-path="url(#clip0_562_18760)">
<mask id="mask0_562_18760" style="mask-type:luminance" maskUnits="userSpaceOnUse" x="3" y="3" width="35" height="35">
<path d="M38 3H3V38H38V3Z" fill="white"/>
</mask>
<g mask="url(#mask0_562_18760)">
<path fill-rule="evenodd" clip-rule="evenodd" d="M3.60027 23.0485C4.00613 22.9657 4.40225 23.2276 4.48502 23.6335C5.96498 30.89 12.3791 36.3334 20.0835 36.3334C27.754 36.3334 34.1538 30.9067 35.666 23.6797C35.7509 23.2743 36.1483 23.0144 36.5538 23.0992C36.9592 23.1841 37.2191 23.5815 37.1342 23.987C35.4798 31.8934 28.4797 37.8334 20.0835 37.8334C11.6545 37.8334 4.63532 31.8767 3.01528 23.9332C2.9325 23.5274 3.19441 23.1313 3.60027 23.0485Z" fill="black"/>
<path fill-rule="evenodd" clip-rule="evenodd" d="M3.01566 16.8983C4.65265 8.97453 11.6697 3 20.0835 3C28.5482 3 35.6018 9.02659 37.1695 17.0393C37.2491 17.4458 36.984 17.8398 36.5775 17.9194C36.171 17.9989 35.777 17.7338 35.6974 17.3273C34.2651 10.0067 27.8188 4.5 20.0835 4.5C12.3973 4.5 5.98098 9.95884 4.48464 17.2018C4.40084 17.6074 4.00406 17.8683 3.59841 17.7845C3.19276 17.7007 2.93186 17.3039 3.01566 16.8983Z" fill="black"/>
<path opacity="0.4" fill-rule="evenodd" clip-rule="evenodd" d="M20.0859 18.668C19.1194 18.668 18.3359 19.4515 18.3359 20.418C18.3359 21.3845 19.1194 22.168 20.0859 22.168C21.0524 22.168 21.8359 21.3845 21.8359 20.418C21.8359 19.4515 21.0524 18.668 20.0859 18.668ZM16.8359 20.418C16.8359 18.6231 18.291 17.168 20.0859 17.168C21.8808 17.168 23.3359 18.6231 23.3359 20.418C23.3359 22.2129 21.8808 23.668 20.0859 23.668C18.291 23.668 16.8359 22.2129 16.8359 20.418Z" fill="black"/>
</g>
</g>
<defs>
<clipPath id="clip0_562_18760">
<rect width="35" height="35" fill="white" transform="translate(3 3)"/>
</clipPath>
</defs>
</svg>
