<svg width="20" height="13" viewBox="0 0 20 13" fill="none" xmlns="http://www.w3.org/2000/svg">
<path d="M0 0V6.92408H19.3874V5.53926H10.4394V4.15445H19.3874V2.76963H10.4394V1.38482H19.3874V0H0ZM1.49134 0.692408C1.68911 0.692408 1.87877 0.76536 2.01861 0.895207C2.15845 1.02506 2.23701 1.20118 2.23701 1.38482C2.23701 1.56846 2.15845 1.74457 2.01861 1.87442C1.87877 2.00427 1.68911 2.07722 1.49134 2.07722C1.29358 2.07722 1.10392 2.00427 0.964078 1.87442C0.824233 1.74457 0.745671 1.56846 0.745671 1.38482C0.745671 1.20118 0.824233 1.02506 0.964078 0.895207C1.10392 0.76536 1.29358 0.692408 1.49134 0.692408ZM4.47403 0.692408C4.67179 0.692408 4.86145 0.76536 5.00129 0.895207C5.14114 1.02506 5.2197 1.20118 5.2197 1.38482C5.2197 1.56846 5.14114 1.74457 5.00129 1.87442C4.86145 2.00427 4.67179 2.07722 4.47403 2.07722C4.27626 2.07722 4.0866 2.00427 3.94676 1.87442C3.80692 1.74457 3.72836 1.56846 3.72836 1.38482C3.72836 1.20118 3.80692 1.02506 3.94676 0.895207C4.0866 0.76536 4.27626 0.692408 4.47403 0.692408ZM7.45671 0.692408C7.65447 0.692408 7.84413 0.76536 7.98398 0.895207C8.12382 1.02506 8.20238 1.20118 8.20238 1.38482C8.20238 1.56846 8.12382 1.74457 7.98398 1.87442C7.84413 2.00427 7.65447 2.07722 7.45671 2.07722C7.25895 2.07722 7.06928 2.00427 6.92944 1.87442C6.7896 1.74457 6.71104 1.56846 6.71104 1.38482C6.71104 1.20118 6.7896 1.02506 6.92944 0.895207C7.06928 0.76536 7.25895 0.692408 7.45671 0.692408ZM2.98268 2.76963C3.18045 2.76963 3.37011 2.84258 3.50995 2.97243C3.64979 3.10229 3.72836 3.2784 3.72836 3.46204C3.72836 3.64568 3.64979 3.82179 3.50995 3.95165C3.37011 4.0815 3.18045 4.15445 2.98268 4.15445C2.78492 4.15445 2.59526 4.0815 2.45542 3.95165C2.31557 3.82179 2.23701 3.64568 2.23701 3.46204C2.23701 3.2784 2.31557 3.10229 2.45542 2.97243C2.59526 2.84258 2.78492 2.76963 2.98268 2.76963ZM5.96537 2.76963C6.16313 2.76963 6.35279 2.84258 6.49264 2.97243C6.63248 3.10229 6.71104 3.2784 6.71104 3.46204C6.71104 3.64568 6.63248 3.82179 6.49264 3.95165C6.35279 4.0815 6.16313 4.15445 5.96537 4.15445C5.7676 4.15445 5.57794 4.0815 5.4381 3.95165C5.29826 3.82179 5.2197 3.64568 5.2197 3.46204C5.2197 3.2784 5.29826 3.10229 5.4381 2.97243C5.57794 2.84258 5.7676 2.76963 5.96537 2.76963ZM8.94805 2.76963C9.14578 2.76963 9.33544 2.84258 9.47529 2.97243C9.61515 3.10229 9.69376 3.2784 9.69376 3.46204C9.69376 3.64568 9.61515 3.82179 9.47529 3.95165C9.33544 4.0815 9.14578 4.15445 8.94805 4.15445C8.75029 4.15445 8.56063 4.0815 8.42079 3.95165C8.28094 3.82179 8.20238 3.64568 8.20238 3.46204C8.20238 3.2784 8.28094 3.10229 8.42079 2.97243C8.56063 2.84258 8.75029 2.76963 8.94805 2.76963ZM1.49134 4.84686C1.68911 4.84686 1.87877 4.91981 2.01861 5.04966C2.15845 5.17951 2.23701 5.35562 2.23701 5.53926C2.23701 5.7229 2.15845 5.89902 2.01861 6.02887C1.87877 6.15872 1.68911 6.23167 1.49134 6.23167C1.29358 6.23167 1.10392 6.15872 0.964078 6.02887C0.824233 5.89902 0.745671 5.7229 0.745671 5.53926C0.745671 5.35562 0.824233 5.17951 0.964078 5.04966C1.10392 4.91981 1.29358 4.84686 1.49134 4.84686ZM4.47403 4.84686C4.67179 4.84686 4.86145 4.91981 5.00129 5.04966C5.14114 5.17951 5.2197 5.35562 5.2197 5.53926C5.2197 5.7229 5.14114 5.89902 5.00129 6.02887C4.86145 6.15872 4.67179 6.23167 4.47403 6.23167C4.27626 6.23167 4.0866 6.15872 3.94676 6.02887C3.80692 5.89902 3.72836 5.7229 3.72836 5.53926C3.72836 5.35562 3.80692 5.17951 3.94676 5.04966C4.0866 4.91981 4.27626 4.84686 4.47403 4.84686ZM7.45671 4.84686C7.65447 4.84686 7.84413 4.91981 7.98398 5.04966C8.12382 5.17951 8.20238 5.35562 8.20238 5.53926C8.20238 5.7229 8.12382 5.89902 7.98398 6.02887C7.84413 6.15872 7.65447 6.23167 7.45671 6.23167C7.25895 6.23167 7.06928 6.15872 6.92944 6.02887C6.7896 5.89902 6.71104 5.7229 6.71104 5.53926C6.71104 5.35562 6.7896 5.17951 6.92944 5.04966C7.06928 4.91981 7.25895 4.84686 7.45671 4.84686ZM0 8.3089V9.69371H19.3874V8.3089H0ZM0 11.0785V12.4633H19.3874V11.0785H0Z" fill="black"/>
</svg>
