<svg width="18" height="18" viewBox="0 0 18 18" fill="none" xmlns="http://www.w3.org/2000/svg">
<path d="M8.81526 13.0774C6.52776 13.0774 4.24846 12.7577 2.05115 12.11C2.04295 12.4379 1.77239 12.7085 1.43623 12.7085C1.10008 12.7085 0.821314 12.4297 0.821314 12.0936V11.2737C0.821314 11.0769 0.919701 10.8883 1.07548 10.7735C1.23946 10.6588 1.44443 10.626 1.63301 10.6916C6.2654 12.233 11.3733 12.233 16.0057 10.6916C16.1943 10.626 16.3993 10.6588 16.5632 10.7735C16.7272 10.8883 16.8174 11.0769 16.8174 11.2737V12.0936C16.8174 12.4297 16.5386 12.7085 16.2025 12.7085C15.8663 12.7085 15.5958 12.4461 15.5876 12.11C13.3821 12.7577 11.1028 13.0774 8.81526 13.0774Z" fill="black"/>
<path fill-rule="evenodd" clip-rule="evenodd" d="M8.81348 0C13.6753 0 17.6277 3.95168 17.6279 8.81348C17.6279 13.6754 13.6754 17.6279 8.81348 17.6279C3.95168 17.6277 0 13.6753 0 8.81348C0.000196364 3.9518 3.9518 0.000196368 8.81348 0ZM11.668 5.95703C9.77515 5.72023 7.85386 5.72011 5.96094 5.95605C5.53995 9.31911 5.86542 12.7723 6.93848 16.0029C6.95739 16.0574 6.9668 16.1132 6.96973 16.1689C7.56031 16.3171 8.17764 16.3974 8.81348 16.3975C9.44986 16.3975 10.0681 16.3173 10.6592 16.1689C10.6617 16.1113 10.6709 16.0532 10.6914 15.9961C11.7642 12.7721 12.0884 9.32144 11.668 5.95703ZM12.9316 6.15039C13.2834 9.33447 12.9991 12.583 12.0801 15.6562C14.6312 14.4334 16.3975 11.826 16.3975 8.81348C16.3974 8.17624 16.3168 7.55759 16.168 6.96582C16.1106 6.96392 16.0534 6.95602 15.9961 6.93457C14.9938 6.60106 13.9688 6.33958 12.9316 6.15039ZM4.70117 6.14746C3.65915 6.33684 2.6299 6.59956 1.62305 6.93457C1.56851 6.95229 1.51326 6.95998 1.45898 6.96289C1.30977 7.55544 1.22952 8.17531 1.22949 8.81348C1.22949 11.7729 2.93549 14.3399 5.41406 15.5889C5.44845 15.5821 5.48416 15.5771 5.52051 15.5762C4.62607 12.5225 4.35255 9.30262 4.70117 6.14746ZM12.0879 1.97363C12.3709 2.92553 12.5943 3.89343 12.7559 4.87109C13.7338 5.03332 14.7019 5.25703 15.6533 5.54102C14.9057 3.98518 13.6436 2.72139 12.0879 1.97363ZM5.41797 2.03516C3.91912 2.78917 2.70163 4.02423 1.97363 5.53809C2.92758 5.25412 3.89807 5.03109 4.87793 4.86914C5.03491 3.91785 5.24895 2.97496 5.52051 2.04785C5.48545 2.047 5.45121 2.0415 5.41797 2.03516ZM8.81348 1.22949C8.17778 1.22952 7.56019 1.30894 6.96973 1.45703C6.96735 1.51508 6.95816 1.57324 6.93848 1.62988C6.60495 2.63224 6.34349 3.65662 6.1543 4.69336C7.92171 4.4978 9.7092 4.49834 11.4756 4.69434C11.2864 3.65536 11.0253 2.62835 10.6914 1.62305C10.6733 1.56859 10.6647 1.51299 10.6621 1.45801C10.0703 1.30922 9.45078 1.22949 8.81348 1.22949Z" fill="black"/>
</svg>
