<svg preserveAspectRatio="none" width="100%" height="100%" overflow="visible" style="display: block;" viewBox="0 0 199.461 36.1228" fill="none" xmlns="http://www.w3.org/2000/svg">
<g id="Frame">
<path id="Vector" d="M151.157 29.299H113.766V3.21166C113.766 2.35987 113.428 1.54297 112.825 0.940672C112.223 0.338372 111.405 0 110.553 0C109.701 0 108.884 0.338372 108.281 0.940672C107.678 1.54297 107.34 2.35987 107.34 3.21166V32.3647C107.376 33.2441 107.742 34.0779 108.365 34.7C108.988 35.3222 109.822 35.6872 110.702 35.7223H151.157C151.579 35.7223 151.997 35.6393 152.387 35.4778C152.777 35.3164 153.131 35.0799 153.429 34.7817C153.728 34.4834 153.965 34.1294 154.125 33.7398C154.288 33.35 154.371 32.9324 154.371 32.5107C154.371 32.089 154.288 31.6714 154.125 31.2816C153.965 30.892 153.728 30.5379 153.429 30.2397C153.131 29.9415 152.777 29.7048 152.387 29.5435C151.997 29.3821 151.579 29.299 151.157 29.299Z" fill="var(--fill-0, #F7EEEE)"/>
<path id="Vector_2" d="M197.145 1.57875C196.821 1.30579 196.446 1.09947 196.042 0.971649C195.64 0.843824 195.214 0.797018 194.793 0.833919C194.371 0.870819 193.96 0.990699 193.584 1.18667C193.209 1.38264 192.877 1.65083 192.605 1.97583L171.377 27.2487L150.152 1.96414C149.879 1.63871 149.546 1.37041 149.169 1.17472C148.792 0.97902 148.381 0.859812 147.958 0.82398C147.535 0.788147 147.109 0.836399 146.705 0.965945C146.301 1.09549 145.926 1.30376 145.603 1.57875C145.279 1.8499 145.01 2.18263 144.814 2.55778C144.617 2.93294 144.498 3.34314 144.462 3.76479C144.424 4.18643 144.471 4.61122 144.599 5.01472C144.727 5.41821 144.933 5.79245 145.207 6.11593L168.751 34.1624C169.085 34.5235 169.491 34.8116 169.941 35.0086C170.392 35.2056 170.879 35.3074 171.371 35.3074C171.864 35.3074 172.35 35.2056 172.801 35.0086C173.252 34.8116 173.658 34.5235 173.991 34.1624L197.536 6.11593C197.809 5.79281 198.016 5.41887 198.145 5.01558C198.272 4.61231 198.32 4.18764 198.284 3.76601C198.248 3.34438 198.128 2.93409 197.933 2.55872C197.737 2.18335 197.469 1.85032 197.145 1.57875Z" fill="var(--fill-0, #F7EEEE)"/>
<path id="Vector_3" d="M47.0483 18.2531C46.8701 8.86634 39.0355 1.43575 29.6849 1.43575H3.19576C2.36296 1.42633 1.56008 1.74583 0.961667 2.32481C0.363249 2.90378 0.0176562 3.69544 5.37623e-06 4.52768V32.5099C-0.00155303 33.3643 0.335746 34.1845 0.93802 34.7909C1.5403 35.3972 2.35845 35.7403 3.21329 35.7449H29.9624C32.2393 35.7381 34.4921 35.2778 36.5891 34.3912C38.686 33.5045 40.5853 32.2091 42.176 30.5808C43.7666 28.9524 45.0167 27.0236 45.8532 24.9069C46.6898 22.7904 47.0961 20.5284 47.0483 18.2531ZM29.9711 29.2632H6.44409V7.90867H29.7434C35.5302 7.90867 40.4289 12.4546 40.6012 18.2618C40.6458 19.6869 40.4041 21.1065 39.8904 22.4366C39.3767 23.7667 38.6015 24.9804 37.6105 26.0061C36.6195 27.0316 35.4329 27.8482 34.1208 28.4077C32.8086 28.9671 31.3977 29.258 29.9711 29.2632Z" fill="var(--fill-0, #F7EEEE)"/>
<path id="Vector_4" d="M95.9039 15.4434H55.5042C53.7263 15.4434 52.2852 16.8839 52.2852 18.6609C52.2852 20.4379 53.7263 21.8784 55.5042 21.8784H95.9039C97.6818 21.8784 99.1231 20.4379 99.1231 18.6609C99.1231 16.8839 97.6818 15.4434 95.9039 15.4434Z" fill="var(--fill-0, #F7EEEE)"/>
<path id="Vector_5" d="M95.9039 1.5498H55.5042C53.7263 1.5498 52.2852 2.99032 52.2852 4.76729C52.2852 6.54425 53.7263 7.98477 55.5042 7.98477H95.9039C97.6818 7.98477 99.1231 6.54425 99.1231 4.76729C99.1231 2.99032 97.6818 1.5498 95.9039 1.5498Z" fill="var(--fill-0, #F7EEEE)"/>
<path id="Vector_6" d="M95.9039 29.3359H55.5042C53.7263 29.3359 52.2852 30.7765 52.2852 32.5535C52.2852 34.3304 53.7263 35.771 55.5042 35.771H95.9039C97.6818 35.771 99.1231 34.3304 99.1231 32.5535C99.1231 30.7765 97.6818 29.3359 95.9039 29.3359Z" fill="var(--fill-0, #F7EEEE)"/>
</g>
</svg>
