<svg preserveAspectRatio="none" width="100%" height="100%" overflow="visible" style="display: block;" viewBox="0 0 31 31" fill="none" xmlns="http://www.w3.org/2000/svg">
<path id="Vector" fill-rule="evenodd" clip-rule="evenodd" d="M6.78125 3.39063C6.78125 5.26321 5.26321 6.78125 3.39063 6.78125C1.51804 6.78125 0 5.26321 0 3.39063C0 1.51804 1.51804 0 3.39063 0C5.26321 0 6.78125 1.51804 6.78125 3.39063ZM6.78125 31V8.71871H0V31H6.78125ZM23.25 8.71871C19.375 8.71871 18.2997 9.98778 17.4375 11.625V8.71871H10.6563V31H17.4375V18.4063C17.4375 16.4687 17.4375 14.5313 20.8281 14.5313C24.2187 14.5313 24.2187 16.4687 24.2187 18.4063V31H31V18.4063C31 12.5937 30.0313 8.71871 23.25 8.71871Z" fill="var(--fill-0, #F7EEEE)"/>
</svg>
