<svg width="214" height="27" viewBox="0 0 214 27" fill="none" xmlns="http://www.w3.org/2000/svg">
<g clip-path="url(#clip0_556_77016)">
<path d="M0 13.3094V0L12.0825 0.0936625C22.8255 0.187325 24.2773 0.252889 25.3919 0.590074C28.4078 1.56416 29.4756 3.03466 29.6535 6.46271C29.794 9.30068 29.3819 10.7899 28.0894 11.9513C27.593 12.4009 27.2089 12.813 27.2558 12.8318C27.2745 12.8505 27.7054 13.1034 28.1643 13.4031C29.588 14.2648 29.9345 15.3044 29.9345 19.0041C29.9345 21.9545 29.8877 22.2729 29.3725 23.3313C28.7356 24.577 27.7616 25.3919 26.085 26.0475C25.1577 26.4128 23.8839 26.4596 12.5508 26.5252L0.0187325 26.5908V13.3094H0ZM23.4624 22.1699C23.8746 21.9919 24.3241 21.6454 24.4553 21.4019C24.5958 21.1303 24.7082 19.8845 24.7082 18.5639C24.7082 16.3441 24.6894 16.1849 24.1181 15.6604L23.528 15.1171L14.3678 15.0516L5.20763 14.986V22.4884H13.937C20.9617 22.4884 22.8255 22.4228 23.4531 22.1699M22.9379 10.6963C24.2305 10.331 24.474 9.78773 24.474 7.45553C24.474 5.63848 24.4272 5.41369 23.912 4.91728L23.3688 4.3553H5.217V10.9304H13.6747C18.7793 10.9304 22.4509 10.8367 22.9473 10.7056" fill="black"/>
<path d="M34.6177 13.2997V0.0371094H37.1091H39.6005V13.2997V26.553H37.1091H34.6177V13.2997Z" fill="black"/>
<path d="M57.8835 15.454V4.34558H51.0836H44.2837V2.19135V0.0371094H60.3749H76.4755V2.19135V4.34558H69.788H63.1005V15.454V26.553H60.4967H57.8835V15.454Z" fill="black"/>
<path d="M81.1868 13.3664L81.2524 0.150659L83.5377 0.085095L85.8512 0.0195312L93.6064 10.6971C97.8681 16.5416 101.427 21.3558 101.493 21.3277C101.586 21.3277 105.099 16.5416 109.314 10.669L117.003 0.0382637H121.265V26.5635H116.507L116.46 17.6093L116.395 8.65521L109.932 17.5906L103.469 26.5447H101.296L99.1231 26.5728L92.5761 17.6L86.0291 8.59901L85.9636 17.6L85.9167 26.5728H81.1587L81.2055 13.3758L81.1868 13.3664Z" fill="black"/>
<path d="M126.36 25.9067C126.585 25.5414 130.556 19.5845 135.155 12.6441L143.547 0.0652081L145.27 0.0371094C146.628 0.0371094 147.059 0.130772 147.331 0.449224C147.743 0.898804 164.518 26.3188 164.518 26.4687C164.518 26.5155 163.225 26.5623 161.643 26.5342H158.739L152.145 16.1752C148.52 10.4805 145.458 5.81608 145.373 5.81608C145.308 5.81608 142.198 10.4898 138.508 16.1752L131.774 26.5342L128.87 26.553H125.948L126.379 25.8973L126.36 25.9067Z" fill="black"/>
<path d="M169.201 13.2997V0.0371094H171.814H174.418V13.2997V26.553H171.814H169.201V13.2997Z" fill="black"/>
<path d="M179.139 13.3664L179.205 0.150659L181.265 0.085095L183.354 0.0195312L193.282 7.4376C198.771 11.5213 204.568 15.8672 206.226 17.0942C207.856 18.3212 209.261 19.314 209.336 19.314C209.411 19.314 209.495 15.0055 209.514 9.75106L209.579 0.160025L211.799 0.0944612L214 0.0288975V26.5728H211.396L197.572 16.4667L183.747 6.37921L183.682 16.4667L183.635 26.5728H179.102L179.148 13.3758L179.139 13.3664Z" fill="black"/>
</g>
<defs>
<clipPath id="clip0_556_77016">
<rect width="214" height="26.5908" fill="white"/>
</clipPath>
</defs>
</svg>
