<svg width="153" height="28" viewBox="0 0 153 28" fill="none" xmlns="http://www.w3.org/2000/svg">
<g clip-path="url(#clip0_556_77028)">
<path d="M115.66 22.4192H87.0498V2.45752C87.0498 1.80574 86.7907 1.18066 86.3296 0.719791C85.8686 0.258918 85.2431 0 84.5911 0C83.9389 0 83.3135 0.258918 82.8524 0.719791C82.3913 1.18066 82.1323 1.80574 82.1323 2.45752V24.765C82.1598 25.438 82.4397 26.076 82.9165 26.552C83.3932 27.0281 84.0317 27.3074 84.7051 27.3342H115.66C115.983 27.3342 116.303 27.2708 116.602 27.1472C116.9 27.0237 117.171 26.8427 117.399 26.6145C117.628 26.3863 117.809 26.1154 117.932 25.8172C118.056 25.519 118.12 25.1995 118.12 24.8768C118.12 24.5541 118.056 24.2345 117.932 23.9363C117.809 23.6382 117.628 23.3672 117.399 23.1391C117.171 22.9108 116.9 22.7298 116.602 22.6063C116.303 22.4828 115.983 22.4192 115.66 22.4192Z" fill="black"/>
<path d="M150.853 1.21132C150.604 1.00246 150.318 0.844587 150.009 0.746778C149.7 0.648969 149.375 0.613153 149.053 0.641389C148.73 0.669625 148.415 0.761356 148.128 0.911309C147.84 1.06126 147.586 1.26648 147.379 1.51516L131.135 20.8536L114.894 1.50622C114.685 1.25721 114.43 1.05191 114.142 0.902163C113.853 0.752419 113.539 0.661203 113.215 0.633784C112.891 0.606365 112.565 0.643288 112.256 0.742414C111.947 0.841542 111.66 1.00091 111.413 1.21132C111.165 1.41881 110.959 1.67341 110.81 1.96047C110.659 2.24754 110.567 2.56142 110.54 2.88405C110.511 3.20669 110.547 3.53173 110.645 3.84048C110.743 4.14923 110.9 4.4356 111.11 4.68312L129.126 26.144C129.382 26.4203 129.692 26.6407 130.036 26.7914C130.381 26.9422 130.754 27.0201 131.13 27.0201C131.508 27.0201 131.88 26.9422 132.224 26.7914C132.57 26.6407 132.88 26.4203 133.135 26.144L151.152 4.68312C151.361 4.43587 151.519 4.14973 151.618 3.84114C151.715 3.53256 151.752 3.20762 151.724 2.88499C151.696 2.56236 151.605 2.24841 151.455 1.96119C151.305 1.67396 151.101 1.41912 150.853 1.21132Z" fill="black"/>
<path d="M36.0008 13.9662C35.8644 6.7836 29.8695 1.09781 22.7145 1.09781H2.44536C1.8081 1.0906 1.19375 1.33508 0.735855 1.77811C0.277954 2.22113 0.0135103 2.8269 4.11383e-06 3.46372V24.8753C-0.00118836 25.5291 0.256908 26.1568 0.717761 26.6207C1.17862 27.0847 1.80466 27.3472 2.45877 27.3508H22.9268C24.6691 27.3455 26.3929 26.9933 27.9975 26.3149C29.6021 25.6364 31.0553 24.6452 32.2725 23.3992C33.4897 22.1532 34.4462 20.6773 35.0863 19.0576C35.7265 17.4381 36.0373 15.7073 36.0008 13.9662ZM22.9335 22.391H4.93094V6.05081H22.7592C27.1872 6.05081 30.9357 9.52931 31.0676 13.9729C31.1016 15.0634 30.9167 16.1496 30.5236 17.1674C30.1305 18.1852 29.5374 19.1139 28.7791 19.8987C28.0208 20.6834 27.1128 21.3083 26.1088 21.7364C25.1047 22.1645 24.0251 22.3871 22.9335 22.391Z" fill="black"/>
<path d="M73.3848 11.8203H42.4715C41.111 11.8203 40.0083 12.9226 40.0083 14.2823C40.0083 15.642 41.111 16.7443 42.4715 16.7443H73.3848C74.7453 16.7443 75.8481 15.642 75.8481 14.2823C75.8481 12.9226 74.7453 11.8203 73.3848 11.8203Z" fill="black"/>
<path d="M73.3848 1.1875H42.4715C41.111 1.1875 40.0083 2.28976 40.0083 3.64948C40.0083 5.00919 41.111 6.11145 42.4715 6.11145H73.3848C74.7453 6.11145 75.8481 5.00919 75.8481 3.64948C75.8481 2.28976 74.7453 1.1875 73.3848 1.1875Z" fill="black"/>
<path d="M73.3848 22.4492H42.4715C41.111 22.4492 40.0083 23.5515 40.0083 24.9112C40.0083 26.2709 41.111 27.3732 42.4715 27.3732H73.3848C74.7453 27.3732 75.8481 26.2709 75.8481 24.9112C75.8481 23.5515 74.7453 22.4492 73.3848 22.4492Z" fill="black"/>
</g>
<defs>
<clipPath id="clip0_556_77028">
<rect width="152.625" height="27.6407" fill="white"/>
</clipPath>
</defs>
</svg>
