<svg width="200" height="40" viewBox="0 0 200 40" fill="none" xmlns="http://www.w3.org/2000/svg">
<path d="M80.1324 8.38823C76.6002 8.38823 72.8476 9.93344 70.4194 13.2447V9.05079H62.2516V39.0727H70.4194V21.8542C70.4194 18.7638 72.8476 15.4525 77.2628 15.4525C80.5741 15.4525 84.1062 17.8807 84.1062 21.8542V38.8519H92.2739V20.309C92.4944 13.4656 87.4171 8.38823 80.1324 8.38823ZM150.993 8.82994L143.488 29.3594L135.982 8.82994H126.711L139.073 38.8519H148.123L160.264 8.82994H150.993ZM53.4217 29.5802C49.8896 32.2293 47.9027 32.671 44.8122 32.671C41.9427 32.671 39.7349 31.788 38.1897 30.2428L59.1608 21.4129C58.7195 18.1016 57.3948 15.2316 55.6291 13.0242C52.7591 9.71297 48.7857 8.16776 43.7087 8.16776C34.6579 8.16776 27.8145 14.7903 27.8145 23.6202C27.8145 32.671 34.6579 39.0731 44.5914 39.0731C50.11 39.0731 55.8496 36.424 58.4986 33.3332L53.4217 29.5802ZM37.5275 17.8807C38.8522 15.8938 41.0592 14.7903 43.9292 14.7903C46.7988 14.7903 49.227 16.5564 50.3309 18.9846L35.9823 24.945C35.541 22.075 36.424 19.6468 37.5275 17.8807ZM27.1524 31.3463H8.38861V0H0V38.8519H27.1524V31.3463ZM175.055 39.2932C166.005 39.2932 158.94 32.671 158.94 23.8407C158.94 15.2312 166.004 8.38823 175.055 8.38823C184.105 8.38823 191.17 15.0108 191.17 23.8407C191.39 32.671 184.326 39.2932 175.055 39.2932ZM175.055 15.4525C170.419 15.4525 167.108 18.9846 167.108 23.8411C167.108 28.4767 170.64 32.2297 175.055 32.2297C179.691 32.2297 183.002 28.6976 183.002 23.8411C183.222 19.2051 179.69 15.4525 175.055 15.4525ZM111.7 39.2932C102.649 39.2932 95.5848 32.671 95.5848 23.8407C95.5848 15.2312 102.649 8.38823 111.7 8.38823C120.75 8.38823 127.814 15.0108 127.814 23.8407C127.814 32.6706 120.751 39.2932 111.7 39.2932ZM111.7 15.4525C107.064 15.4525 103.752 18.9846 103.752 23.8411C103.752 28.4767 107.284 32.2297 111.7 32.2297C116.336 32.2297 119.647 28.6976 119.647 23.8411C119.867 19.2051 116.336 15.4525 111.7 15.4525ZM192.494 35.3197H191.17V34.6576H194.702V35.3197H193.377V38.8519H192.494V35.3197ZM195.585 34.6579H196.468L197.792 36.6449L199.117 34.6579H200V39.0731H199.117V35.9823L197.792 37.9692L196.468 35.9823V39.0731H195.585V34.6579Z" fill="black"/>
</svg>
