<svg width="817" height="332" viewBox="0 0 817 332" fill="none" xmlns="http://www.w3.org/2000/svg">
<path d="M323.154 5.88086C325.071 5.88086 328.213 6.98943 330.942 9.07031C333.558 11.0646 335.067 13.3813 335.206 15.4766C334.496 18.2852 330.903 31.1395 326.824 46.168C326.996 45.3556 327.161 44.5642 327.314 43.7959C328.233 39.8156 329.006 36.4168 329.55 33.8145C329.822 32.511 330.043 31.3808 330.196 30.4639C330.34 29.6078 330.458 28.7511 330.458 28.0898V24.4004C330.458 21.4357 330.24 18.6431 329.407 16.5078C328.973 15.3954 328.303 14.2775 327.238 13.4395C326.129 12.5668 324.821 12.1777 323.462 12.1777C321.153 12.1777 318.437 13.0839 315.376 15.1182C304.265 22.3076 285.698 38.3187 273.527 83.8809C271.295 92.174 270.352 101.049 270.352 109.557C270.352 120.54 271.607 131.509 273.799 141.844L273.802 141.856C277.338 158.176 282.301 172.825 285.948 183.412L287.422 187.693C291.062 198.618 292.571 205.264 293.476 209.483L293.496 209.582L293.524 209.679L294.754 213.982L294.771 214.046L294.792 214.107C295.01 214.761 295.27 215.322 295.604 215.822C295.938 216.324 296.282 216.66 296.439 216.817L297.318 217.695H298.561C299.39 217.695 300.057 217.388 300.36 217.237C300.742 217.048 301.114 216.81 301.454 216.573C302.139 216.097 302.975 215.428 303.948 214.61C305.905 212.967 308.716 210.469 312.532 207.11L312.577 207.069C319.952 200.309 331.301 189.881 347.252 176.077L347.289 176.044C353.213 170.744 357.634 166.014 361.244 162.403C363.024 160.623 364.291 159.28 365.438 158.207C366.274 157.424 366.812 157.023 367.141 156.826H367.918C367.621 157.65 366.962 158.895 365.586 160.678C363.669 163.163 360.593 166.405 355.896 170.648L321.469 201.386C309.832 211.492 300.527 219.862 299.206 221.183L298.327 222.061V222.854C298.19 223.227 298.02 223.8 298.02 224.533C298.02 224.807 298.053 225.036 298.078 225.181C298.104 225.33 298.135 225.461 298.157 225.549C298.179 225.637 298.204 225.728 298.22 225.785C298.238 225.852 298.251 225.903 298.264 225.953C298.31 226.137 298.327 226.257 298.327 226.378V226.818L300.299 233.389L300.304 233.405L300.309 233.421C301.836 238.31 303.912 245.145 304.801 253.443L304.805 253.481L304.81 253.521C305.41 258.021 305.705 262.191 305.705 266.035C305.705 276.187 303.435 284.391 295.956 293.31C290.793 299.261 279.734 303.923 269.355 303.923C262.444 303.923 256.255 301.905 252.753 296.902L252.725 296.861L252.695 296.822L252.105 296.03C246.151 287.951 244.38 283.314 244.38 280.177C244.38 277.315 245.601 275.257 248.221 272.347L248.273 272.288L248.323 272.228C253.528 265.799 265.069 250.914 286.96 229.917C287.794 229.293 288.415 228.481 288.795 227.493C289.178 226.497 289.264 225.46 289.264 224.533C289.264 223.412 289.045 222.217 288.768 220.99C288.489 219.755 288.084 218.216 287.637 216.428L287.618 216.354L287.597 216.281L286.696 213.382C284.4 206.082 280.729 194.876 275.632 176.097L275.63 176.089C265.213 138.099 263.133 119.327 263.133 106.482C263.133 104.878 263.205 103.411 263.282 101.952C263.356 100.548 263.435 99.1131 263.438 97.6689C263.735 91.1056 265.732 81.6276 268.28 72.7646C270.851 63.8232 273.833 56.0372 275.896 52.7363L275.922 52.6953L275.946 52.6523C281.579 42.9524 286.324 33.7457 293.193 25.3828C299.992 17.1066 308.745 9.84207 321.256 6.05957L321.296 6.04785L321.336 6.03418C321.725 5.90439 322.164 5.88086 323.154 5.88086ZM288.843 232.607C288.201 232.642 287.681 232.841 287.37 232.982C286.994 233.154 286.651 233.366 286.363 233.563C285.788 233.958 285.174 234.475 284.564 235.023C283.339 236.126 281.814 237.652 280.146 239.32L280.101 239.365L280.058 239.412L269.652 250.733C265.298 254.939 260.799 259.828 257.36 264.787C253.969 269.677 251.291 275.078 251.291 280.177C251.291 282.38 252.13 284.389 252.789 285.723C254.276 288.995 255.637 292.081 257.384 294.525C259.034 296.835 261.207 299.261 264.935 299.747C264.947 299.749 264.959 299.75 264.972 299.752C264.977 299.753 264.981 299.753 264.986 299.754C267.349 300.087 269.366 300.085 270.893 300.085C276.739 300.085 280.05 298.665 282.935 296.862L283.126 296.743L283.297 296.597C284.59 295.489 285.729 294.159 286.716 292.936C287.779 291.617 288.569 290.549 289.463 289.507L291.562 287.108C296.645 281.936 298.179 273.902 298.179 266.343C298.179 262.526 297.862 258.688 297.223 255.135C296.613 250.566 295.909 245.389 295.036 241.38C294.603 239.393 294.09 237.502 293.45 236.071C293.137 235.372 292.702 234.568 292.074 233.914C291.448 233.263 290.34 232.49 288.843 232.607ZM66.0977 20.6367C66.7727 20.6367 67.3919 20.9104 68.0215 21.6074C68.6103 22.2593 69.1335 23.2192 69.5078 24.375L69.6592 24.8828C70.2882 27.5221 75.8327 48.8742 81.8301 72.1094C87.9438 95.7951 94.5447 121.508 96.9961 131.773L97.001 131.794L97.0068 131.815C101.973 151.368 112.285 189.036 112.285 216.232V221.965C111.381 235.283 107 248.477 102.005 259.068C99.5074 264.364 96.8776 268.964 94.498 272.554C92.079 276.203 90.0332 278.635 88.7393 279.744L88.6982 279.779C86.5238 281.712 82.0818 283.578 76.1484 284.938C70.3487 286.268 63.5807 287.015 57.1826 287.015C56.4183 287.015 55.7004 286.951 54.8926 286.874C54.1618 286.804 53.2896 286.716 52.3955 286.708C45.4646 286.259 36.434 284.475 28.2256 281.889C24.1196 280.595 20.2781 279.119 17.0488 277.543C13.7796 275.948 11.3132 274.334 9.80859 272.829L9.76562 272.787L9.72168 272.746C6.13283 269.433 5.46099 267.104 5.46094 265.421C5.46094 264.116 6.044 263.004 7.41113 261.341C9.04279 259.857 9.97609 258.999 11.0742 258.167C12.1836 257.327 13.5085 256.481 15.9209 255.124L15.9199 255.123C17.6757 254.14 19.6879 252.98 21.7793 251.765C20.6733 252.783 19.6337 253.798 18.7139 254.773C17.3678 256.201 16.1215 257.702 15.3496 259.088C14.1314 260.585 14.2168 262.217 14.2168 262.961C14.2168 266.084 16.31 268.64 18.9551 270.491C21.6644 272.388 25.4929 273.958 30.2891 275.085C38.1213 277.194 48.7068 280.41 59.334 280.41C63.4487 280.41 67.4771 280.097 71.5762 278.744L71.5771 278.745C78.3565 276.696 83.8557 274.227 88.1094 270.32C92.4171 266.364 95.1882 261.177 96.9795 254.175L96.9844 254.155L96.9893 254.135C98.9909 245.842 103.837 237.299 103.837 217.771C103.837 208.633 102.951 196.92 100.073 181.238L99.7881 179.708C95.1528 154.834 88.4391 128.991 82.2461 106.643C76.4141 85.5968 71.0914 67.8062 68.3096 56.6045L67.7881 54.4531C66.2405 47.4904 64.8786 41.7435 63.8867 36.9365C62.8881 32.0972 62.334 28.5213 62.334 25.9375C62.334 24.307 62.5442 23.3032 62.8174 22.6729C63.0549 22.1247 63.3751 21.7702 63.8975 21.4717L64.0596 21.3789L64.209 21.2666C64.8574 20.7804 65.4354 20.6367 66.0977 20.6367ZM157.419 213.699C158.164 213.699 158.676 213.886 158.99 214.108C159.23 214.278 159.487 214.557 159.652 215.099L159.717 215.347C160.112 217.416 160.96 219.192 161.519 220.448C162.157 221.884 162.412 222.642 162.412 223.304C162.412 224.072 162.042 225.506 159.909 227.639C157.87 229.678 155.995 231.186 154.323 232.169C152.638 233.16 151.323 233.522 150.349 233.522C149.632 233.522 148.851 233.242 148.166 232.557C147.697 232.088 147.489 231.7 147.378 231.382C147.259 231.042 147.2 230.639 147.2 230.067C147.2 229.461 147.262 228.757 147.342 227.879C147.416 227.066 147.508 226.079 147.508 225.148C147.508 224.718 147.51 224.115 147.457 223.531C147.412 223.033 147.31 222.336 147.012 221.629C146.951 221.428 146.926 221.282 146.913 221.166C146.895 221.007 146.893 220.856 146.893 220.537C146.893 220.109 147.001 219.694 147.825 218.923C148.804 218.007 150.189 217.13 152.363 215.625L152.382 215.612L152.399 215.6C154.193 214.319 156.055 213.699 157.419 213.699Z" fill="black"/>
<path d="M380.308 16.6426C380.583 16.6426 380.652 16.7062 380.708 16.7568C380.829 16.866 381.057 17.154 381.284 17.7949C381.756 19.1261 381.919 21.0709 381.919 23.1729C381.919 25.1502 381.899 26.2648 381.701 27.0566L381.611 27.415V27.7842C381.611 29.386 381.335 32.2724 380.73 35.8984C380.122 39.5483 379.24 43.5859 378.137 46.3447C375.154 53.6489 375.141 60.7424 374.552 67.8076L374.541 67.9316V76.0498C374.541 84.0966 374.85 94.8919 375.465 106.289C376.089 122.831 377.615 139.114 377.615 156.287V165.202C377.615 166.797 377.692 168.466 377.931 169.804C378.045 170.443 378.234 171.233 378.598 171.938C378.9 172.525 379.864 174.044 381.845 174.044C382.294 174.044 382.849 173.977 383.274 173.925C383.831 173.856 384.261 173.795 384.935 173.714C386.165 173.565 387.561 173.429 388.916 173.429H399.517C402.585 173.737 405.026 174.023 406.845 174.543L407.041 174.6L407.244 174.628C409.098 174.893 410.507 175.368 411.94 175.739C411.893 175.835 411.825 175.95 411.725 176.084C411.357 176.574 410.567 177.331 408.924 178.29L408.874 178.319L408.824 178.351C405.895 180.214 404.298 180.341 403.364 180.341C403.076 180.341 402.87 180.34 402.538 180.312C402.276 180.291 401.916 180.249 401.389 180.17C401.027 179.989 400.643 179.871 400.245 179.805C399.709 179.715 399.097 179.726 398.753 179.726C396.806 179.726 392.952 179.885 389.348 180.198C387.544 180.355 385.747 180.555 384.253 180.804C383.509 180.928 382.791 181.072 382.163 181.243C381.614 181.392 380.837 181.637 380.181 182.074L379.934 182.239L379.724 182.449C379.089 183.084 378.771 183.845 378.596 184.371C378.403 184.949 378.275 185.582 378.184 186.221C378.001 187.501 377.923 189.123 377.923 191.026V202.604C377.606 206.806 377.311 214.496 376.405 222.347L376.403 222.359C375.945 226.48 375.42 230.366 374.72 233.722C374.01 237.123 373.163 239.751 372.169 241.49C369.631 245.783 366.01 247.359 362.784 247.359C360.886 247.359 359.243 246.9 357.51 245.909L357.438 245.868L357.363 245.831L357.061 245.665C356.489 245.324 355.874 244.802 355.244 244.122C355.499 244.313 355.769 244.498 356.054 244.669C356.896 245.174 358.051 245.673 359.403 245.673C360.854 245.673 362.859 245.215 364.466 243.688C365.413 242.864 366.117 241.769 366.657 240.695C367.221 239.575 367.704 238.28 368.123 236.905C368.962 234.156 369.622 230.833 370.133 227.397C371.155 220.517 371.626 212.837 371.626 207.627C371.626 206.692 371.651 205.191 371.317 203.831C371.317 200 371.309 196.02 370.998 192.599C370.865 191.13 370.765 189.318 370.479 188.031C370.332 187.37 370.059 186.434 369.426 185.622C368.662 184.643 367.516 184.029 366.166 184.029C364.433 184.029 360.538 184.635 356.87 185.399C354.978 185.794 353.039 186.252 351.335 186.739C349.738 187.195 348.145 187.733 346.994 188.343L346.697 188.497C343.643 190.143 341.031 193.404 341.031 197.175C341.031 197.722 341.125 198.283 341.285 198.834C340.558 198.48 339.652 197.848 338.819 196.911C337.644 195.589 336.887 193.964 336.887 192.256C336.887 191.085 337.277 189.534 338.479 187.851L338.515 187.802C340.056 185.549 342.772 183.684 346.153 182.209C349.488 180.754 353.172 179.808 356.275 179.217L356.332 179.206L356.389 179.193L364.3 177.367C366.003 177.086 367.514 176.256 368.527 174.774C369.5 173.353 369.781 171.67 369.781 170.121C369.781 169.459 369.703 166.318 369.627 163.058C369.55 159.735 369.474 156.243 369.474 154.75V146.729C369.166 114.413 368.24 102.601 367.936 92.8643L367.934 92.8115L367.93 92.7588L367.831 91.0713C367.63 87.1333 367.629 83.1732 367.629 79.124C367.629 64.4943 368.543 49.9193 370.658 36.9102C372.202 28.1098 373.601 22.8939 375.251 19.8906C376.037 18.4602 376.786 17.715 377.474 17.2979C378.148 16.8883 379.014 16.6426 380.308 16.6426Z" fill="black"/>
<path d="M424.089 161.457C430.366 161.457 433.227 165.709 434.215 168.179C434.871 169.818 437.075 174.812 437.075 180.284C437.075 184.211 435.791 188.488 431.728 191.79L431.71 191.804L431.692 191.818C426.277 196.355 422.628 198.056 420.116 199.117C417.887 200.059 415.024 200.906 413.478 204.018C411.823 206.63 411.559 209.813 411.559 212.871C411.559 216.585 412.23 221.07 414.335 225.28L414.351 225.312L414.367 225.342C417.513 231.284 422.399 234.316 426.855 234.316C428.542 234.316 429.711 233.704 430.35 233.385L430.407 233.355L430.465 233.324C431.352 232.832 432.523 232.15 433.831 231.417C431.79 233.117 429.851 234.999 428.325 236.677L428.281 236.725L428.24 236.774C427.899 237.184 427.002 237.867 425.566 238.454C424.186 239.019 422.573 239.384 421.015 239.384C418.443 239.384 415.757 238.504 413.644 235.45L413.622 235.418L413.6 235.388L413.08 234.667C410.516 231.059 408.419 227.36 406.915 224.044C405.28 220.44 404.451 217.521 404.333 215.746C404.193 213.651 404.106 211.524 403.651 209.907C403.398 209.006 402.987 208.066 402.264 207.233C401.527 206.386 400.617 205.823 399.626 205.451C398.798 205.141 397.682 204.575 396.656 203.878C398.496 203.847 400.66 203.45 402.524 202.052L402.586 202.006L402.646 201.956C403.472 201.267 403.899 200.342 404.132 199.753C404.396 199.082 404.603 198.322 404.776 197.57C405.12 196.081 405.44 194.149 405.791 192.188C406.52 188.12 407.47 183.448 409.303 179.358C410.959 175.713 412.625 171.224 415.168 167.428C417.678 163.68 420.502 161.457 424.089 161.457ZM423.261 169.599L423.05 169.629C421.685 169.824 420.607 170.553 419.83 171.273C419.037 172.009 418.355 172.922 417.772 173.863C416.627 175.713 415.635 178.049 414.835 180.426C413.522 183.422 412.788 186.552 412.788 188.892C412.788 189.162 412.779 190.086 412.971 190.98C413.063 191.413 413.258 192.124 413.732 192.791C414.28 193.562 415.283 194.352 416.711 194.352C418.013 194.351 419.591 193.799 420.994 193.157C422.534 192.453 424.319 191.427 426.16 190.088C430.181 187.25 431.393 183.161 431.393 179.977C431.393 179.315 431.391 178.385 431.004 177.116C430.784 175.937 430.288 174.291 429.3 172.835C428.207 171.224 426.309 169.599 423.474 169.599H423.261Z" fill="black"/>
<path d="M496.687 17.5605C497.031 17.6818 497.361 17.952 497.677 18.6016C498.097 19.4658 498.373 20.8095 498.373 22.5537C498.373 26.3987 497.256 31.2651 496.038 35.5332L490.204 54.5693L490.192 54.6084C488.088 61.8223 485.803 69.5939 485.468 74.6162C485.169 79.0983 483.194 93.7731 481.184 108.89C479.196 123.832 477.175 139.211 476.859 144.737L476.857 144.78L475.935 166.292C475.624 170.38 475.625 174.138 475.625 176.88C475.625 178.07 475.624 179.172 475.668 179.968C475.689 180.34 475.727 180.833 475.835 181.29C475.883 181.495 476 181.941 476.29 182.402C476.583 182.868 477.421 183.877 478.933 183.877C479.678 183.877 480.229 183.609 480.497 183.454C480.788 183.286 480.999 183.103 481.124 182.986C481.372 182.754 481.56 182.513 481.671 182.364C481.906 182.049 482.134 181.679 482.312 181.383C482.677 180.774 482.923 180.332 483.145 179.976C484.449 178.632 485.718 177.025 487.188 174.969C488.449 173.296 491.91 169.527 495.715 165.646C499.291 161.997 502.917 158.509 504.986 156.807L505.379 156.49C509.218 153.54 512.942 151.284 516.169 149.778C519.479 148.234 522.004 147.601 523.508 147.601H524.625C524.896 147.74 525.52 148.237 526.183 149.734C526.777 151.078 527.136 152.671 527.239 153.993C526.393 153.473 524.565 152.36 521.971 152.36H521.53L521.108 152.487C519.967 152.83 518.059 153.787 515.927 155.013C513.694 156.296 510.949 158.031 508.045 160.105C502.282 164.222 495.672 169.83 491.242 176.065L491.239 176.068C488.774 179.549 485.118 184.129 482.237 188.943C479.324 193.812 476.855 199.446 476.854 205.471V205.719L476.896 205.964C476.936 206.207 476.972 206.675 477.001 207.503C477.015 207.894 477.026 208.326 477.039 208.812C477.052 209.292 477.067 209.819 477.087 210.379C477.165 212.597 477.321 215.388 477.797 218.442C478.399 224.471 479.023 231.307 479.957 236.641C480.587 242.126 482.506 256.014 484.375 269.594C486.263 283.314 488.097 296.689 488.552 301.081L488.56 301.161L488.572 301.24C489.478 306.979 490.073 312.657 490.073 318.603C490.073 321.113 489.842 323.111 489.42 324.379C489.346 324.602 489.276 324.772 489.217 324.901C484.979 323.274 482.673 321.97 481.346 320.507C480.148 319.187 479.473 317.419 479.473 313.991C479.473 312.074 479.745 310.152 480.064 307.601L480.088 307.415V307.229C480.088 306.83 480.178 306.452 480.402 305.844C480.576 305.373 481.003 304.37 481.228 303.345C481.556 302.029 481.933 300.521 481.933 298.005C481.933 296.795 481.934 295.091 481.605 293.044C480.894 284.821 477.792 258.327 475.896 242.232L474.534 230.644L473.624 222.144C473.585 221.391 473.348 220.392 472.522 219.566C471.608 218.652 470.48 218.457 469.71 218.457H468.801L468.046 218.961C467.125 219.575 466.409 220.45 465.888 221.189C465.336 221.973 464.835 222.849 464.401 223.675C463.964 224.507 463.566 225.347 463.229 226.068C462.876 226.827 462.621 227.389 462.415 227.801C460.594 231.442 458.692 234.893 455.58 237.521C453.806 238.77 452.59 239.055 451.879 239.055C450.315 239.055 448.83 238.083 447.575 235.855C446.324 233.634 445.656 230.695 445.656 228.22C445.656 225.724 446.23 220.954 447.195 214.854C448.147 208.839 449.443 201.739 450.821 194.695L450.822 194.696C453.825 179.981 457.214 165.142 457.895 160.871C461.63 144.963 462.181 135.137 474.447 90.3643L474.449 90.3594C480.606 67.7311 484.15 53.2449 486.35 43.751C488.585 34.1032 489.372 29.9036 490.109 27.3965L490.113 27.3857L490.116 27.374C490.773 25.076 491.45 22.4587 492.571 20.3486C493.7 18.2236 494.761 17.5605 495.84 17.5605H496.687ZM468.173 145.29C466.792 145.29 465.972 146.15 465.727 146.433C465.412 146.796 465.212 147.174 465.097 147.413C464.854 147.918 464.658 148.512 464.498 149.065C464.167 150.212 463.829 151.751 463.499 153.44C462.836 156.831 462.139 161.17 461.528 164.988C460.572 170.087 452.939 210.387 451.41 217.425C450.775 220.282 450.416 222.678 450.416 224.839V227.053L450.506 227.41C450.538 227.537 450.566 227.66 450.597 227.794C450.626 227.918 450.662 228.072 450.698 228.218C450.763 228.476 450.884 228.941 451.117 229.408C451.382 229.937 451.839 230.571 452.619 231.017C453.36 231.44 454.103 231.527 454.646 231.527H455.889L456.768 230.648C457.229 230.187 457.699 229.524 458.094 228.935C458.531 228.282 459.03 227.484 459.561 226.602C460.624 224.834 461.873 222.638 463.108 220.418C465.574 215.988 468.062 211.323 468.962 209.674L468.961 209.673C471.35 205.55 472.095 201.977 472.095 198.707C472.095 197.721 472.014 195.702 471.939 193.348C471.863 190.937 471.787 188.053 471.787 185.181C471.787 182.98 471.793 180.743 472.064 178.842L472.095 178.631V165.198C472.095 160.168 472.101 155.804 472.379 153.581L472.402 153.396V153.209C472.402 153.038 472.43 152.824 472.515 152.318C472.584 151.901 472.71 151.193 472.71 150.441C472.71 149.701 472.641 148.473 471.975 147.361C471.18 146.037 469.864 145.375 468.455 145.298L468.173 145.29Z" fill="black"/>
<path d="M535.979 125.158C537.629 125.158 539.671 125.635 541.779 126.233C547.099 128.308 553.658 134.492 559 148.439C563.344 160.229 569.347 176.484 571.134 188.096L571.14 188.133C571.621 191.02 572.13 193.765 572.56 196.419C572.986 199.058 573.251 201.135 573.251 202.396V202.645L573.292 202.889L573.882 206.433C573.962 207.323 574.335 208.021 574.641 208.464C574.998 208.982 575.42 209.386 575.773 209.675C576.135 209.97 576.516 210.221 576.87 210.412C577.046 210.507 577.254 210.608 577.481 210.694C577.615 210.745 578.099 210.93 578.71 210.93H579.507L580.198 210.534C581.139 209.996 582.128 209.061 582.945 208.225C583.835 207.314 584.797 206.229 585.718 205.151C586.642 204.069 587.553 202.963 588.337 202.006C589.137 201.029 589.778 200.242 590.211 199.737C590.798 199.053 591.294 198.576 591.694 198.255C591.694 198.298 591.696 198.346 591.696 198.399C591.696 200.144 591.167 202.281 590.355 203.498L588.64 206.07C588.169 206.604 587.768 207.232 587.451 207.722C587.022 208.385 586.523 209.168 585.805 210.175L578.733 220.013L578.729 220.02C576.896 222.584 576.471 224.222 575.864 226.041L575.71 226.503V230.679C575.71 231.603 575.802 232.598 575.874 233.464C575.95 234.38 576.018 235.272 576.018 236.213C576.018 237.914 575.754 238.875 575.45 239.482C575.16 240.063 574.714 240.563 573.893 241.149L573.802 241.215L573.716 241.286C572.208 242.543 571.327 242.742 570.717 242.742C570.659 242.742 570.45 242.72 570.078 242.427C569.765 242.179 569.443 241.818 569.156 241.392C568.936 240.688 568.758 239.991 568.539 239.189C568.312 238.358 568.016 237.321 567.56 236.408L567.342 235.973L566.997 235.628C566.714 235.345 566.169 234.792 565.526 234.324C564.967 233.918 563.967 233.296 562.679 233.22L562.417 233.213C561.535 233.213 560.782 233.561 560.46 233.722C560.043 233.93 559.516 234.256 559.065 234.706L558.97 234.802L558.883 234.906C558.883 234.906 558.843 234.953 558.743 235.048C558.646 235.14 558.512 235.258 558.34 235.4C557.995 235.685 557.533 236.034 556.961 236.424C555.817 237.204 554.295 238.108 552.511 238.965C548.91 240.693 544.447 242.128 539.975 242.128C538.647 242.128 537.507 242.11 536.706 241.91L536.577 241.878L536.446 241.857L535.969 241.777C525.999 240.029 519.976 233.439 514.711 222.324L514.684 222.267L514.654 222.211L514.393 221.704C511.739 216.468 510.695 211.302 510.695 207.007C510.695 202.602 512.083 199.583 513.667 198.197C515.605 196.502 517.985 195.559 520.607 195.559C524.424 195.559 529.091 197.088 535.682 200.982L535.752 201.023L535.824 201.061C543.179 204.885 546.96 208.075 553.062 213.262L557.981 217.565L558.031 217.609L558.083 217.65C558.839 218.255 559.659 218.899 560.442 219.389C561.144 219.827 562.294 220.46 563.646 220.46H564.016L564.374 220.37C564.985 220.217 566.123 219.917 566.997 219.043C568.074 217.966 568.184 216.659 568.184 215.923V213.463C568.184 212.909 568.2 211.665 567.808 210.326C567.245 206.578 566.166 189.393 559.444 167.396L559.441 167.384L558.202 163.423C555.38 154.49 553.028 147.713 550.919 142.77C549.714 139.944 548.551 137.628 547.378 135.816C546.246 134.069 544.986 132.605 543.491 131.656C540.881 129.815 537.546 128.689 534.441 128.688C532.966 128.688 531.419 128.915 529.99 129.422C530.852 127.59 531.768 126.598 532.608 126.038C533.494 125.448 534.562 125.158 535.979 125.158ZM523.988 202.777C523.261 202.777 522.546 202.943 522.003 203.124C521.7 203.225 521.2 203.413 520.7 203.734C517.331 205.15 516.685 208.665 516.685 211.004C516.685 214.248 517.804 217.962 519.647 221.439C521.506 224.945 524.211 228.422 527.631 231.162C532.913 235.454 537.865 237.368 542.435 237.368C545.101 237.368 547.643 236.614 549.531 235.984L549.596 235.963L549.659 235.938C551.642 235.176 553.744 234.316 555.367 233.296C556.812 232.388 558.961 230.685 558.961 227.912C558.961 227.578 558.986 226.332 558.337 225.033L558.273 224.905L558.197 224.785L557.988 224.467C556.872 222.844 554.726 220.781 552.28 218.654C549.562 216.291 546.128 213.56 542.412 210.772C539.132 208.157 535.684 206.185 532.531 204.857C529.417 203.546 526.386 202.777 523.988 202.777Z" fill="black"/>
<path d="M600.857 147.645C601.578 147.744 602.408 148.072 603.087 148.611C603.753 149.14 604.061 149.688 604.15 150.16L604.145 150.167L603.951 151.006C603.771 151.787 603.435 152.749 602.956 154.027C602.498 155.249 601.92 156.73 601.38 158.329C600.287 161.568 599.263 165.526 599.263 170.126V171.766L599.271 171.869C599.878 180.679 601.371 190.089 602.337 194.43V203.942C602.337 205.249 602.416 207.224 602.732 208.943C602.886 209.774 603.133 210.773 603.584 211.639C603.972 212.383 605.051 214.013 607.182 214.013C608.87 214.013 609.947 212.915 610.417 212.343C610.966 211.675 611.395 210.867 611.733 210.116C612.423 208.585 613.03 206.616 613.542 204.666C614.577 200.726 615.364 196.311 615.681 194.253L615.698 194.141L615.706 194.027C615.754 193.403 616.116 191.773 616.862 189.376C617.578 187.075 618.574 184.302 619.747 181.509C620.923 178.709 622.255 175.944 623.635 173.634C625.044 171.275 626.347 169.657 627.4 168.856C629.155 167.609 630.395 167.284 631.468 167.284C634.35 167.284 636.651 169.417 637.733 170.77L637.766 170.81L637.799 170.849C639.209 172.495 642.999 177.76 644.781 191.077C645.544 197.487 646.325 204.352 647.226 209.599C647.673 212.204 648.174 214.564 648.766 216.321C649.054 217.18 649.426 218.085 649.935 218.832C650.364 219.463 651.44 220.776 653.295 220.776H654.405L655.248 220.054C655.74 219.632 656.277 219.011 656.755 218.426C657.273 217.79 657.869 217.012 658.503 216.154C659.774 214.435 661.259 212.314 662.694 210.2C664.09 208.144 665.452 206.072 666.543 204.354C665.11 209.767 662.588 214.547 657.942 221.231C655.562 224.249 653.831 226.605 652.151 228.319C650.462 230.044 649.435 230.455 648.684 230.455C648.522 230.455 648.415 230.454 648.316 230.451C648.223 230.448 648.167 230.444 648.134 230.439C648.133 230.439 648.132 230.439 648.131 230.438L647.965 230.356L647.734 230.284L647.469 230.188C646.108 229.63 644.272 227.924 642.585 225.056C640.86 222.122 639.642 218.556 639.377 215.375L639.372 215.321L639.365 215.267C638.916 211.522 638.774 207.777 638.496 203.81C638.226 199.954 637.829 195.983 636.847 192.187C636.108 188.929 635.752 186.19 635.388 184.005C635.219 182.991 635.022 181.923 634.729 181.082C634.587 180.672 634.341 180.068 633.893 179.52C633.423 178.945 632.59 178.282 631.403 178.201L631.161 178.192C630.096 178.192 629.268 178.645 628.741 179.046C628.212 179.448 627.795 179.938 627.472 180.386C626.824 181.282 626.239 182.446 625.704 183.722C624.619 186.308 623.5 189.934 622.409 194.299L622.39 194.379L622.374 194.46C621.557 198.708 621.388 200.533 620.648 203.38C619.932 206.139 618.688 209.753 615.779 216.947C614.68 219.525 613.149 224.265 610.801 228.962C609.656 231.252 608.449 233.229 607.236 234.593C606.086 235.886 605.287 236.23 604.849 236.284C603.222 236.041 602.081 235.288 601.16 234.068C600.119 232.689 599.317 230.643 598.743 227.918L598.728 227.845L598.708 227.772C597.998 225.076 596.79 217.513 595.671 208.676C594.564 199.933 593.579 190.221 593.273 183.275V178.733C593.273 173.018 593.65 167.75 594.101 163.735C594.326 161.728 594.567 160.05 594.785 158.801C594.894 158.175 594.995 157.674 595.08 157.302C595.176 156.886 595.225 156.755 595.211 156.791L595.227 156.753L595.24 156.714C596.362 153.669 597.188 151.347 598.117 149.688C599.044 148.033 599.589 147.922 599.761 147.905C600.205 147.871 600.559 147.761 600.78 147.678C600.807 147.668 600.832 147.655 600.857 147.645Z" fill="black"/>
<path d="M720.321 12.0547C720.39 12.1422 720.484 12.2748 720.599 12.4736C720.761 12.7565 720.941 13.123 721.144 13.5967L721.16 13.6348L721.178 13.6719C722.709 16.9894 722.746 20.0379 722.746 24.4043V24.498L722.752 24.5918C723.068 29.6498 725.242 46.0934 726.77 57.3936L726.771 57.4014C727.976 66.1392 729.202 83.5174 729.202 104.027C729.202 106.589 729.127 109.158 729.05 111.818C728.973 114.465 728.895 117.197 728.895 120.014C728.894 133.083 727.377 146.691 726.443 159.139L726.442 159.152L726.441 159.167C724.905 182.524 722.147 212.845 721.525 220.926L721.517 221.04V225.46C721.517 227.843 721.508 230.268 721.864 232.408L721.903 232.641L721.978 232.864C721.978 232.864 721.979 232.87 721.982 232.88C721.986 232.891 721.991 232.908 721.997 232.929C722.009 232.972 722.024 233.026 722.043 233.098C722.077 233.227 722.132 233.437 722.189 233.642C722.306 234.056 722.484 234.642 722.766 235.236C723.313 236.392 724.643 238.297 727.283 238.297H727.531L727.776 238.256C730.945 237.728 732.555 235.431 733.622 234.097L734.852 232.56L734.903 232.496L734.95 232.43C736.399 230.401 738.456 227.901 740.622 225.662C741.286 224.975 741.945 224.335 742.58 223.749C741.209 225.257 740 226.952 738.638 228.995C736.659 231.802 734.622 235.063 732.209 238.192C729.769 241.356 727.471 243.647 725.45 244.545L725.388 244.573L725.326 244.604C723.928 245.302 722.548 245.517 721.749 245.517C720.679 245.517 719.883 245.154 718.963 243.978C717.905 242.626 716.888 240.429 715.666 237.073C714.23 232.756 713.375 228.473 713.375 222.692C713.375 217.197 714.062 210.568 714.86 201.898L715.208 198.055C717.346 178.212 719.205 164.537 719.826 147.833L719.827 147.834C720.75 129.693 721.675 108.107 721.675 91.1152C721.675 82.1361 721.366 74.3878 721.055 69.4082L721.051 69.3496L721.045 69.291L720.744 66.4326C720.02 59.7264 719.142 52.8276 718.262 46.8691C717.267 40.1367 716.242 34.397 715.405 31.5508L715.381 31.4688L715.352 31.3887L715.089 30.6348C713.829 26.9262 713.375 24.1257 713.375 21.9453C713.375 20.2654 713.724 19.0659 714.284 18.0254C714.878 16.9221 715.778 15.8652 717.107 14.5361L717.178 14.4658L717.244 14.3906C718.844 12.562 719.869 12.1425 720.321 12.0547ZM689.537 161.441C695.814 161.441 698.675 165.693 699.663 168.163C700.319 169.803 702.523 174.796 702.523 180.269C702.523 184.196 701.239 188.473 697.176 191.774L697.158 191.788L697.141 191.803C691.726 196.34 688.076 198.04 685.564 199.102C683.335 200.044 680.473 200.89 678.927 204C677.271 206.613 677.007 209.797 677.007 212.855C677.007 216.569 677.678 221.053 679.783 225.264L679.799 225.295L679.815 225.326C682.962 231.269 687.847 234.301 692.304 234.301C693.99 234.301 695.159 233.688 695.798 233.369L695.855 233.34L695.913 233.309C696.801 232.816 697.973 232.133 699.282 231.399C697.24 233.1 695.299 234.983 693.773 236.661L693.729 236.709L693.688 236.758C693.347 237.167 692.451 237.851 691.015 238.438C689.634 239.003 688.021 239.368 686.463 239.368C683.891 239.368 681.206 238.487 679.092 235.434L679.07 235.402L679.048 235.372L678.528 234.651C675.964 231.043 673.867 227.344 672.363 224.028C670.728 220.424 669.9 217.504 669.781 215.729C669.642 213.634 669.554 211.507 669.1 209.891C668.846 208.989 668.435 208.05 667.712 207.218C666.975 206.37 666.065 205.806 665.074 205.435C664.246 205.124 663.131 204.559 662.105 203.862C663.945 203.832 666.108 203.434 667.973 202.036L668.034 201.99L668.094 201.94C668.92 201.252 669.348 200.327 669.58 199.737C669.845 199.067 670.051 198.306 670.225 197.554C670.569 196.065 670.888 194.132 671.239 192.172C671.969 188.103 672.918 183.432 674.751 179.343C676.407 175.698 678.073 171.208 680.616 167.412C683.127 163.664 685.95 161.441 689.537 161.441ZM688.709 169.583L688.498 169.613C687.134 169.808 686.055 170.537 685.278 171.257C684.485 171.992 683.804 172.906 683.221 173.848C682.075 175.698 681.082 178.035 680.281 180.413C678.969 183.409 678.236 186.537 678.236 188.876C678.236 189.146 678.227 190.07 678.419 190.965C678.512 191.397 678.707 192.108 679.181 192.775C679.728 193.546 680.732 194.336 682.159 194.336C683.462 194.336 685.039 193.783 686.442 193.142C687.97 192.443 689.739 191.427 691.564 190.104L691.565 190.104C695.621 187.265 696.841 183.157 696.841 179.961C696.841 179.299 696.839 178.369 696.452 177.101C696.232 175.921 695.736 174.276 694.748 172.819C693.655 171.209 691.757 169.583 688.922 169.583H688.709Z" fill="black"/>
<path d="M755.317 12.0547C755.386 12.1422 755.481 12.2746 755.596 12.4736C755.758 12.7565 755.938 13.1231 756.141 13.5967L756.156 13.6348L756.174 13.6719C757.705 16.9894 757.742 20.0378 757.742 24.4043V24.498L757.748 24.5918C758.064 29.6498 760.239 46.0934 761.766 57.3936L761.767 57.4014C762.972 66.1392 764.198 83.5174 764.198 104.027C764.198 106.589 764.123 109.158 764.046 111.818C763.969 114.465 763.891 117.197 763.891 120.014C763.891 133.083 762.373 146.691 761.439 159.139L761.438 159.152L761.438 159.167C759.901 182.524 757.143 212.845 756.521 220.926L756.513 221.04V225.46C756.513 227.843 756.505 230.268 756.861 232.408L756.899 232.641L756.974 232.864C756.974 232.864 756.976 232.869 756.979 232.88C756.983 232.891 756.987 232.908 756.993 232.929C757.006 232.972 757.02 233.026 757.039 233.098C757.073 233.227 757.128 233.437 757.186 233.642C757.302 234.056 757.48 234.642 757.762 235.236C758.309 236.392 759.639 238.297 762.279 238.297H762.527L762.772 238.256C765.942 237.728 767.551 235.431 768.618 234.097L769.899 232.496L769.947 232.43C771.397 230.401 773.452 227.901 775.618 225.662C776.283 224.975 776.941 224.334 777.576 223.748C776.202 225.261 774.991 226.961 773.624 229.012C771.648 231.815 769.614 235.068 767.205 238.192C764.766 241.356 762.467 243.647 760.446 244.545L760.384 244.573L760.323 244.604C758.926 245.302 757.545 245.517 756.746 245.517C755.676 245.517 754.88 245.154 753.959 243.978C752.901 242.626 751.885 240.429 750.663 237.073C749.227 232.755 748.371 228.473 748.371 222.692C748.371 217.197 749.058 210.568 749.856 201.898L750.204 198.055C752.342 178.213 754.202 164.538 754.823 147.834C755.746 129.693 756.672 108.107 756.672 91.1152C756.672 82.1362 756.362 74.3878 756.051 69.4082L756.047 69.3496L756.041 69.291C755.268 61.7163 754.264 53.6786 753.258 46.8691C752.263 40.1367 751.238 34.3969 750.401 31.5508L750.377 31.4688L750.349 31.3887L750.086 30.6348C748.826 26.9261 748.371 24.1257 748.371 21.9453C748.371 20.2654 748.72 19.0659 749.28 18.0254C749.874 16.922 750.774 15.8652 752.104 14.5361L752.175 14.4658L752.24 14.3906C753.84 12.5623 754.865 12.1427 755.317 12.0547ZM798.861 142.228C798.968 142.257 799.11 142.291 799.271 142.32C799.365 142.337 799.49 142.355 799.635 142.367C800.463 142.463 800.762 142.636 800.83 142.684C800.86 142.746 800.926 142.935 800.926 143.377C800.926 144.002 800.829 144.351 800.618 145.299L800.369 146.479C799.379 151.131 798.467 160.928 798.467 179.039V198.406C798.467 207.321 798.77 216.71 800.335 225.549C800.487 226.989 801.457 229.074 803.926 229.074C805.415 229.074 806.619 228.53 807.534 227.937C806.525 229.315 805.605 230.953 805.038 232.936L805.004 233.053L804.98 233.172C804.463 235.758 804.151 238.163 803.563 240.365C803.283 241.419 802.997 242.169 802.724 242.647C802.63 242.811 802.557 242.904 802.515 242.954L802.23 243.05C801.537 242.994 800.338 242.582 799.043 241.575C797.7 240.531 796.563 239.077 796.012 237.423L796.004 237.397L795.995 237.373L795.841 236.916C795.067 234.518 794.244 230.461 793.601 225.852C792.921 220.984 792.477 215.75 792.477 211.626C792.477 206.643 792.321 202.519 792.167 198.671C792.013 194.814 791.862 191.264 791.862 187.339C791.862 182.827 792.161 177.726 792.471 170.919C793.087 162.911 793.542 156.706 794.07 152.18C794.335 149.913 794.609 148.156 794.908 146.855C795.057 146.208 795.201 145.722 795.335 145.368C795.401 145.194 795.457 145.068 795.502 144.981C795.538 144.911 795.561 144.877 795.565 144.87L795.729 144.653L795.85 144.412C796.37 143.371 796.818 142.815 797.205 142.512C797.476 142.3 797.819 142.128 798.401 142.084C798.506 142.119 798.682 142.179 798.861 142.228ZM785.788 43.6982C786.518 43.6983 787.344 43.9462 788.289 44.4189C789.262 44.9054 789.943 45.388 790.864 45.9482C791.778 46.6116 793.683 48.227 795.753 50.333C797.867 52.4837 799.981 54.9725 801.34 57.2822L801.396 57.3779L801.459 57.4697C802.908 59.5623 804.367 60.9902 805.397 61.9824C803.921 61.9627 801.679 61.283 798.996 60.0908L798.959 60.0752L798.18 59.7314C794.239 57.9512 789.699 55.2526 787.588 53.6689C785.766 52.3029 784.312 51.0903 783.317 49.9092C782.339 48.7469 782.024 47.8737 782.024 47.1533C782.025 46.8261 782.243 46.0256 782.99 45.2783C784.44 43.8283 785.256 43.6982 785.788 43.6982Z" fill="black"/>
</svg>
