<svg width="141" height="69" viewBox="0 0 141 69" fill="none" xmlns="http://www.w3.org/2000/svg">
<path fill-rule="evenodd" clip-rule="evenodd" d="M132.267 0.288949C133.155 -0.085019 133.986 -0.0958771 134.763 0.255746C135.537 0.609468 136.042 1.25415 136.275 2.19129C136.507 3.1793 136.578 4.21247 136.486 5.28993C136.019 10.2623 134.543 15.162 132.055 19.9921C131.164 21.6833 130.485 22.9395 130.014 23.7567C129.546 24.5759 129.123 25.3502 128.745 26.0819C128.371 26.8097 127.973 27.4652 127.55 28.0507C127.131 28.636 126.782 29.1298 126.501 29.5302C126.218 29.9266 125.655 30.6772 124.81 31.7831C123.964 32.8849 123.211 33.8547 122.557 34.6942C122.134 35.1658 122.088 35.7754 122.419 36.5233C124.576 32.3986 126.615 29.8922 128.534 29.0018C129.477 28.6238 130.181 28.6238 130.649 29.0018C131.12 29.3759 131.307 30.0791 131.209 31.1073C131.164 31.6237 130.862 32.3036 130.299 33.1493C128.797 35.2594 126.967 36.7353 124.81 37.5809L123.688 38.0038C123.73 38.2373 123.917 38.4023 124.248 38.4999C125.651 39.0162 127.221 39.2723 128.957 39.2723C132.291 39.2723 135.222 38.2861 137.755 36.3124C137.804 36.2697 138.05 36.0839 138.495 35.7587C138.938 35.4294 139.278 35.1695 139.512 34.9784C139.609 34.8382 139.774 34.743 140.008 34.6942L140.072 34.7675C140.17 34.8609 140.219 34.9296 140.219 34.9784C140.121 35.1692 140.051 35.2852 140.008 35.328C135.503 39.5524 130.365 40.9368 124.598 39.4833C124.407 39.4345 124.207 39.3757 123.996 39.3046C123.789 39.2355 123.557 39.1539 123.297 39.0604C123.037 38.9629 122.836 38.8942 122.695 38.8495C122.51 38.7519 122.37 38.7983 122.273 38.9872C122.039 39.5523 121.9 40.0911 121.857 40.6054L121.647 44.1268C121.549 44.6919 121.453 45.0187 121.361 45.1102C121.313 45.2525 121.146 45.3222 120.865 45.3222C120.632 45.322 120.516 45.2061 120.516 44.9725C120.471 44.7835 120.451 44.5008 120.451 44.1268C120.48 41.3237 120.61 38.425 120.837 35.4296L120.299 35.9686C119.895 36.3664 119.569 36.6704 119.322 36.8807C117.072 38.8486 115.054 40.7476 113.272 42.5731C112.658 43.187 112.282 43.915 112.142 44.7606C111.203 49.8244 110.174 53.9979 109.052 57.2831C108.346 59.2998 107.712 60.8699 107.149 61.9921C106.443 63.4494 105.435 64.8561 104.124 66.2118C103.136 67.1977 102.152 67.9032 101.172 68.3261C100.749 68.5151 100.351 68.6309 99.9766 68.6757C99.3647 68.7732 98.8604 68.6554 98.4639 68.3261C98.0636 67.9948 97.838 67.5254 97.7891 66.9198C97.7891 66.2632 97.8608 65.6528 98.0011 65.0897C98.3324 63.5387 98.8711 61.9911 99.6192 60.4462C100.937 57.7242 102.884 54.63 105.466 51.16C106.637 49.5662 108.487 47.269 111.02 44.2645C111.491 43.7014 111.794 43.0911 111.93 42.4345C111.979 42.2432 112.331 39.8281 112.987 35.1893C113.036 34.8601 113.118 34.3907 113.232 33.7831C113.349 33.1714 113.435 32.7239 113.483 32.4413C113.483 31.927 113.459 31.6481 113.41 31.6034C113.317 31.6034 113.013 31.7909 112.499 32.1649C111.322 33.2443 110.007 34.6509 108.556 36.3847C107.102 37.9784 105.835 39.2226 104.758 40.1171C104.193 40.5846 103.679 40.9124 103.213 41.1014C101.662 41.7092 100.7 41.2148 100.326 39.621C100.146 38.9882 100.086 38.2897 100.146 37.5253C97.9997 40.6306 95.6914 42.2437 93.2198 42.3612C90.9694 42.3612 89.2589 41.3318 88.088 39.2704C88.0392 39.0814 87.9538 38.8229 87.836 38.4979C87.7222 38.1688 87.6162 37.9331 87.5186 37.7909C87.2393 37.2315 87.0427 36.4968 86.9298 35.5868C85.7674 36.3553 84.7214 36.9513 83.794 37.371C83.1377 37.6534 82.6438 37.7938 82.3145 37.7938C81.3327 37.8873 80.6065 37.4889 80.1348 36.5985C79.8096 36.0355 79.6476 35.4966 79.6475 34.9804C79.5988 34.6998 79.5743 34.2768 79.5743 33.7118C79.5743 33.3865 79.5027 33.1991 79.3624 33.1503C79.2201 33.059 78.9844 33.175 78.6553 33.4999L76.8985 35.2645C76.2419 36.0126 75.071 36.9518 73.3858 38.078C73.337 38.1227 73.2165 38.1923 73.0274 38.2899C71.7632 39.0377 70.8974 38.6857 70.4259 37.2323C70.3812 37.0432 70.3604 36.7605 70.3604 36.3866C70.3604 36.3238 70.3648 36.2613 70.3673 36.1991C70.3411 36.2356 70.3158 36.2738 70.2882 36.3114C67.7551 40.113 65.1528 43.8171 62.4815 47.4276C60.9304 49.493 59.2878 51.4182 57.5538 53.2011C56.5231 54.2805 55.6104 55.1018 54.8136 55.6649C53.3112 56.5553 51.8796 56.8342 50.5196 56.5028C49.7717 56.2711 49.1865 55.9901 48.7638 55.6649C47.9181 55.1445 47.141 54.4166 46.4376 53.4774C45.8724 52.778 44.8401 51.2549 43.3399 48.9071C42.9212 48.2526 42.665 47.8785 42.5675 47.785L42.4288 48.0614L42.2179 50.5985C42.1691 51.9606 42.1446 53.978 42.1446 56.6493L41.9327 63.122C41.9327 63.6362 41.8865 64.0103 41.795 64.244C41.7015 64.5245 41.514 64.6197 41.2335 64.5282C40.9998 64.5281 40.8349 64.3858 40.7374 64.1054C40.7374 63.9144 40.7156 63.7739 40.6729 63.6825C40.3904 58.0067 40.3415 53.3388 40.5264 49.6796L40.7374 45.744C40.8349 45.0895 40.6926 44.5487 40.3145 44.1259C40.2698 44.077 40.2127 43.9709 40.1436 43.8085C40.0726 43.6421 40.0137 43.5368 39.9649 43.4921C39.7799 43.1627 39.8516 42.8802 40.1768 42.6464C40.2683 42.5061 40.4086 42.3658 40.5997 42.2235C40.8314 42.132 40.9982 41.8286 41.0958 41.3124L41.5186 37.2958C41.7504 34.7648 42.569 29.1842 43.9737 20.5526L44.9337 15.9745C44.4999 16.1542 44.0874 16.2994 43.6944 16.4071C41.818 16.83 39.6141 17.0409 37.0831 17.0409C33.5215 17.0409 29.0654 16.992 23.7149 16.8944C23.1498 24.1211 22.8221 28.9049 22.7305 31.247C22.7305 31.3445 22.5882 34.1137 22.3077 39.5497C22.1227 43.026 21.889 47.9987 21.6085 54.4716V56.4393C21.6085 56.8134 21.4417 57.0009 21.1124 57.0009C20.8301 57.0008 20.6433 56.8358 20.5518 56.5048C20.5518 56.4134 20.5372 56.2973 20.5108 56.1552C20.4885 56.015 20.4558 55.899 20.4132 55.8055C20.3156 53.7402 20.3156 52.1927 20.4132 51.162C20.4132 50.8327 20.4339 50.3382 20.4786 49.6815C20.5274 49.0271 20.5518 48.535 20.5518 48.2098L20.9747 38.5009L21.3975 32.1659C21.489 29.8198 21.8158 24.7289 22.3809 16.8944H21.8848C16.0241 16.8944 11.1224 17.1063 7.1827 17.5292C5.07284 17.7203 3.50158 17.9764 2.46688 18.3016C1.3447 18.7245 0.665427 19.1718 0.433673 19.6434C0.43363 19.6881 0.362679 19.7088 0.222736 19.7089C0.0806699 19.5688 0.0110532 19.4527 0.0108218 19.3593C-0.0379518 19.0788 0.0780635 18.796 0.360431 18.5136C0.685699 18.233 1.12926 17.9984 1.69442 17.8134C2.63155 17.4394 3.87592 17.1587 5.42684 16.9677C9.78526 16.4534 13.9344 16.1952 17.8761 16.1952C19.3275 16.1952 20.8543 16.2179 22.4542 16.2606C22.6859 13.6382 22.8734 11.7148 23.0157 10.495C23.0584 10.1657 23.1399 9.70631 23.2598 9.12098C23.3776 8.53604 23.4583 8.15186 23.503 7.96668C23.503 7.82647 23.6092 7.71057 23.8204 7.61707C24.0318 7.51949 24.2291 7.53139 24.4141 7.6493C24.6031 7.76315 24.6766 7.96255 24.6339 8.24305C24.4916 8.85701 24.3268 9.81871 24.1378 11.1298L23.7149 16.2606C28.3112 16.3582 31.0332 16.4071 31.879 16.4071C32.4847 16.4071 33.434 16.4316 34.7247 16.4804C36.0136 16.5251 36.988 16.5448 37.6446 16.5448C39.0046 16.5448 40.6717 16.3828 42.6456 16.0575C43.3903 15.8767 44.2051 15.6009 45.0889 15.2313L45.877 11.4774C45.9685 11.0546 46.1332 10.7985 46.3731 10.705C46.7897 10.7051 46.9519 10.9877 46.8604 11.5507C46.7669 12.7703 46.6738 13.7096 46.5763 14.3641C46.5598 14.4654 46.5437 14.5663 46.5274 14.6669L46.5811 14.6503C46.6299 14.6503 46.6995 14.6975 46.793 14.7889C46.8415 14.7891 46.8653 14.8136 46.8653 14.8622C46.8652 14.9066 46.8414 14.9265 46.793 14.9266L46.5157 15.2118C46.4883 15.2268 46.46 15.24 46.4327 15.2548C45.3344 22.0511 44.5135 27.4055 43.9737 31.3182C43.8314 32.3489 43.6568 33.805 43.4454 35.6854C43.238 37.5618 43.0879 38.8042 42.9903 39.41V40.1171C42.9903 40.5845 43.1771 40.7229 43.5509 40.5321L44.4698 39.9061C47.5151 37.983 50.4962 35.2845 53.4073 31.8143C56.6436 27.9173 59.6218 23.2248 62.3438 17.7382C63.9375 14.6442 65.2732 11.1251 66.3526 7.18348C66.7266 6.01265 66.9583 5.358 67.0518 5.21571L67.1251 5.14247L67.2628 5.07801C67.403 5.07801 67.4747 5.17142 67.4747 5.35438C67.4747 5.4519 67.4601 5.57169 67.4337 5.7118C67.4113 5.8541 67.3787 5.96993 67.336 6.06141C66.1163 11.5971 63.6307 17.5561 59.88 23.9354C57.721 27.6394 55.2365 31.0142 52.4229 34.0595C49.8412 36.9216 46.9543 39.2916 43.7628 41.1659C43.0635 41.5887 42.714 42.154 42.7139 42.8573C42.7139 43.4224 42.665 44.2194 42.5675 45.2479C42.474 45.7642 42.5692 46.2117 42.8516 46.5897L46.2266 51.9325C46.8385 52.8229 47.4724 53.5735 48.129 54.1854C48.6921 54.7018 49.1829 55.0758 49.6016 55.3075C50.9188 56.1041 52.2564 56.1522 53.6182 55.453C54.4578 55.0749 55.2775 54.4862 56.0743 53.6893C58.3288 51.4897 60.4649 48.9804 62.4815 46.1669C65.2949 42.4102 67.7345 39.0562 69.7999 36.1005C69.8426 36.009 69.9242 35.8359 70.044 35.58C70.1619 35.3197 70.3042 35.1197 70.4669 34.9774C70.5172 34.934 70.572 34.8991 70.629 34.869C70.7662 34.4945 70.9545 34.1326 71.1983 33.785C71.3873 33.5047 71.5985 33.3379 71.8321 33.2889C72.3951 33.1975 72.6777 33.3842 72.6778 33.8495C72.6778 33.8983 72.6533 34.0651 72.6046 34.3456C72.5598 34.6282 72.5157 34.8401 72.4669 34.9804C72.3246 35.4967 72.255 36.0355 72.255 36.5985C72.255 37.3038 72.5828 37.5149 73.2393 37.2323C74.085 36.7607 74.6954 36.4094 75.0694 36.1757C75.5411 35.8463 76.338 35.118 77.46 33.996C77.8381 33.622 78.3075 33.1057 78.8663 32.4432C79.2891 32.1668 79.5941 32.051 79.7852 32.0936C79.9682 32.1872 80.1105 32.4677 80.2081 32.9393C80.2081 33.4556 80.2288 33.8297 80.2735 34.0614C80.3711 34.8155 80.4642 35.3788 80.5577 35.7528C80.9318 36.881 81.6824 37.3039 82.8106 37.0214C83.1847 36.9299 83.699 36.6934 84.3555 36.3134L86.6807 34.9804C86.7322 34.9468 86.7938 34.9133 86.8643 34.8788C86.7249 32.9451 86.8959 30.3516 87.3809 27.0975C88.1331 21.7958 89.611 16.6363 91.8126 11.6151C92.7071 9.59846 93.6686 7.88804 94.6993 6.48329C95.1648 5.82877 95.846 5.07687 96.7403 4.23133C97.3034 3.75975 97.9356 3.3368 98.6348 2.96278C99.5293 2.58872 100.396 2.58872 101.237 2.96278C102.083 3.33679 102.671 3.97084 103.002 4.86512C103.283 5.61314 103.425 6.57702 103.425 7.75184C103.376 9.48796 102.997 11.3142 102.294 13.2333C101.546 15.2499 100.255 17.8562 98.4239 21.0477C96.1247 25.0323 93.2397 29.2771 89.7716 33.7821C89.6293 33.8756 89.4644 34.0623 89.2755 34.3427C89.0905 34.6252 88.9519 34.8127 88.8604 34.9042C88.4867 35.3268 88.3688 35.7964 88.5108 36.3104C88.9764 37.8128 89.3041 38.7301 89.4952 39.0595C90.5239 40.8443 92.0733 41.6656 94.1387 41.5233C96.0415 41.2931 98.1189 39.4839 100.377 36.1005C100.474 35.6956 100.597 35.275 100.749 34.8397C100.792 34.7421 100.932 34.5773 101.172 34.3436C101.312 34.2522 101.475 34.2423 101.66 34.3114C101.849 34.3826 101.969 34.4886 102.018 34.6288L102.083 35.328C102.038 35.7509 102.018 36.5273 102.018 37.6532V38.7753C102.06 39.6698 102.53 39.9523 103.425 39.621C103.89 39.4319 104.451 39.0804 105.107 38.5643C105.671 38.1415 106.467 37.4153 107.498 36.3847C108.25 35.5877 109.426 34.3925 111.02 32.7987C111.349 32.4206 111.89 31.9025 112.638 31.246C112.687 31.2033 112.922 31.0402 113.345 30.7577C113.762 30.5687 114.02 30.709 114.117 31.1806V31.6034C114.117 32.3027 114.068 32.819 113.971 33.1483C113.786 34.6018 113.387 37.2995 112.775 41.2391C112.731 41.3326 112.711 41.4731 112.711 41.662V42.0116C112.943 42.0604 113.201 41.9445 113.483 41.662C115.358 39.7877 117.537 37.7222 120.022 35.4657L120.867 34.8397C120.872 34.8379 120.878 34.8374 120.883 34.8358C120.981 33.6093 121.093 32.3661 121.224 31.1073C121.689 26.8425 122.39 22.4801 123.329 18.0243C124.266 13.4279 125.582 9.48529 127.274 6.20008C128.022 4.79747 128.748 3.64726 129.453 2.75282C129.919 2.09822 130.504 1.48789 131.209 0.922738L132.267 0.288949ZM111.231 44.9716C111.088 45.0163 110.971 45.0734 110.873 45.1425C110.78 45.2136 110.688 45.3196 110.597 45.4598C110.503 45.6021 110.434 45.6952 110.385 45.744L106.938 49.9647C104.356 53.2946 102.223 56.5516 100.538 59.7391C99.601 61.522 98.9435 63.2606 98.5694 64.952C98.4292 65.5088 98.3585 66.0697 98.3585 66.6347C98.4032 67.7609 98.9891 68.2082 100.115 67.9764L101.172 67.5536C102.06 67.1308 102.811 66.5656 103.425 65.8622C104.736 64.5004 105.744 63.0937 106.449 61.6425C107.338 59.8149 108.019 58.1714 108.49 56.7138C109.427 54.0913 110.34 50.481 111.231 45.8827C111.322 45.4598 111.322 45.1566 111.231 44.9716ZM40.8839 43.0692C40.7864 43.0693 40.762 43.1401 40.8106 43.2802C40.8593 43.2315 40.8837 43.1871 40.8839 43.1425V43.0692ZM130.087 29.5624C129.804 29.3735 129.406 29.4206 128.892 29.7011C127.953 30.0324 127.038 30.738 126.144 31.8153C125.204 32.9375 124.196 34.6028 123.118 36.8085V36.8817C123.167 36.975 123.191 37.0422 123.191 37.0848H123.614C126.194 36.3855 128.306 34.7466 129.948 32.1649C130.18 31.7909 130.343 31.3436 130.437 30.8231C130.528 30.2661 130.412 29.845 130.087 29.5624ZM100.961 3.63758C100.256 3.37737 99.5294 3.48161 98.7813 3.94715C98.45 4.18707 98.0025 4.58564 97.4395 5.14247C96.1752 6.45974 95.0514 8.07804 94.0655 9.99696C92.5205 13.0504 91.2292 16.4513 90.1944 20.202C89.0235 24.3287 88.3669 28.6181 88.2266 33.0741C88.2266 33.6392 88.2953 34.0159 88.4376 34.205C88.6205 34.1074 88.9503 33.7552 89.422 33.1473C89.796 32.5842 90.5116 31.5761 91.5684 30.1229C92.6256 28.6714 93.4332 27.5448 93.9923 26.7479C96.6696 22.7594 98.7812 19.1689 100.326 15.9813C101.546 13.5908 102.321 11.2472 102.652 8.94813C102.835 7.35451 102.766 6.11017 102.441 5.21571C102.158 4.41885 101.664 3.89375 100.961 3.63758ZM134.201 0.963754C133.474 0.797197 132.83 0.994473 132.267 1.5575L131.771 2.0536C131.212 2.56994 130.626 3.29519 130.014 4.23231C128.983 5.87491 127.974 7.98749 126.988 10.5673C126.049 13.149 125.208 16.2187 124.46 19.7802C123.614 23.6731 122.98 27.6149 122.557 31.6034C122.463 32.3027 122.463 32.8642 122.557 33.287C122.697 33.2443 122.826 33.1628 122.94 33.0429C123.057 32.9252 123.163 32.7952 123.256 32.6532C123.354 32.5129 123.427 32.4206 123.476 32.3759C126.098 28.9992 128.959 24.2607 132.055 18.162C133.929 14.46 135.124 10.4977 135.641 6.27332C135.83 4.8647 135.83 3.69195 135.641 2.75282C135.407 1.72416 134.927 1.12639 134.201 0.963754Z" fill="black"/>
</svg>
