<svg width="8" height="15" viewBox="0 0 8 15" fill="none" xmlns="http://www.w3.org/2000/svg">
<path d="M3.70753 0C4.14797 2.60831e-05 4.50499 0.357115 4.50499 0.797559V0.954004C4.505 1.13679 4.64453 1.28063 4.81495 1.30898C5.32169 1.39325 5.78933 1.62257 6.21856 2.00088C6.49259 2.2424 6.71783 2.50634 6.89503 2.79258C7.09928 3.12252 6.91209 3.54912 6.51935 3.70869C6.10151 3.87844 5.61453 3.64829 5.27657 3.28281C5.21534 3.2166 5.15002 3.15355 5.08058 3.09375C4.74923 2.80843 4.29575 2.67207 3.73311 2.67207C3.12228 2.67207 2.63902 2.80273 2.29825 3.079C1.95622 3.35633 1.78683 3.73662 1.78683 4.20811C1.78683 4.6886 2.00238 5.06961 2.42198 5.34326C2.82662 5.60715 3.5462 5.90928 4.571 6.25098C5.79604 6.69335 6.59207 7.20586 6.98429 7.77783C7.38329 8.35971 7.58223 8.9982 7.58224 9.6958C7.58224 10.1801 7.49876 10.6015 7.33477 10.9623C7.16885 11.3273 6.94968 11.6369 6.67774 11.8924C6.4046 12.149 6.08543 12.3565 5.71934 12.5146C5.40899 12.6486 5.08041 12.756 4.7336 12.8369C4.57283 12.8744 4.45372 13.0166 4.45372 13.1855V13.3629C4.4537 13.8033 4.09661 14.1604 3.65616 14.1604C3.21573 14.1603 2.85872 13.8033 2.8587 13.3629V13.1366C2.8587 12.9665 2.74148 12.8228 2.58214 12.7787C1.88536 12.586 1.31504 12.265 0.867685 11.8177C0.54229 11.4923 0.272502 11.0981 0.0589932 10.634C-0.108529 10.2698 0.0951793 9.84544 0.487411 9.69092C0.92304 9.51931 1.41705 9.76662 1.67667 10.1961C1.84363 10.4723 2.04218 10.7038 2.27286 10.8893C2.72672 11.2541 3.24894 11.437 3.83565 11.437C4.41594 11.437 4.91891 11.3006 5.33966 11.023C5.77463 10.7361 5.98722 10.2868 5.98722 9.6958C5.98721 9.16645 5.7611 8.73545 5.31808 8.40996C4.88687 8.09317 4.12725 7.73871 3.04942 7.34521L3.04864 7.34502L2.95558 7.31143C2.00233 6.96225 1.3102 6.55287 0.86954 6.08818C0.420081 5.61421 0.191708 4.99081 0.191708 4.20811C0.19171 3.53274 0.425704 2.91853 0.898739 2.3625C1.33126 1.8541 1.90761 1.50762 2.63282 1.325C2.79114 1.28513 2.90995 1.1444 2.90997 0.975586V0.797559C2.90997 0.357099 3.26707 0 3.70753 0Z" fill="#F7EEEE"/>
</svg>
