<svg width="16" height="15" viewBox="0 0 16 15" fill="none" xmlns="http://www.w3.org/2000/svg">
<path d="M13.5568 3.72618H12.6619C12.3095 3.72247 12.0231 3.45145 12.0231 3.12227C12.0231 1.40087 10.529 0 8.69295 0H7.30572C5.46972 0 3.97558 1.40087 3.97558 3.12227C3.97558 3.45269 3.68916 3.72247 3.33674 3.72618H2.44184C1.09553 3.72618 0 4.75332 0 6.01559V12.7106C0 13.9729 1.09553 15 2.44184 15H13.5582C14.9045 15 16 13.9729 16 12.7106V6.01559C16 4.75332 14.9045 3.72618 13.5582 3.72618H13.5568ZM5.48688 3.13217V3.10742C5.48292 2.66933 5.66639 2.25353 6.00297 1.93548C6.35143 1.6063 6.83716 1.41696 7.33344 1.41696H8.66392C9.1602 1.41696 9.64461 1.6063 9.99439 1.93548C10.331 2.25353 10.5144 2.66933 10.5105 3.10742V3.13093C10.5105 3.29181 10.4458 3.44279 10.327 3.5554C10.2109 3.6643 10.0577 3.7237 9.89276 3.7237H6.1046C5.94093 3.7237 5.7865 3.6643 5.67035 3.55416C5.55024 3.44155 5.48556 3.29057 5.48688 3.12969V3.13217ZM1.51262 6.01559C1.51262 5.53543 1.92971 5.14438 2.44184 5.14438H12.6553H13.5568C14.069 5.14438 14.4861 5.53543 14.4861 6.01559V12.7106C14.4861 13.1907 14.069 13.5818 13.5568 13.5818H2.44184C1.92971 13.5818 1.51262 13.1907 1.51262 12.7106V6.01559Z" fill="white"/>
</svg>
