<svg width="18" height="13" viewBox="0 0 18 13" fill="none" xmlns="http://www.w3.org/2000/svg">
<path d="M13.5837 3.37559C14.0316 3.3756 14.3953 3.71621 14.3954 4.13572C14.3954 4.39869 14.2522 4.63911 14.0142 4.77937L11.3947 6.31219C10.6752 6.73295 9.84755 6.95584 8.99976 6.95585C8.15204 6.95585 7.32424 6.73295 6.60486 6.31219L3.98524 4.77937C3.74723 4.64036 3.60416 4.39868 3.60416 4.13572C3.60417 3.71621 3.96787 3.3756 4.41582 3.37559C4.56693 3.37559 4.7154 3.41567 4.84511 3.49206L7.60238 5.10626C8.02228 5.3517 8.50505 5.48195 8.99976 5.48195C9.49453 5.48195 9.97732 5.3517 10.3971 5.10626L13.1544 3.49206C13.2854 3.41567 13.4326 3.37559 13.5837 3.37559Z" fill="#F7EEEE"/>
<path fill-rule="evenodd" clip-rule="evenodd" d="M14.9325 0C16.624 7.83671e-06 18 1.28863 18 2.87277V10.1273C18 11.7114 16.624 13 14.9325 13H3.06754C1.37599 13 7.26647e-06 11.7115 0 10.1273V2.87277C0 1.28862 1.37599 0 3.06754 0H14.9325ZM3.31356 1.41007C2.32672 1.41007 1.52438 2.16145 1.52438 3.08564V9.87804C1.52438 10.8023 2.32672 11.5536 3.31356 11.5536H14.6864C15.6733 11.5536 16.4756 10.8023 16.4756 9.87804H16.4743V3.08564C16.4742 2.16146 15.672 1.41008 14.6852 1.41007H3.31356Z" fill="#F7EEEE"/>
</svg>
