<svg width="16" height="17" viewBox="0 0 16 17" fill="none" xmlns="http://www.w3.org/2000/svg">
<path d="M4.73367 9.69421C6.87153 9.16575 9.13122 9.16575 11.2691 9.69421C12.3374 9.95776 13.403 10.3593 14.4364 10.8864C14.9076 11.1349 15.2905 11.4995 15.5743 11.9719H15.5717C15.8555 12.4444 16 12.9689 16 13.5329V16.0686C16 16.5807 15.5904 16.9987 15.0884 16.9987C14.5864 16.9987 14.1768 16.5821 14.1768 16.0686V13.5329C14.1768 13.3253 14.1245 13.1341 14.0228 12.9634C13.9211 12.7941 13.7832 12.6588 13.6132 12.5632C12.7002 12.0976 11.7657 11.7439 10.834 11.5104C8.97056 11.0434 7.02944 11.0434 5.166 11.5104C4.23428 11.7439 3.29722 12.099 2.38023 12.5674C2.21424 12.6616 2.07893 12.7954 1.97719 12.9648C1.87546 13.1355 1.82332 13.3267 1.82332 13.5342V16.0701C1.8233 16.5822 1.41359 17 0.911593 17C0.409621 17 1.96704e-05 16.5835 0 16.0701V13.5342C9.79312e-07 12.9702 0.144612 12.4459 0.428408 11.9734C0.71355 11.5009 1.09511 11.1349 1.56499 10.8877C2.59979 10.3593 3.6654 9.95776 4.73367 9.69421Z" fill="#F7EEEE"/>
<path fill-rule="evenodd" clip-rule="evenodd" d="M8.00261 0C9.08293 0 10.0213 0.398757 10.7924 1.18394C11.5622 1.96913 11.9531 2.9264 11.9531 4.02976C11.9531 5.13314 11.5622 6.09038 10.7924 6.87559C10.0227 7.66079 9.08428 8.05952 8.00261 8.05952C6.92096 8.05952 5.98254 7.66078 5.2128 6.87559C4.44307 6.09039 4.05216 5.13313 4.05216 4.02976C4.05217 2.9264 4.44306 1.96913 5.2128 1.18394C5.98254 0.398743 6.9223 7.72793e-06 8.00261 0ZM8.00261 1.62908C7.35738 1.62909 6.79913 1.86535 6.33997 2.33374C5.88214 2.80212 5.64919 3.37157 5.64918 4.02976C5.64918 4.68795 5.88082 5.2574 6.33997 5.72579C6.79913 6.1928 7.35738 6.43044 8.00261 6.43044C8.64787 6.43044 9.20609 6.19418 9.66526 5.72579C10.1231 5.2574 10.356 4.68797 10.356 4.02976C10.356 3.37157 10.1244 2.80212 9.66526 2.33374C9.2061 1.86673 8.64785 1.62908 8.00261 1.62908Z" fill="#F7EEEE"/>
</svg>
