<svg width="20" height="16" viewBox="0 0 20 16" fill="none" xmlns="http://www.w3.org/2000/svg">
<path d="M9.38723 9.11532C11.4002 8.61678 13.5261 8.61678 15.5391 9.11532C16.5456 9.35989 17.5427 9.74597 18.5209 10.2351C18.963 10.4703 19.3202 10.8088 19.5929 11.2603C19.8563 11.7023 19.998 12.2006 19.998 12.7273V15.1166C19.998 15.5963 19.6122 15.991 19.1419 15.9911C18.6716 15.9911 18.2858 15.5963 18.2858 15.1166V12.7273C18.2857 12.5299 18.2383 12.3516 18.1443 12.1917C18.0503 12.0319 17.9192 11.9092 17.7594 11.8151C16.9035 11.373 16.0189 11.044 15.1441 10.8276C13.3945 10.3855 11.5697 10.3855 9.81071 10.8276C8.93595 11.0439 8.05161 11.3822 7.18625 11.8243C7.02634 11.909 6.90369 12.041 6.80962 12.2009C6.71573 12.3607 6.66914 12.5392 6.66908 12.7365V15.1258C6.66908 15.6054 6.2832 16.0011 5.81294 16.0012C5.34261 16.0012 4.9568 15.6055 4.9568 15.1258V12.7365C4.95686 12.2099 5.08832 11.7114 5.36098 11.2695C5.63377 10.8273 5.99181 10.4795 6.43391 10.2443C7.40273 9.74579 8.40927 9.36907 9.41571 9.12451L9.38723 9.11532Z" fill="#F7EEEE"/>
<path d="M4.2706 9.39734C4.48179 9.34636 4.62599 9.65468 4.48188 9.81714C4.30786 10.0127 4.15003 10.2262 4.00971 10.4565L4.00696 10.4556L4.00512 10.4547C3.9148 10.6106 3.83472 10.7722 3.76445 10.936C3.65063 11.2012 3.44415 11.4191 3.17562 11.5248C2.82964 11.6609 2.48483 11.8109 2.14494 11.9841C1.99444 12.0688 1.87157 12.191 1.7775 12.3415C1.68353 12.5013 1.63698 12.6706 1.63696 12.8586V15.1441C1.63696 15.605 1.26994 15.9818 0.818478 15.9819C0.366965 15.9819 0 15.6051 0 15.1441V12.8586C2.54258e-05 12.3507 0.131863 11.8709 0.385814 11.4477C0.639782 11.0245 0.987742 10.6951 1.41098 10.4693C2.3422 9.99904 3.31116 9.63249 4.2706 9.39734Z" fill="#F7EEEE"/>
<path d="M7.21565 0.667826C7.65917 0.668025 7.85489 1.18212 7.67863 1.58919C7.63265 1.69528 7.59011 1.80297 7.55094 1.91162C7.50058 2.0513 7.36411 2.12557 7.21565 2.12565C6.64185 2.12565 6.13404 2.34263 5.72016 2.76592C5.30629 3.18921 5.09918 3.69707 5.09918 4.29908C5.09926 4.90095 5.30635 5.40901 5.72016 5.83223C6.13398 6.25531 6.63259 6.47158 7.21565 6.47158C7.25079 6.47157 7.28568 6.47008 7.32037 6.4679C7.6424 6.44762 8.03991 6.64741 8.23163 6.907C8.50662 7.2796 8.29255 7.73754 7.84122 7.84122C7.62007 7.89201 7.39562 7.92937 7.21565 7.92941C6.24682 7.92941 5.40025 7.57201 4.70418 6.86658C4.00817 6.16117 3.6598 5.29603 3.65973 4.29908C3.65973 3.30198 4.0081 2.43614 4.70418 1.73065C5.39082 1.02531 6.23747 0.667826 7.21565 0.667826Z" fill="#F7EEEE"/>
<path fill-rule="evenodd" clip-rule="evenodd" d="M12.4646 0C13.4804 4.54043e-05 14.3648 0.376037 15.089 1.10968C15.8133 1.85279 16.1803 2.74696 16.1803 3.79109C16.1803 4.83502 15.8132 5.72856 15.089 6.47158C14.3648 7.21465 13.4804 7.58121 12.4646 7.58125C11.4487 7.58125 10.5644 7.20527 9.8401 6.47158C9.11586 5.72852 8.74886 4.8351 8.7488 3.79109C8.7488 2.75637 9.1158 1.85279 9.8401 1.10968C10.5644 0.376113 11.4488 0 12.4646 0ZM12.4646 1.53315C11.8531 1.53315 11.3356 1.75909 10.9029 2.19179C10.4702 2.6339 10.2535 3.17026 10.2535 3.79109C10.2535 4.41181 10.4703 4.94833 10.9029 5.39038C11.3356 5.83232 11.8627 6.0481 12.4646 6.0481C13.0665 6.04805 13.5935 5.823 14.0262 5.39038C14.4588 4.94833 14.6747 4.41181 14.6747 3.79109C14.6747 3.17035 14.4588 2.63386 14.0262 2.19179C13.5935 1.74973 13.0665 1.5332 12.4646 1.53315Z" fill="#F7EEEE"/>
</svg>
