<svg width="93" height="96" viewBox="0 0 93 96" fill="none" xmlns="http://www.w3.org/2000/svg">
<path d="M45.8896 0C72.0296 0 91.54 18.9403 91.54 44.0303C91.54 57.3294 86.1111 68.8776 77.1494 76.8252L92.4502 95.999H71.7002L41.8799 58.6289H62.6299L65.7119 62.4912C70.0607 57.7419 72.6396 51.3099 72.6396 44.0303C72.6396 28.7103 61.2296 17.25 45.8896 17.25C30.5498 17.2502 18.8896 28.8304 18.8896 44.0303C18.8898 59.23 30.5499 70.9295 45.8896 70.9297H46.5996L59.2998 86.4102C55.0999 87.5601 50.5996 88.1797 45.8896 88.1797C19.6299 88.1795 0.000127341 69.12 0 44.0303C0 19.0604 19.7498 0.000178016 45.8896 0Z" fill="currentColor"/>
</svg>