<?xml version="1.0" encoding="UTF-8"?>
<svg id="Layer_2" data-name="Layer 2" xmlns="http://www.w3.org/2000/svg" viewBox="0 0 500 157.77">
  <defs>
    <style>
      .cls-1 {
        fill: #ffffff;
      }
    </style>
  </defs>
  <g id="Layer_1-2" data-name="Layer 1">
    <g>
      <path class="cls-1" d="M38.42,56.81c-10.54-1.83-19.45-3.33-19.45-11.33,0-6.5,6.16-11,16.05-11,10.54,0,17.02,4.66,17.34,13.16h17.02c-.32-17.33-13.62-28.82-33.88-28.82S1.62,29.99,1.62,46.15c0,20.83,17.18,24.16,31.77,26.82,10.7,1.83,20.1,3.67,20.1,12.33,0,7.5-7.46,11.66-17.18,11.66-10.54,0-18.32-5-18.8-14.49H0c.49,18.66,14.43,30.82,35.66,30.82s35.5-11.33,35.5-28.82c0-22.16-17.99-25.16-32.74-27.66Z"/>
      <path class="cls-1" d="M114.43,83.8l-27.88-62.81h-19.45l38.09,83.47-1.95,4.33c-6.48,14.33-10.05,17.83-21.56,17.83h-7.62v16.66h8.92c17.83,0,26.58-8,36.47-30.65l40.2-91.63h-19.13l-26.1,62.81Z"/>
      <path class="cls-1" d="M210.68,18.99c-12.8,0-23.67,5.5-30.15,14.66l-3.57-12.66h-12.48v89.97h17.99v-48.15c0-15.83,9.72-27.16,23.5-27.16s20.1,8.66,20.1,24.99v50.31h17.99v-54.15c0-22.16-12.81-37.82-33.39-37.82Z"/>
      <path class="cls-1" d="M277.93,77.47v-40.49h25.93v-15.99h-26.1V0h-3.08l-30.47,33.32v3.67h15.72v41.98c0,19.83,11.83,31.99,30.96,31.99h13.45v-16.66h-10.05c-10.54,0-16.37-6-16.37-16.83Z"/>
      <path class="cls-1" d="M393.88,82.64h-18.96c-4.7,8.33-13.13,13.33-23.67,13.33-14.26,0-24.48-9-26.74-23.66h71c.33-2,.49-4,.49-6,0-26.16-17.83-47.48-44.74-47.48s-44.9,20.33-44.9,47.15,19.29,47.32,44.9,47.32c19.61,0,35.66-11.66,42.63-30.65ZM351.24,35.65c13.45,0,23.34,8,26.58,21.66h-52.84c2.92-13.33,12.81-21.66,26.26-21.66Z"/>
      <path class="cls-1" d="M467.91,83.24h-22.33s32.09,41.64,32.09,41.64h22.33l-16.47-21.37c9.65-8.86,15.5-21.72,15.5-36.54,0-27.96-21-49.06-49.12-49.06s-49.39,21.24-49.39,49.06,21.13,49.19,49.39,49.19c5.07,0,9.91-.68,14.43-1.97l-13.66-17.25c-.26,0-.51,0-.77,0-16.51,0-29.05-13.04-29.05-29.97s12.55-29.84,29.05-29.84,28.79,12.77,28.79,29.84c0,8.11-2.78,15.28-7.47,20.57l-3.31-4.3Z"/>
      <path class="cls-1" d="M342.14,133.17h-7.99v24.18h7.99c7.02,0,11.97-5.08,11.97-12.09s-4.96-12.09-11.97-12.09ZM342.03,154.38h-4.79v-18.24h4.79c5.43,0,8.97,3.63,8.97,9.12s-3.54,9.12-8.97,9.12Z"/>
      <rect class="cls-1" x="356.67" y="133.17" width="3.1" height="24.18"/>
      <path class="cls-1" d="M373.66,148.2h9.11c-.84,3.97-3.85,6.53-8.43,6.53-5.23,0-8.9-3.77-8.9-9.46s3.68-9.46,8.9-9.46c4.28,0,6.88,2.35,7.99,5.25h3.24c-1.11-4.56-5.19-8.29-11.23-8.29-6.95,0-12.01,5.18-12.01,12.5s5.06,12.5,12.01,12.5,11.64-5.18,11.84-12.5h-12.51v2.94Z"/>
      <rect class="cls-1" x="388.67" y="133.17" width="3.1" height="24.18"/>
      <polygon class="cls-1" points="410.76 133.17 393.42 133.17 393.42 136.21 400.54 136.21 400.54 157.35 403.64 157.35 403.64 136.21 410.76 136.21 410.76 133.17"/>
      <path class="cls-1" d="M417.18,133.17l-9.75,24.18h3.3l2.23-5.56h11.37l2.23,5.56h3.37l-9.75-24.18h-3ZM414.15,148.75l4.49-11.57,4.49,11.57h-8.97Z"/>
      <polygon class="cls-1" points="434.11 133.17 431.01 133.17 431.01 157.35 444.43 157.35 444.43 154.31 434.11 154.31 434.11 133.17"/>
    </g>
  </g>
</svg>