<svg width="35" height="35" viewBox="0 0 35 35" fill="none" xmlns="http://www.w3.org/2000/svg">
<path d="M20.125 22.9989C20.125 25.5433 19.0181 27.8433 17.25 29.4102C15.7263 30.7902 13.7138 31.6239 11.5 31.6239C6.74188 31.6239 2.875 27.757 2.875 22.9989C2.875 19.0314 5.5775 15.6677 9.22875 14.6758C10.2206 17.177 12.3481 19.1033 14.9788 19.822C15.6975 20.0233 16.4594 20.1239 17.25 20.1239C18.0406 20.1239 18.8025 20.0233 19.5213 19.822C19.9094 20.7995 20.125 21.8777 20.125 22.9989Z" stroke="#292D32" stroke-width="1.23214" stroke-linecap="round" stroke-linejoin="round"/>
<path d="M25.875 11.5C25.875 12.6213 25.6594 13.6994 25.2713 14.6769C24.2794 17.1781 22.1519 19.1044 19.5212 19.8231C18.8025 20.0244 18.0406 20.125 17.25 20.125C16.4594 20.125 15.6975 20.0244 14.9788 19.8231C12.3481 19.1044 10.2206 17.1781 9.22875 14.6769C8.84062 13.6994 8.625 12.6213 8.625 11.5C8.625 6.74188 12.4919 2.875 17.25 2.875C22.0081 2.875 25.875 6.74188 25.875 11.5Z" stroke="#292D32" stroke-width="1.23214" stroke-linecap="round" stroke-linejoin="round"/>
<path opacity="0.4" d="M31.625 22.9989C31.625 27.757 27.7581 31.6239 23 31.6239C20.7862 31.6239 18.7737 30.7902 17.25 29.4102C19.0181 27.8433 20.125 25.5433 20.125 22.9989C20.125 21.8777 19.9094 20.7995 19.5212 19.822C22.1519 19.1033 24.2794 17.177 25.2712 14.6758C28.9225 15.6677 31.625 19.0314 31.625 22.9989Z" stroke="#292D32" stroke-width="1.23214" stroke-linecap="round" stroke-linejoin="round"/>
</svg>
