<svg width="35" height="35" viewBox="0 0 35 35" fill="none" xmlns="http://www.w3.org/2000/svg">
<path d="M17.25 31.625C25.1891 31.625 31.625 25.1891 31.625 17.25C31.625 9.31089 25.1891 2.875 17.25 2.875C9.31089 2.875 2.875 9.31089 2.875 17.25C2.875 25.1891 9.31089 31.625 17.25 31.625Z" stroke="#292D32" stroke-width="1.23214" stroke-linecap="round" stroke-linejoin="round"/>
<g opacity="0.4">
<path d="M24.4375 17.25C24.4375 21.2175 21.2175 24.4375 17.25 24.4375V10.0625C21.2175 10.0625 24.4375 13.2825 24.4375 17.25Z" stroke="#292D32" stroke-width="1.23214" stroke-linecap="round" stroke-linejoin="round"/>
<path d="M17.25 10.0625V24.4375C13.2825 24.4375 10.0625 21.2175 10.0625 17.25C10.0625 13.2825 13.2825 10.0625 17.25 10.0625Z" stroke="#292D32" stroke-width="1.23214" stroke-linecap="round" stroke-linejoin="round"/>
<path d="M17.25 31.625V24.4375" stroke="#292D32" stroke-width="1.23214" stroke-linecap="round" stroke-linejoin="round"/>
<path d="M17.25 10.0625V2.875" stroke="#292D32" stroke-width="1.23214" stroke-linecap="round" stroke-linejoin="round"/>
</g>
</svg>
